<?xml version="1.0" encoding="utf-8"?>
<!-- Generator: Adobe Illustrator 16.0.0, SVG Export Plug-In . SVG Version: 6.00 Build 0)  -->
<!DOCTYPE svg PUBLIC "-//W3C//DTD SVG 1.1//EN" "http://www.w3.org/Graphics/SVG/1.1/DTD/svg11.dtd">
<svg version="1.1" xmlns="http://www.w3.org/2000/svg" xmlns:xlink="http://www.w3.org/1999/xlink" x="0px" y="0px"
	 width="612.101px" height="299.163px" viewBox="0 0 612.101 299.163" enable-background="new 0 0 612.101 299.163"
	 xml:space="preserve">
<g id="Layer_2">
	<rect width="612.101" height="299.163"/>
</g>
<g id="Layer_1">
	<g>
	</g>
	<g>
		<path d="M110.592,134.313l-1.26-4.932h-0.024l-1.248,4.932h-1.104l-1.992-6.204h1.128l1.404,5.076h0.024l1.248-5.076h1.116
			l1.296,5.076h0.024l1.392-5.076h1.056l-1.98,6.204H110.592z"/>
		<path d="M115.644,125.745v3.276h0.024c0.08-0.192,0.192-0.354,0.336-0.486s0.306-0.239,0.486-0.323
			c0.18-0.084,0.368-0.146,0.564-0.187c0.196-0.04,0.386-0.06,0.57-0.06c0.408,0,0.748,0.056,1.02,0.168
			c0.272,0.111,0.492,0.268,0.66,0.468c0.168,0.2,0.286,0.438,0.354,0.714c0.068,0.276,0.102,0.582,0.102,0.918v4.08h-1.02v-4.2
			c0-0.384-0.112-0.688-0.336-0.912c-0.224-0.224-0.532-0.336-0.924-0.336c-0.312,0-0.582,0.048-0.81,0.145
			c-0.228,0.096-0.418,0.231-0.57,0.407c-0.152,0.177-0.266,0.383-0.342,0.618c-0.076,0.236-0.114,0.494-0.114,0.774v3.504h-1.02
			v-8.568H115.644z"/>
		<path d="M126.792,134.289c-0.176,0.104-0.42,0.156-0.732,0.156c-0.264,0-0.474-0.074-0.63-0.222
			c-0.156-0.148-0.234-0.391-0.234-0.727c-0.28,0.336-0.606,0.578-0.978,0.727c-0.372,0.147-0.774,0.222-1.206,0.222
			c-0.28,0-0.546-0.032-0.798-0.096c-0.252-0.064-0.47-0.164-0.654-0.3c-0.185-0.137-0.33-0.314-0.438-0.534
			c-0.108-0.22-0.162-0.486-0.162-0.798c0-0.353,0.06-0.641,0.18-0.864c0.12-0.224,0.278-0.406,0.474-0.546
			c0.196-0.14,0.42-0.246,0.672-0.318s0.51-0.132,0.774-0.18c0.28-0.056,0.546-0.098,0.798-0.126s0.474-0.068,0.666-0.12
			s0.344-0.128,0.456-0.228c0.112-0.101,0.168-0.246,0.168-0.438c0-0.224-0.042-0.404-0.126-0.54s-0.192-0.24-0.324-0.312
			c-0.132-0.072-0.28-0.12-0.444-0.145c-0.164-0.023-0.326-0.036-0.486-0.036c-0.432,0-0.792,0.082-1.08,0.246
			s-0.444,0.475-0.468,0.93h-1.02c0.016-0.384,0.096-0.708,0.24-0.972s0.336-0.478,0.576-0.642c0.24-0.164,0.514-0.282,0.822-0.354
			c0.308-0.071,0.638-0.107,0.99-0.107c0.28,0,0.558,0.02,0.834,0.06c0.276,0.04,0.526,0.122,0.75,0.245
			c0.224,0.124,0.404,0.298,0.54,0.521c0.136,0.224,0.204,0.515,0.204,0.874v3.185c0,0.24,0.014,0.415,0.042,0.527
			c0.028,0.111,0.122,0.168,0.282,0.168c0.088,0,0.192-0.017,0.312-0.049V134.289z M125.135,131.109
			c-0.128,0.096-0.296,0.165-0.504,0.209s-0.426,0.08-0.654,0.107c-0.228,0.028-0.458,0.06-0.69,0.096s-0.44,0.094-0.624,0.173
			c-0.185,0.08-0.334,0.193-0.45,0.341c-0.116,0.147-0.174,0.349-0.174,0.603c0,0.168,0.034,0.309,0.102,0.424
			c0.068,0.116,0.156,0.209,0.264,0.281c0.108,0.071,0.234,0.123,0.378,0.155c0.144,0.031,0.296,0.048,0.456,0.048
			c0.336,0,0.624-0.046,0.864-0.138c0.24-0.092,0.436-0.207,0.588-0.347c0.152-0.139,0.264-0.29,0.336-0.453s0.108-0.316,0.108-0.46
			V131.109z"/>
		<path d="M130.391,128.109v0.9h-1.236v3.852c0,0.12,0.01,0.216,0.03,0.288s0.058,0.128,0.114,0.168
			c0.056,0.04,0.134,0.066,0.234,0.078s0.23,0.018,0.39,0.018h0.468v0.9h-0.78c-0.264,0-0.49-0.018-0.678-0.054
			s-0.34-0.103-0.456-0.198c-0.116-0.096-0.202-0.232-0.258-0.408c-0.056-0.176-0.084-0.408-0.084-0.696v-3.947h-1.056v-0.9h1.056
			v-1.86h1.02v1.86H130.391z"/>
		<path d="M134.915,126.993v-1.248h1.02v1.248H134.915z M135.935,128.109v6.204h-1.02v-6.204H135.935z"/>
		<path d="M138.299,132.927c0.096,0.155,0.222,0.28,0.378,0.372c0.156,0.092,0.332,0.158,0.528,0.197
			c0.196,0.041,0.398,0.061,0.606,0.061c0.16,0,0.328-0.012,0.504-0.036c0.176-0.024,0.338-0.068,0.486-0.132
			c0.148-0.064,0.27-0.158,0.366-0.282s0.144-0.282,0.144-0.474c0-0.265-0.1-0.464-0.3-0.601c-0.2-0.136-0.45-0.246-0.75-0.33
			c-0.3-0.084-0.626-0.159-0.978-0.228c-0.353-0.068-0.678-0.164-0.978-0.288c-0.3-0.124-0.55-0.298-0.75-0.522
			c-0.2-0.224-0.3-0.535-0.3-0.936c0-0.312,0.07-0.58,0.21-0.804c0.14-0.225,0.32-0.406,0.54-0.546
			c0.22-0.141,0.468-0.244,0.744-0.312c0.276-0.067,0.55-0.102,0.822-0.102c0.352,0,0.676,0.029,0.972,0.09
			c0.296,0.06,0.558,0.164,0.786,0.312c0.228,0.148,0.41,0.349,0.546,0.601c0.136,0.252,0.216,0.565,0.24,0.941h-1.02
			c-0.017-0.199-0.068-0.365-0.156-0.498c-0.088-0.132-0.2-0.237-0.336-0.317c-0.136-0.08-0.286-0.139-0.45-0.174
			c-0.164-0.036-0.33-0.055-0.498-0.055c-0.152,0-0.306,0.013-0.462,0.036c-0.156,0.024-0.298,0.066-0.426,0.126
			c-0.128,0.061-0.232,0.141-0.312,0.24c-0.08,0.1-0.12,0.229-0.12,0.39c0,0.177,0.062,0.322,0.186,0.438s0.282,0.212,0.474,0.288
			c0.192,0.076,0.408,0.14,0.648,0.191c0.24,0.053,0.48,0.106,0.72,0.162c0.256,0.057,0.506,0.124,0.75,0.204
			s0.46,0.187,0.648,0.318s0.34,0.298,0.456,0.498c0.116,0.2,0.174,0.448,0.174,0.744c0,0.376-0.078,0.688-0.234,0.936
			c-0.156,0.248-0.36,0.448-0.612,0.6c-0.252,0.152-0.536,0.259-0.852,0.318s-0.63,0.09-0.942,0.09
			c-0.344,0-0.672-0.036-0.984-0.107c-0.312-0.072-0.588-0.19-0.828-0.354c-0.24-0.164-0.432-0.38-0.576-0.647
			c-0.144-0.269-0.224-0.595-0.24-0.979h1.02C138.151,132.581,138.203,132.771,138.299,132.927z"/>
		<path d="M149.507,128.109v0.9h-1.236v3.852c0,0.12,0.01,0.216,0.03,0.288s0.058,0.128,0.114,0.168
			c0.056,0.04,0.134,0.066,0.234,0.078s0.23,0.018,0.39,0.018h0.468v0.9h-0.78c-0.264,0-0.49-0.018-0.678-0.054
			s-0.34-0.103-0.456-0.198c-0.116-0.096-0.202-0.232-0.258-0.408c-0.056-0.176-0.084-0.408-0.084-0.696v-3.947h-1.056v-0.9h1.056
			v-1.86h1.02v1.86H149.507z"/>
		<path d="M151.655,125.745v3.276h0.024c0.08-0.192,0.192-0.354,0.336-0.486s0.306-0.239,0.486-0.323
			c0.18-0.084,0.368-0.146,0.564-0.187c0.196-0.04,0.386-0.06,0.57-0.06c0.408,0,0.748,0.056,1.02,0.168
			c0.272,0.111,0.492,0.268,0.66,0.468c0.168,0.2,0.286,0.438,0.354,0.714c0.068,0.276,0.102,0.582,0.102,0.918v4.08h-1.02v-4.2
			c0-0.384-0.112-0.688-0.336-0.912c-0.224-0.224-0.532-0.336-0.924-0.336c-0.312,0-0.582,0.048-0.81,0.145
			c-0.228,0.096-0.418,0.231-0.57,0.407c-0.152,0.177-0.266,0.383-0.342,0.618c-0.076,0.236-0.114,0.494-0.114,0.774v3.504h-1.02
			v-8.568H151.655z"/>
		<path d="M161.699,133.917c-0.464,0.353-1.048,0.528-1.752,0.528c-0.496,0-0.926-0.08-1.29-0.24
			c-0.364-0.159-0.67-0.384-0.918-0.672c-0.248-0.288-0.434-0.632-0.558-1.031c-0.124-0.4-0.194-0.836-0.21-1.309
			c0-0.472,0.072-0.904,0.216-1.296s0.346-0.732,0.606-1.02c0.26-0.288,0.568-0.513,0.924-0.673c0.355-0.159,0.746-0.239,1.17-0.239
			c0.552,0,1.01,0.113,1.374,0.342c0.364,0.228,0.656,0.518,0.876,0.87c0.22,0.352,0.372,0.736,0.456,1.151
			c0.084,0.416,0.118,0.812,0.102,1.188h-4.644c-0.008,0.271,0.024,0.53,0.096,0.773c0.072,0.244,0.188,0.461,0.348,0.648
			c0.16,0.188,0.364,0.338,0.612,0.45s0.54,0.168,0.876,0.168c0.432,0,0.786-0.1,1.062-0.3c0.276-0.2,0.458-0.504,0.546-0.912h1.008
			C162.462,133.041,162.163,133.565,161.699,133.917z M161.453,129.933c-0.092-0.216-0.216-0.402-0.372-0.559
			c-0.156-0.155-0.34-0.279-0.552-0.371c-0.212-0.093-0.446-0.139-0.702-0.139c-0.264,0-0.502,0.046-0.714,0.139
			c-0.212,0.092-0.395,0.218-0.546,0.378s-0.272,0.346-0.36,0.558s-0.14,0.438-0.156,0.678h3.564
			C161.599,130.377,161.544,130.149,161.453,129.933z"/>
		<path d="M172.15,134.313l-1.26-4.932h-0.024l-1.248,4.932h-1.104l-1.992-6.204h1.128l1.404,5.076h0.024l1.248-5.076h1.116
			l1.296,5.076h0.024l1.392-5.076h1.056l-1.98,6.204H172.15z"/>
		<path d="M176.038,129.939c0.128-0.396,0.32-0.74,0.576-1.032c0.256-0.292,0.572-0.521,0.948-0.689s0.808-0.252,1.296-0.252
			c0.496,0,0.93,0.084,1.302,0.252s0.686,0.397,0.942,0.689c0.256,0.292,0.448,0.637,0.576,1.032
			c0.128,0.396,0.192,0.822,0.192,1.278s-0.064,0.88-0.192,1.271c-0.128,0.393-0.32,0.734-0.576,1.026
			c-0.256,0.292-0.57,0.52-0.942,0.684s-0.806,0.246-1.302,0.246c-0.488,0-0.92-0.082-1.296-0.246s-0.692-0.392-0.948-0.684
			c-0.256-0.292-0.448-0.634-0.576-1.026c-0.128-0.392-0.192-0.815-0.192-1.271S175.91,130.335,176.038,129.939z M177.076,132.219
			c0.1,0.292,0.238,0.536,0.414,0.731c0.176,0.196,0.382,0.347,0.618,0.45c0.236,0.104,0.486,0.156,0.75,0.156
			c0.264,0,0.514-0.052,0.75-0.156c0.236-0.104,0.442-0.254,0.618-0.45c0.176-0.195,0.314-0.439,0.414-0.731s0.15-0.626,0.15-1.002
			s-0.05-0.71-0.15-1.002s-0.238-0.538-0.414-0.738c-0.176-0.2-0.382-0.352-0.618-0.456c-0.236-0.104-0.486-0.156-0.75-0.156
			c-0.264,0-0.514,0.053-0.75,0.156c-0.236,0.104-0.442,0.256-0.618,0.456c-0.176,0.2-0.314,0.446-0.414,0.738
			c-0.1,0.292-0.15,0.626-0.15,1.002S176.976,131.927,177.076,132.219z"/>
		<path d="M183.994,128.109v1.308h0.024c0.248-0.504,0.552-0.876,0.912-1.115c0.36-0.24,0.816-0.353,1.368-0.336v1.08
			c-0.408,0-0.756,0.056-1.044,0.168c-0.288,0.111-0.521,0.275-0.696,0.491c-0.176,0.217-0.304,0.479-0.384,0.786
			c-0.08,0.309-0.12,0.662-0.12,1.062v2.76h-1.02v-6.204H183.994z"/>
		<path d="M188.146,125.745v5.076l2.832-2.712h1.368l-2.46,2.256l2.64,3.948h-1.296l-2.124-3.24l-0.96,0.889v2.352h-1.02v-8.568
			H188.146z"/>
		<path d="M199.066,135.141c-0.12,0.304-0.238,0.56-0.354,0.768c-0.116,0.208-0.244,0.378-0.384,0.511
			c-0.14,0.132-0.296,0.228-0.468,0.287c-0.172,0.061-0.37,0.091-0.594,0.091c-0.12,0-0.24-0.009-0.36-0.024
			s-0.236-0.044-0.348-0.084v-0.936c0.088,0.039,0.19,0.073,0.306,0.102c0.116,0.028,0.214,0.042,0.294,0.042
			c0.208,0,0.382-0.05,0.522-0.15c0.14-0.1,0.246-0.241,0.318-0.426l0.42-1.044l-2.46-6.168h1.152l1.812,5.076h0.024l1.74-5.076
			h1.08L199.066,135.141z"/>
		<path d="M202.486,129.939c0.128-0.396,0.32-0.74,0.576-1.032c0.256-0.292,0.572-0.521,0.948-0.689s0.808-0.252,1.296-0.252
			c0.496,0,0.93,0.084,1.302,0.252s0.686,0.397,0.942,0.689c0.256,0.292,0.448,0.637,0.576,1.032
			c0.128,0.396,0.192,0.822,0.192,1.278s-0.064,0.88-0.192,1.271c-0.128,0.393-0.32,0.734-0.576,1.026
			c-0.256,0.292-0.57,0.52-0.942,0.684s-0.806,0.246-1.302,0.246c-0.488,0-0.92-0.082-1.296-0.246s-0.692-0.392-0.948-0.684
			c-0.256-0.292-0.448-0.634-0.576-1.026c-0.128-0.392-0.192-0.815-0.192-1.271S202.358,130.335,202.486,129.939z M203.524,132.219
			c0.1,0.292,0.238,0.536,0.414,0.731c0.176,0.196,0.382,0.347,0.618,0.45c0.236,0.104,0.486,0.156,0.75,0.156
			c0.264,0,0.514-0.052,0.75-0.156c0.236-0.104,0.442-0.254,0.618-0.45c0.176-0.195,0.314-0.439,0.414-0.731s0.15-0.626,0.15-1.002
			s-0.05-0.71-0.15-1.002s-0.238-0.538-0.414-0.738c-0.176-0.2-0.382-0.352-0.618-0.456c-0.236-0.104-0.486-0.156-0.75-0.156
			c-0.264,0-0.514,0.053-0.75,0.156c-0.236,0.104-0.442,0.256-0.618,0.456c-0.176,0.2-0.314,0.446-0.414,0.738
			c-0.1,0.292-0.15,0.626-0.15,1.002S203.424,131.927,203.524,132.219z"/>
		<path d="M213.693,134.313v-0.984h-0.024c-0.216,0.385-0.492,0.666-0.828,0.847c-0.336,0.18-0.732,0.27-1.188,0.27
			c-0.408,0-0.748-0.054-1.02-0.162c-0.272-0.107-0.492-0.262-0.66-0.462c-0.168-0.199-0.286-0.438-0.354-0.714
			c-0.068-0.276-0.102-0.582-0.102-0.918v-4.08h1.02v4.2c0,0.384,0.112,0.688,0.336,0.912c0.224,0.224,0.532,0.336,0.924,0.336
			c0.312,0,0.582-0.048,0.81-0.145c0.228-0.096,0.418-0.231,0.57-0.407c0.152-0.176,0.266-0.382,0.342-0.618
			c0.076-0.236,0.114-0.494,0.114-0.774v-3.504h1.02v6.204H213.693z"/>
		<path d="M224.589,134.313l-1.26-4.932h-0.024l-1.248,4.932h-1.104l-1.992-6.204h1.128l1.404,5.076h0.024l1.248-5.076h1.116
			l1.296,5.076h0.024l1.392-5.076h1.056l-1.98,6.204H224.589z"/>
		<path d="M234.118,134.289c-0.176,0.104-0.42,0.156-0.732,0.156c-0.264,0-0.474-0.074-0.63-0.222
			c-0.156-0.148-0.234-0.391-0.234-0.727c-0.28,0.336-0.606,0.578-0.978,0.727c-0.372,0.147-0.774,0.222-1.206,0.222
			c-0.28,0-0.546-0.032-0.798-0.096c-0.252-0.064-0.47-0.164-0.654-0.3c-0.185-0.137-0.33-0.314-0.438-0.534
			c-0.108-0.22-0.162-0.486-0.162-0.798c0-0.353,0.06-0.641,0.18-0.864c0.12-0.224,0.278-0.406,0.474-0.546
			c0.196-0.14,0.42-0.246,0.672-0.318s0.51-0.132,0.774-0.18c0.28-0.056,0.546-0.098,0.798-0.126s0.474-0.068,0.666-0.12
			s0.344-0.128,0.456-0.228c0.112-0.101,0.168-0.246,0.168-0.438c0-0.224-0.042-0.404-0.126-0.54s-0.192-0.24-0.324-0.312
			c-0.132-0.072-0.28-0.12-0.444-0.145c-0.164-0.023-0.326-0.036-0.486-0.036c-0.432,0-0.792,0.082-1.08,0.246
			s-0.444,0.475-0.468,0.93h-1.02c0.016-0.384,0.096-0.708,0.24-0.972s0.336-0.478,0.576-0.642c0.24-0.164,0.514-0.282,0.822-0.354
			c0.308-0.071,0.638-0.107,0.99-0.107c0.28,0,0.558,0.02,0.834,0.06c0.276,0.04,0.526,0.122,0.75,0.245
			c0.224,0.124,0.404,0.298,0.54,0.521c0.136,0.224,0.204,0.515,0.204,0.874v3.185c0,0.24,0.014,0.415,0.042,0.527
			c0.028,0.111,0.122,0.168,0.282,0.168c0.088,0,0.192-0.017,0.312-0.049V134.289z M232.461,131.109
			c-0.128,0.096-0.296,0.165-0.504,0.209s-0.426,0.08-0.654,0.107c-0.228,0.028-0.458,0.06-0.69,0.096s-0.44,0.094-0.624,0.173
			c-0.185,0.08-0.334,0.193-0.45,0.341c-0.116,0.147-0.174,0.349-0.174,0.603c0,0.168,0.034,0.309,0.102,0.424
			c0.068,0.116,0.156,0.209,0.264,0.281c0.108,0.071,0.234,0.123,0.378,0.155c0.144,0.031,0.296,0.048,0.456,0.048
			c0.336,0,0.624-0.046,0.864-0.138c0.24-0.092,0.436-0.207,0.588-0.347c0.152-0.139,0.264-0.29,0.336-0.453s0.108-0.316,0.108-0.46
			V131.109z"/>
		<path d="M236.025,128.109v0.984h0.024c0.424-0.752,1.096-1.128,2.016-1.128c0.408,0,0.748,0.056,1.02,0.168
			c0.272,0.111,0.492,0.268,0.66,0.468c0.168,0.2,0.286,0.438,0.354,0.714c0.068,0.276,0.102,0.582,0.102,0.918v4.08h-1.02v-4.2
			c0-0.384-0.112-0.688-0.336-0.912c-0.224-0.224-0.532-0.336-0.924-0.336c-0.312,0-0.582,0.048-0.81,0.145
			c-0.228,0.096-0.418,0.231-0.57,0.407c-0.152,0.177-0.266,0.383-0.342,0.618c-0.076,0.236-0.114,0.494-0.114,0.774v3.504h-1.02
			v-6.204H236.025z"/>
		<path d="M244.389,128.109v0.9h-1.236v3.852c0,0.12,0.01,0.216,0.03,0.288s0.058,0.128,0.114,0.168
			c0.056,0.04,0.134,0.066,0.234,0.078s0.23,0.018,0.39,0.018h0.468v0.9h-0.78c-0.264,0-0.49-0.018-0.678-0.054
			s-0.34-0.103-0.456-0.198c-0.116-0.096-0.202-0.232-0.258-0.408c-0.056-0.176-0.084-0.408-0.084-0.696v-3.947h-1.056v-0.9h1.056
			v-1.86h1.02v1.86H244.389z"/>
		<path d="M245.583,127.281c0.124-0.352,0.302-0.657,0.534-0.918c0.232-0.26,0.516-0.462,0.852-0.605
			c0.336-0.145,0.712-0.217,1.128-0.217c0.376,0,0.718,0.055,1.026,0.162c0.308,0.108,0.574,0.265,0.798,0.469
			c0.224,0.203,0.398,0.454,0.522,0.75s0.186,0.636,0.186,1.02c0,0.248-0.03,0.47-0.09,0.666s-0.138,0.374-0.234,0.534
			c-0.096,0.16-0.206,0.308-0.33,0.444c-0.124,0.136-0.25,0.268-0.378,0.396c-0.128,0.12-0.254,0.242-0.378,0.366
			c-0.125,0.124-0.236,0.256-0.336,0.396c-0.1,0.141-0.18,0.292-0.24,0.456s-0.09,0.351-0.09,0.559v0.468h-1.02v-0.564
			c0.016-0.336,0.078-0.622,0.186-0.857c0.108-0.236,0.24-0.446,0.396-0.63c0.156-0.185,0.32-0.354,0.492-0.511
			c0.172-0.155,0.332-0.319,0.48-0.491s0.266-0.362,0.354-0.57s0.124-0.46,0.108-0.756c-0.032-0.44-0.174-0.784-0.426-1.032
			s-0.594-0.372-1.026-0.372c-0.288,0-0.536,0.052-0.744,0.156c-0.208,0.104-0.382,0.244-0.522,0.42
			c-0.14,0.176-0.242,0.384-0.306,0.624s-0.096,0.5-0.096,0.78h-1.02C245.401,128.013,245.459,127.633,245.583,127.281z
			 M248.697,132.981v1.332h-1.332v-1.332H248.697z"/>
	</g>
	<line fill="#6D6E71" x1="555.951" y1="7.507" x2="563.042" y2="7.507"/>
	<g>
		<path fill="#6D6E71" d="M594.542,8.431H18c-8.836,0-16,7.163-16,16v206.871c0,8.836,7.164,16,16,16h576.542
			c8.837,0,16-7.164,16-16V24.431C610.542,15.594,603.379,8.431,594.542,8.431"/>
		<path fill="#BCBEC0" d="M112.538,175.606c-37.666,0-68.2-30.535-68.2-68.201c0-37.667,30.534-68.201,68.2-68.201
			s68.201,30.534,68.201,68.201C180.739,145.071,150.204,175.606,112.538,175.606"/>
		<path fill="#58595B" d="M112.538,166.217c-32.481,0-58.813-26.33-58.813-58.812c0-32.482,26.332-58.813,58.813-58.813
			c32.482,0,58.813,26.331,58.813,58.813C171.351,139.887,145.02,166.217,112.538,166.217"/>
		<path fill="#BCBEC0" d="M301.787,175.606c-37.666,0-68.2-30.535-68.2-68.201c0-37.667,30.534-68.201,68.2-68.201
			c37.666,0,68.201,30.534,68.201,68.201C369.988,145.071,339.453,175.606,301.787,175.606"/>
		<path fill="#58595B" d="M301.788,166.217c-32.481,0-58.813-26.33-58.813-58.812c0-32.482,26.332-58.813,58.813-58.813
			s58.812,26.331,58.812,58.813C360.601,139.887,334.27,166.217,301.788,166.217"/>
	</g>
	<g>
		<path fill="#FFFFFF" d="M69.863,208.958c-0.805,0-1.512-0.109-2.121-0.328s-1.107-0.516-1.494-0.891s-0.703-0.842-0.949-1.4
			s-0.416-1.146-0.51-1.764s-0.141-1.309-0.141-2.074v-6.867c0-0.82,0.049-1.551,0.146-2.191s0.268-1.238,0.51-1.793
			s0.559-1.012,0.949-1.371s0.889-0.641,1.494-0.844s1.311-0.305,2.115-0.305c1.75,0,3.004,0.473,3.762,1.418
			s1.137,2.336,1.137,4.172v1.547h-2.566v-1.371c0-0.297-0.002-0.529-0.006-0.697s-0.012-0.377-0.023-0.627
			s-0.033-0.445-0.064-0.586s-0.072-0.305-0.123-0.492s-0.115-0.334-0.193-0.439s-0.176-0.219-0.293-0.34s-0.25-0.211-0.398-0.27
			s-0.324-0.107-0.527-0.146s-0.43-0.059-0.68-0.059c-0.375,0-0.703,0.041-0.984,0.123s-0.512,0.211-0.691,0.387
			s-0.326,0.369-0.439,0.58s-0.197,0.482-0.252,0.814s-0.092,0.652-0.111,0.961s-0.029,0.689-0.029,1.143v7.688
			c0,1.461,0.184,2.477,0.551,3.047s1.02,0.855,1.957,0.855c0.359,0,0.67-0.039,0.932-0.117s0.477-0.207,0.645-0.387
			s0.303-0.367,0.404-0.562s0.176-0.459,0.223-0.791s0.076-0.639,0.088-0.92s0.018-0.648,0.018-1.102v-1.43h2.566v1.441
			c0,0.742-0.047,1.406-0.141,1.992s-0.254,1.135-0.48,1.646s-0.523,0.936-0.891,1.271s-0.836,0.6-1.406,0.791
			S70.613,208.958,69.863,208.958z"/>
		<path fill="#FFFFFF" d="M82.309,208.958c-0.969,0-1.799-0.145-2.49-0.434s-1.24-0.715-1.646-1.277s-0.703-1.219-0.891-1.969
			S77,203.653,77,202.653v-7.359c0-2.023,0.412-3.557,1.236-4.6s2.182-1.564,4.072-1.564c1.883,0,3.238,0.525,4.066,1.576
			s1.242,2.58,1.242,4.588v7.371c0,2.023-0.416,3.578-1.248,4.664S84.184,208.958,82.309,208.958z M80.99,206.59
			c0.348,0.164,0.787,0.246,1.318,0.246s0.971-0.082,1.318-0.246s0.611-0.414,0.791-0.75s0.303-0.705,0.369-1.107s0.1-0.9,0.1-1.494
			v-8.508c0-0.586-0.033-1.074-0.1-1.465s-0.189-0.75-0.369-1.078s-0.443-0.568-0.791-0.721s-0.787-0.229-1.318-0.229
			s-0.971,0.076-1.318,0.229s-0.611,0.393-0.791,0.721s-0.303,0.688-0.369,1.078s-0.1,0.879-0.1,1.465v8.508
			c0,0.594,0.033,1.092,0.1,1.494s0.189,0.771,0.369,1.107S80.643,206.426,80.99,206.59z"/>
		<path fill="#FFFFFF" d="M90.242,208.747l0.363-19.43h2.648l3.434,15.762l3.457-15.762h2.648l0.363,19.43h-2.191l-0.211-14.121
			l-3.293,14.121h-1.523l-3.27-14.121l-0.211,14.121H90.242z"/>
		<path fill="#FFFFFF" d="M106.145,208.747v-19.43h4.816c1.688,0,2.91,0.455,3.668,1.365s1.137,2.244,1.137,4.002
			c0,1.578-0.408,2.809-1.225,3.691s-2.006,1.324-3.568,1.324h-2.121v9.047H106.145z M108.852,197.754h1.23
			c1.188,0,2.004-0.211,2.449-0.633s0.668-1.23,0.668-2.426c0-0.492-0.012-0.896-0.035-1.213s-0.076-0.615-0.158-0.896
			s-0.189-0.498-0.322-0.65s-0.318-0.283-0.557-0.393s-0.516-0.184-0.832-0.223s-0.709-0.059-1.178-0.059h-1.266V197.754z"/>
		<path fill="#FFFFFF" d="M117.664,208.747v-19.43h7.523v2.004h-4.816v6.422h3.914v1.934h-3.914v7.125h4.875v1.945H117.664z"/>
		<path fill="#FFFFFF" d="M129.43,208.747v-17.426h-3.551v-2.004h9.68v2.004h-3.422v17.426H129.43z"/>
		<path fill="#FFFFFF" d="M137.047,208.747v-19.43h7.523v2.004h-4.816v6.422h3.914v1.934h-3.914v7.125h4.875v1.945H137.047z"/>
	</g>
	<g>
		<path fill="#FFFFFF" d="M440.207,208.958c-0.805,0-1.512-0.109-2.121-0.328s-1.107-0.516-1.494-0.891s-0.703-0.842-0.949-1.4
			s-0.416-1.146-0.51-1.764s-0.141-1.309-0.141-2.074v-6.867c0-0.82,0.049-1.551,0.146-2.191s0.268-1.238,0.51-1.793
			s0.559-1.012,0.949-1.371s0.889-0.641,1.494-0.844s1.311-0.305,2.115-0.305c1.75,0,3.004,0.473,3.762,1.418
			s1.137,2.336,1.137,4.172v1.547h-2.566v-1.371c0-0.297-0.002-0.529-0.006-0.697s-0.012-0.377-0.023-0.627
			s-0.033-0.445-0.064-0.586s-0.072-0.305-0.123-0.492s-0.115-0.334-0.193-0.439s-0.176-0.219-0.293-0.34s-0.25-0.211-0.398-0.27
			s-0.324-0.107-0.527-0.146s-0.43-0.059-0.68-0.059c-0.375,0-0.703,0.041-0.984,0.123s-0.512,0.211-0.691,0.387
			s-0.326,0.369-0.439,0.58s-0.197,0.482-0.252,0.814s-0.092,0.652-0.111,0.961s-0.029,0.689-0.029,1.143v7.688
			c0,1.461,0.184,2.477,0.551,3.047s1.02,0.855,1.957,0.855c0.359,0,0.67-0.039,0.932-0.117s0.477-0.207,0.645-0.387
			s0.303-0.367,0.404-0.562s0.176-0.459,0.223-0.791s0.076-0.639,0.088-0.92s0.018-0.648,0.018-1.102v-1.43h2.566v1.441
			c0,0.742-0.047,1.406-0.141,1.992s-0.254,1.135-0.48,1.646s-0.523,0.936-0.891,1.271s-0.836,0.6-1.406,0.791
			S440.957,208.958,440.207,208.958z"/>
		<path fill="#FFFFFF" d="M452.652,208.958c-0.969,0-1.799-0.145-2.49-0.434s-1.24-0.715-1.646-1.277s-0.703-1.219-0.891-1.969
			s-0.281-1.625-0.281-2.625v-7.359c0-2.023,0.412-3.557,1.236-4.6s2.182-1.564,4.072-1.564c1.883,0,3.238,0.525,4.066,1.576
			s1.242,2.58,1.242,4.588v7.371c0,2.023-0.416,3.578-1.248,4.664S454.527,208.958,452.652,208.958z M451.334,206.59
			c0.348,0.164,0.787,0.246,1.318,0.246s0.971-0.082,1.318-0.246s0.611-0.414,0.791-0.75s0.303-0.705,0.369-1.107s0.1-0.9,0.1-1.494
			v-8.508c0-0.586-0.033-1.074-0.1-1.465s-0.189-0.75-0.369-1.078s-0.443-0.568-0.791-0.721s-0.787-0.229-1.318-0.229
			s-0.971,0.076-1.318,0.229s-0.611,0.393-0.791,0.721s-0.303,0.688-0.369,1.078s-0.1,0.879-0.1,1.465v8.508
			c0,0.594,0.033,1.092,0.1,1.494s0.189,0.771,0.369,1.107S450.986,206.426,451.334,206.59z"/>
		<path fill="#FFFFFF" d="M460.293,202.477v-1.945h5.367v1.945H460.293z"/>
		<path fill="#FFFFFF" d="M473.301,208.958c-0.969,0-1.799-0.145-2.49-0.434s-1.24-0.715-1.646-1.277s-0.703-1.219-0.891-1.969
			s-0.281-1.625-0.281-2.625v-7.359c0-2.023,0.412-3.557,1.236-4.6s2.182-1.564,4.072-1.564c1.883,0,3.238,0.525,4.066,1.576
			s1.242,2.58,1.242,4.588v7.371c0,2.023-0.416,3.578-1.248,4.664S475.176,208.958,473.301,208.958z M471.982,206.59
			c0.348,0.164,0.787,0.246,1.318,0.246s0.971-0.082,1.318-0.246s0.611-0.414,0.791-0.75s0.303-0.705,0.369-1.107s0.1-0.9,0.1-1.494
			v-8.508c0-0.586-0.033-1.074-0.1-1.465s-0.189-0.75-0.369-1.078s-0.443-0.568-0.791-0.721s-0.787-0.229-1.318-0.229
			s-0.971,0.076-1.318,0.229s-0.611,0.393-0.791,0.721s-0.303,0.688-0.369,1.078s-0.1,0.879-0.1,1.465v8.508
			c0,0.594,0.033,1.092,0.1,1.494s0.189,0.771,0.369,1.107S471.635,206.426,471.982,206.59z"/>
		<path fill="#FFFFFF" d="M481.293,208.747v-19.43h4.816c1.688,0,2.91,0.455,3.668,1.365s1.137,2.244,1.137,4.002
			c0,1.578-0.408,2.809-1.225,3.691s-2.006,1.324-3.568,1.324H484v9.047H481.293z M484,197.754h1.23
			c1.188,0,2.004-0.211,2.449-0.633s0.668-1.23,0.668-2.426c0-0.492-0.012-0.896-0.035-1.213s-0.076-0.615-0.158-0.896
			s-0.189-0.498-0.322-0.65s-0.318-0.283-0.557-0.393s-0.516-0.184-0.832-0.223s-0.709-0.059-1.178-0.059H484V197.754z"/>
		<path fill="#FFFFFF" d="M492.812,208.747v-19.43h7.523v2.004h-4.816v6.422h3.914v1.934h-3.914v7.125h4.875v1.945H492.812z"/>
		<path fill="#FFFFFF" d="M502.586,208.747v-19.43h3.902c1.969,0,3.412,0.402,4.33,1.207s1.377,2.117,1.377,3.938
			c0,2.5-0.801,4.012-2.402,4.535l2.777,9.75h-2.625l-2.555-9.117h-2.098v9.117H502.586z M505.293,197.684h1.02
			c1.18,0,2.021-0.232,2.525-0.697s0.756-1.307,0.756-2.525c0-1.18-0.217-2.008-0.65-2.484s-1.252-0.715-2.455-0.715h-1.195V197.684
			z"/>
		<path fill="#FFFFFF" d="M513.965,208.747l4.148-19.43h2.613l4.148,19.43h-2.578l-0.891-4.898h-3.949l-0.926,4.898H513.965z
			 M517.809,201.915h3.246l-1.629-8.777L517.809,201.915z"/>
		<path fill="#FFFFFF" d="M528.092,208.747v-17.426h-3.551v-2.004h9.68v2.004h-3.422v17.426H528.092z"/>
		<path fill="#FFFFFF" d="M535.709,208.747v-19.43h7.523v2.004h-4.816v6.422h3.914v1.934h-3.914v7.125h4.875v1.945H535.709z"/>
	</g>
	<g>
		<path fill="#FFFFFF" d="M112.392,165.174c-32.481,0-58.813-26.33-58.813-58.812c0,0,21.594-4.531,58.813,0
			c37.017,4.508,58.813,0,58.813,0C171.205,138.844,144.874,165.174,112.392,165.174"/>
		<path fill="#FFFFFF" d="M301.643,165.174c32.481,0,58.813-26.33,58.813-58.812c0,0-21.613-4.691-58.813,0
			c-37.067,4.674-58.813,0-58.813,0C242.83,138.844,269.161,165.174,301.643,165.174"/>
	</g>
	<g>
		<path fill="#FFFFFF" d="M252.18,208.958c-0.805,0-1.512-0.109-2.121-0.328s-1.107-0.516-1.494-0.891s-0.703-0.842-0.949-1.4
			s-0.416-1.146-0.51-1.764s-0.141-1.309-0.141-2.074v-6.867c0-0.82,0.049-1.551,0.146-2.191s0.268-1.238,0.51-1.793
			s0.559-1.012,0.949-1.371s0.889-0.641,1.494-0.844s1.311-0.305,2.115-0.305c1.75,0,3.004,0.473,3.762,1.418
			s1.137,2.336,1.137,4.172v1.547h-2.566v-1.371c0-0.297-0.002-0.529-0.006-0.697s-0.012-0.377-0.023-0.627
			s-0.033-0.445-0.064-0.586s-0.072-0.305-0.123-0.492s-0.115-0.334-0.193-0.439s-0.176-0.219-0.293-0.34s-0.25-0.211-0.398-0.27
			s-0.324-0.107-0.527-0.146s-0.43-0.059-0.68-0.059c-0.375,0-0.703,0.041-0.984,0.123s-0.512,0.211-0.691,0.387
			s-0.326,0.369-0.439,0.58s-0.197,0.482-0.252,0.814s-0.092,0.652-0.111,0.961s-0.029,0.689-0.029,1.143v7.688
			c0,1.461,0.184,2.477,0.551,3.047s1.02,0.855,1.957,0.855c0.359,0,0.67-0.039,0.932-0.117s0.477-0.207,0.645-0.387
			s0.303-0.367,0.404-0.562s0.176-0.459,0.223-0.791s0.076-0.639,0.088-0.92s0.018-0.648,0.018-1.102v-1.43h2.566v1.441
			c0,0.742-0.047,1.406-0.141,1.992s-0.254,1.135-0.48,1.646s-0.523,0.936-0.891,1.271s-0.836,0.6-1.406,0.791
			S252.93,208.958,252.18,208.958z"/>
		<path fill="#FFFFFF" d="M258.602,208.747l4.148-19.43h2.613l4.148,19.43h-2.578l-0.891-4.898h-3.949l-0.926,4.898H258.602z
			 M262.445,201.915h3.246l-1.629-8.777L262.445,201.915z"/>
		<path fill="#FFFFFF" d="M271.48,208.747v-19.43h4.816c1.688,0,2.91,0.455,3.668,1.365s1.137,2.244,1.137,4.002
			c0,1.578-0.408,2.809-1.225,3.691s-2.006,1.324-3.568,1.324h-2.121v9.047H271.48z M274.188,197.754h1.23
			c1.188,0,2.004-0.211,2.449-0.633s0.668-1.23,0.668-2.426c0-0.492-0.012-0.896-0.035-1.213s-0.076-0.615-0.158-0.896
			s-0.189-0.498-0.322-0.65s-0.318-0.283-0.557-0.393s-0.516-0.184-0.832-0.223s-0.709-0.059-1.178-0.059h-1.266V197.754z"/>
		<path fill="#FFFFFF" d="M283.129,208.747v-19.43h2.66v19.43H283.129z"/>
		<path fill="#FFFFFF" d="M290.934,208.747v-17.426h-3.551v-2.004h9.68v2.004h-3.422v17.426H290.934z"/>
		<path fill="#FFFFFF" d="M297.4,208.747l4.148-19.43h2.613l4.148,19.43h-2.578l-0.891-4.898h-3.949l-0.926,4.898H297.4z
			 M301.244,201.915h3.246l-1.629-8.777L301.244,201.915z"/>
		<path fill="#FFFFFF" d="M310.279,208.747v-19.43h2.707v17.484h4.957v1.945H310.279z"/>
		<path fill="#FFFFFF" d="M319.936,208.747v-19.43h2.66v19.43H319.936z"/>
		<path fill="#FFFFFF" d="M330.318,208.958c-1.633,0-2.877-0.504-3.732-1.512s-1.334-2.387-1.436-4.137l2.414-0.656
			c0.172,2.781,1.09,4.172,2.754,4.172c0.695,0,1.225-0.193,1.588-0.58s0.545-0.955,0.545-1.705c0-0.414-0.049-0.793-0.146-1.137
			s-0.258-0.672-0.48-0.984s-0.434-0.572-0.633-0.779s-0.482-0.482-0.85-0.826l-3.258-2.895c-0.656-0.594-1.135-1.221-1.436-1.881
			s-0.451-1.467-0.451-2.42c0-1.406,0.408-2.502,1.225-3.287s1.932-1.186,3.346-1.201c1.555-0.023,2.719,0.377,3.492,1.201
			s1.238,2.1,1.395,3.826l-2.285,0.633c-0.031-0.422-0.074-0.797-0.129-1.125s-0.145-0.658-0.27-0.99s-0.277-0.602-0.457-0.809
			s-0.418-0.371-0.715-0.492s-0.641-0.17-1.031-0.146c-1.43,0.102-2.145,0.812-2.145,2.133c0,0.57,0.098,1.047,0.293,1.43
			s0.523,0.785,0.984,1.207l3.281,2.895c0.852,0.766,1.529,1.586,2.033,2.461s0.756,1.867,0.756,2.977
			c0,1.422-0.43,2.549-1.289,3.381S331.701,208.958,330.318,208.958z"/>
		<path fill="#FFFFFF" d="M337.104,208.747v-19.43h7.523v2.004h-4.816v6.422h3.914v1.934h-3.914v7.125h4.875v1.945H337.104z"/>
	</g>
	<path fill="#BCBEC0" d="M473.131,80.689l36.646,24.844c0.586,0.396,0.586,1.26,0,1.656l-36.646,24.844
		c-0.665,0.451-1.562-0.025-1.562-0.828V81.518C471.568,80.715,472.466,80.238,473.131,80.689"/>
	<path fill="#F36E29" d="M94.631,80.689l36.646,24.844c0.587,0.396,0.587,1.26,0,1.656l-36.646,24.844
		c-0.665,0.451-1.563-0.025-1.563-0.828V81.518C93.068,80.715,93.966,80.238,94.631,80.689"/>
	<path fill="#F36E29" d="M286.818,80.689l36.647,24.844c0.586,0.396,0.586,1.26,0,1.656l-36.647,24.844
		c-0.665,0.451-1.562-0.025-1.562-0.828V81.518C285.256,80.715,286.153,80.238,286.818,80.689"/>
	<path fill="#BCBEC0" d="M495.588,174.563c-37.666,0-68.2-30.535-68.2-68.201c0-37.667,30.534-68.201,68.2-68.201
		c37.667,0,68.201,30.534,68.201,68.201C563.789,144.028,533.255,174.563,495.588,174.563"/>
	<path fill="#58595B" d="M495.588,165.174c-32.481,0-58.813-26.33-58.813-58.812c0-32.482,26.332-58.813,58.813-58.813
		S554.4,73.88,554.4,106.362C554.4,138.844,528.069,165.174,495.588,165.174"/>
	<path fill="#FFFFFF" d="M495.588,165.174c-32.481,0-58.813-26.33-58.813-58.812c0,0,21.609-4.66,58.813,0
		c37.321,4.674,58.813,0,58.813,0C554.401,138.844,528.07,165.174,495.588,165.174"/>
	<path fill="#FFFFFF" d="M466.421,121.536l3.536,0.248c0,0-0.053-0.434-0.896-1.033l0.66-9.426l0.28,0.018
		c0.506,0.033,0.943-0.348,0.979-0.854l0.584-8.35c0.047-0.658-0.451-1.232-1.11-1.277l-1.7-0.119c0,0,0.624-2.004,0.598-2.809
		c-0.018-0.521-0.648-1.238-1.44-1.293c-0.931-0.065-1.517,0.566-1.606,1.081c-0.14,0.793,0.198,2.863,0.198,2.863l-1.698-0.119
		c-0.66-0.047-1.232,0.451-1.278,1.111l-0.585,8.348c-0.035,0.508,0.345,0.945,0.851,0.984l0.28,0.02l-0.66,9.428
		c-0.919,0.475-1.033,0.896-1.033,0.896l3.537,0.248L466.421,121.536z"/>
	<path fill="#FFFFFF" d="M335.545,123.532l3.536,0.248c0,0-0.053-0.434-0.897-1.033l0.66-9.426l0.281,0.018
		c0.506,0.033,0.942-0.348,0.979-0.854l0.584-8.35c0.048-0.658-0.45-1.23-1.109-1.277l-1.7-0.119c0,0,0.624-2.004,0.597-2.809
		c-0.017-0.521-0.647-1.238-1.439-1.293c-0.932-0.066-1.518,0.566-1.607,1.08c-0.139,0.793,0.199,2.863,0.199,2.863l-1.699-0.117
		c-0.66-0.049-1.231,0.449-1.278,1.109l-0.585,8.35c-0.034,0.506,0.346,0.943,0.852,0.982l0.28,0.02l-0.66,9.428
		c-0.919,0.475-1.033,0.896-1.033,0.896l3.537,0.248L335.545,123.532z"/>
	<path fill="#FFFFFF" d="M65.14,122.864l3.529-0.334c0,0-0.124-0.42-1.054-0.871l-0.891-9.408l0.279-0.027
		c0.505-0.051,0.874-0.498,0.827-1.004l-0.79-8.332c-0.062-0.658-0.646-1.141-1.305-1.078l-1.696,0.16c0,0,0.288-2.078,0.129-2.869
		c-0.102-0.51-0.841-1.115-1.632-1.039c-0.929,0.088-1.404,0.807-1.409,1.328c-0.007,0.805,0.666,2.793,0.666,2.793l-1.696,0.16
		c-0.658,0.062-1.141,0.646-1.079,1.305l0.789,8.332c0.048,0.506,0.495,0.877,1,0.83l0.28-0.025l0.891,9.408
		c-0.829,0.619-0.872,1.055-0.872,1.055l3.53-0.334L65.14,122.864z"/>
	<path fill="#FFFFFF" d="M85.311,122.934l3.538,0.227c0,0-0.056-0.434-0.904-1.027l0.604-9.432l0.28,0.018
		c0.506,0.031,0.942-0.354,0.974-0.859l0.535-8.352c0.042-0.66-0.459-1.23-1.119-1.273l-1.7-0.107c0,0,0.612-2.008,0.58-2.812
		c-0.021-0.52-0.656-1.232-1.448-1.285c-0.931-0.059-1.514,0.576-1.6,1.09c-0.135,0.795,0.216,2.863,0.216,2.863l-1.7-0.107
		c-0.66-0.043-1.229,0.457-1.271,1.117l-0.535,8.352c-0.032,0.506,0.351,0.943,0.857,0.979l0.28,0.02l-0.603,9.43
		c-0.916,0.48-1.027,0.904-1.027,0.904l3.538,0.227L85.311,122.934z"/>
	<path fill="#FFFFFF" d="M77.268,111.165c0.507,0.023,0.936-0.367,0.961-0.875l0.412-8.359c0.033-0.66-0.476-1.221-1.137-1.254
		l-1.702-0.084c0,0,0.583-2.016,0.539-2.82c-0.028-0.519-0.674-1.224-1.467-1.263c-0.931-0.046-1.505,0.599-1.584,1.113
		c-0.122,0.796,0.259,2.859,0.259,2.859l-0.495-0.023c-0.147-0.008-0.287,0.014-0.419,0.055l0.299-6.079
		c0.024-0.48-0.327-0.889-0.795-0.954l-0.076-0.003c-0.473,0.019-0.862,0.391-0.885,0.87l-0.412,8.359
		c-0.045,0.908,0.178,1.188,0.783,1.236l0,0c0.013,0.002,0.024,0.002,0.036,0.002c0.012,0.002,0.024,0.002,0.036,0.004v-0.002
		c0.021,0,0.04,0,0.06-0.002l-0.349,6.93l-0.465,9.438c-0.909,0.494-1.014,0.92-1.014,0.92l3.541,0.176l0.506,0.023l3.541,0.174
		c0,0-0.063-0.434-0.919-1.014l0.465-9.439L77.268,111.165z"/>
	<path fill="#FFFFFF" d="M342.069,111.211c-0.503-0.062-0.861-0.52-0.801-1.023l1-8.311c0.077-0.656,0.675-1.125,1.331-1.045
		l1.691,0.203c0,0-0.234-2.086-0.057-2.871c0.115-0.507,0.87-1.093,1.658-0.999c0.926,0.112,1.383,0.842,1.375,1.364
		c-0.015,0.805-0.736,2.775-0.736,2.775l0.492,0.059c0.145,0.018,0.28,0.062,0.403,0.125l0.728-6.042
		c0.057-0.478,0.471-0.821,0.944-0.807l0.074,0.01c0.463,0.097,0.784,0.528,0.728,1.007l-1,8.309
		c-0.108,0.902-0.375,1.141-0.98,1.086v0.002c-0.012-0.002-0.022-0.004-0.035-0.006c-0.013,0-0.023-0.002-0.035-0.002v-0.002
		c-0.021-0.004-0.039-0.008-0.06-0.012l-0.821,6.891l-1.128,9.381c0.813,0.641,0.846,1.076,0.846,1.076l-3.521-0.422l-0.503-0.061
		l-3.519-0.424c0,0,0.134-0.418,1.075-0.846l1.129-9.381L342.069,111.211z"/>
	<path fill="#FFFFFF" d="M144.406,116.493c-0.5,0.084-0.974-0.254-1.059-0.754l-1.403-8.25c-0.111-0.652,0.327-1.271,0.979-1.381
		l1.68-0.285c0,0-0.818-1.934-0.87-2.738c-0.034-0.518,0.523-1.295,1.306-1.428c0.919-0.156,1.565,0.414,1.705,0.916
		c0.216,0.777,0.083,2.871,0.083,2.871l0.489-0.084c0.144-0.023,0.287-0.021,0.423,0.006l-1.021-6
		c-0.081-0.475,0.219-0.922,0.676-1.041l0.075-0.014c0.471-0.039,0.902,0.285,0.983,0.76l1.403,8.25
		c0.153,0.895-0.035,1.199-0.631,1.32l0.001,0.002c-0.013,0.002-0.024,0.002-0.036,0.004c-0.012,0.002-0.023,0.006-0.035,0.008
		l-0.001-0.002c-0.02,0.002-0.039,0.004-0.059,0.006l1.171,6.838l1.585,9.318c0.961,0.381,1.116,0.791,1.116,0.791l-3.495,0.594
		l-0.499,0.086l-3.495,0.594c0,0,0.01-0.438,0.791-1.115l-1.585-9.316L144.406,116.493z"/>
	<path fill="#FFFFFF" d="M521.629,112.985c0.505-0.049,0.875-0.496,0.828-1.002l-0.775-8.332c-0.061-0.658-0.644-1.143-1.303-1.082
		l-1.696,0.158c0,0,0.291-2.078,0.135-2.869c-0.102-0.512-0.841-1.115-1.632-1.043c-0.928,0.088-1.404,0.805-1.409,1.326
		c-0.01,0.805,0.659,2.795,0.659,2.795l-0.493,0.045c-0.146,0.014-0.282,0.055-0.407,0.113l-0.563-6.059
		c-0.044-0.479-0.449-0.834-0.922-0.831l-0.076,0.007c-0.465,0.084-0.797,0.508-0.753,0.987l0.775,8.333
		c0.084,0.904,0.344,1.148,0.95,1.111v0.002c0.013,0,0.023-0.002,0.035-0.004c0.013,0,0.024-0.002,0.036-0.004v-0.002
		c0.021-0.002,0.039-0.006,0.06-0.008l0.635,6.908l0.874,9.41c-0.83,0.617-0.873,1.053-0.873,1.053l3.53-0.328l0.504-0.047
		l3.529-0.328c0,0-0.123-0.42-1.053-0.873l-0.875-9.41L521.629,112.985z"/>
	<path fill="#FFFFFF" d="M535.663,112.985c-0.505-0.049-0.875-0.496-0.827-1.002l0.774-8.332c0.062-0.658,0.645-1.143,1.303-1.082
		l1.696,0.158c0,0-0.291-2.078-0.134-2.869c0.101-0.512,0.84-1.115,1.631-1.043c0.928,0.088,1.405,0.805,1.41,1.326
		c0.009,0.805-0.66,2.795-0.66,2.795l0.493,0.045c0.146,0.014,0.283,0.055,0.407,0.113l0.563-6.059
		c0.044-0.479,0.449-0.834,0.922-0.831l0.076,0.007c0.465,0.084,0.797,0.508,0.753,0.987l-0.774,8.333
		c-0.084,0.904-0.345,1.148-0.95,1.111v0.002c-0.013,0-0.024-0.002-0.036-0.004c-0.012,0-0.024-0.002-0.036-0.004v-0.002
		c-0.02-0.002-0.039-0.006-0.059-0.008l-0.635,6.908l-0.875,9.41c0.83,0.617,0.873,1.053,0.873,1.053l-3.529-0.328l-0.504-0.047
		l-3.53-0.328c0,0,0.124-0.42,1.053-0.873l0.875-9.41L535.663,112.985z"/>
	<path fill="#FFFFFF" d="M453.345,104.526c0.012,0,0.022-0.002,0.035-0.004v-0.002c0.6-0.096,0.8-0.393,0.684-1.293l-1.073-8.3
		c-0.061-0.477-0.479-0.816-0.951-0.798l-0.074,0.01c-0.463,0.102-0.779,0.536-0.719,1.014l0.78,6.04
		c-0.136-0.033-0.281-0.045-0.428-0.025l-0.486,0.062c0,0,0.217-2.088,0.032-2.869c-0.12-0.508-0.88-1.087-1.667-0.985
		c-0.925,0.119-1.376,0.854-1.363,1.375c0.021,0.805,0.761,2.768,0.761,2.768l-0.491,0.064c-0.146,0.02-0.28,0.064-0.403,0.129
		l-0.78-6.037c-0.062-0.477-0.479-0.816-0.951-0.798l-0.074,0.01c-0.463,0.102-0.78,0.536-0.719,1.014l1.073,8.299
		c0.116,0.902,0.385,1.137,0.989,1.078v0.002c0.013-0.002,0.023-0.004,0.036-0.006c0.012-0.002,0.022-0.002,0.036-0.004
		l-0.001-0.002c0.021-0.004,0.04-0.008,0.059-0.012l0.882,6.883l1.211,9.371c-0.808,0.646-0.836,1.084-0.836,1.084l3.516-0.453
		l0.504-0.064l3.515-0.455c0,0-0.138-0.416-1.083-0.836l-1.211-9.371l-0.901-6.881c0.021,0,0.042-0.002,0.064-0.004v0.002
		C453.321,104.53,453.332,104.528,453.345,104.526"/>
	<path fill="#FFFFFF" d="M267.498,109.979c0.012-0.002,0.023-0.002,0.036-0.002v-0.002c0.602-0.074,0.814-0.363,0.731-1.268
		l-0.757-8.336c-0.044-0.479-0.448-0.834-0.921-0.832l-0.075,0.006c-0.466,0.084-0.799,0.508-0.756,0.986l0.552,6.064
		c-0.136-0.037-0.28-0.055-0.428-0.039l-0.487,0.043c0,0,0.295-2.078,0.139-2.867c-0.1-0.512-0.837-1.119-1.628-1.047
		c-0.929,0.084-1.407,0.803-1.413,1.322c-0.011,0.807,0.654,2.797,0.654,2.797l-0.493,0.045c-0.146,0.012-0.283,0.053-0.408,0.111
		l-0.551-6.061c-0.043-0.479-0.448-0.834-0.92-0.832l-0.076,0.006c-0.465,0.084-0.799,0.506-0.755,0.986l0.758,8.334
		c0.082,0.906,0.342,1.15,0.948,1.115v0.002c0.012-0.002,0.024-0.004,0.036-0.004c0.012-0.002,0.023-0.004,0.036-0.004l-0.001-0.002
		c0.021-0.002,0.04-0.006,0.059-0.01l0.621,6.912l0.856,9.41c-0.831,0.615-0.876,1.051-0.876,1.051l3.531-0.32l0.504-0.047
		l3.531-0.32c0,0-0.123-0.42-1.052-0.875l-0.855-9.412l-0.64-6.908c0.021,0,0.042,0,0.064-0.002v0.002
		C267.475,109.981,267.486,109.979,267.498,109.979"/>
	<path fill="#FFFFFF" d="M530.783,106.784c0.012,0,0.022,0.002,0.036,0.002v-0.002c0.606,0.01,0.854-0.248,0.896-1.156l0.384-8.359
		c0.022-0.481-0.33-0.889-0.799-0.951l-0.075-0.003c-0.473,0.019-0.859,0.393-0.883,0.873l-0.279,6.083
		c-0.129-0.057-0.269-0.092-0.418-0.098l-0.488-0.021c0,0,0.574-2.02,0.528-2.824c-0.029-0.518-0.678-1.221-1.471-1.258
		c-0.932-0.041-1.503,0.604-1.58,1.119c-0.12,0.797,0.269,2.857,0.269,2.857l-0.495-0.021c-0.146-0.006-0.287,0.014-0.419,0.057
		L526.268,97c0.022-0.479-0.33-0.888-0.799-0.95l-0.075-0.004c-0.473,0.021-0.86,0.394-0.883,0.874l-0.384,8.36
		c-0.041,0.908,0.183,1.186,0.788,1.232v0.004c0.012,0,0.023,0,0.036,0c0.012,0,0.022,0.002,0.036,0.002v-0.002
		c0.021,0,0.039,0,0.06,0l-0.326,6.93l-0.433,9.439c-0.908,0.496-1.012,0.924-1.012,0.924l3.541,0.16l0.507,0.025l3.541,0.162
		c0,0-0.064-0.434-0.923-1.012l0.435-9.439l0.306-6.932c0.021,0.002,0.042,0.006,0.064,0.006v0.002
		C530.76,106.784,530.771,106.784,530.783,106.784"/>
	<path fill="#F36E29" d="M480.765,80.689l36.646,24.844c0.586,0.396,0.586,1.26,0,1.656l-36.646,24.844
		c-0.665,0.451-1.563-0.025-1.563-0.828V81.518C479.201,80.715,480.1,80.238,480.765,80.689"/>
	<g>
	</g>
	<g>
	</g>
	<g>
	</g>
	<g>
	</g>
	<g>
	</g>
	<g>
	</g>
</g>
</svg>
