<?xml version="1.0" encoding="utf-8"?>
<!-- Generator: Adobe Illustrator 16.0.0, SVG Export Plug-In . SVG Version: 6.00 Build 0)  -->
<!DOCTYPE svg PUBLIC "-//W3C//DTD SVG 1.1//EN" "http://www.w3.org/Graphics/SVG/1.1/DTD/svg11.dtd">
<svg version="1.1" xmlns="http://www.w3.org/2000/svg" xmlns:xlink="http://www.w3.org/1999/xlink" x="0px" y="0px"
	 width="612.101px" height="299.163px" viewBox="0 0 612.101 299.163" enable-background="new 0 0 612.101 299.163"
	 xml:space="preserve">
<g id="Layer_2">
	<rect width="612.101" height="299.163"/>
</g>
<g id="Layer_1">
	<text transform="matrix(1 0 0 1 560.6064 37.5737)" fill="#F36E29" font-family="'Oswald-Regular'" font-size="100"> </text>
	<text transform="matrix(1 0 0 1 104.7598 134.3135)" font-family="'HelveticaNeue'" font-size="12">what is the work you want? </text>
	<line fill="#6D6E71" x1="555.951" y1="7.507" x2="563.042" y2="7.507"/>
	<g>
		<path fill="#6D6E71" d="M594.542,8.431H18c-8.836,0-16,7.163-16,16v206.871c0,8.836,7.164,16,16,16h576.542
			c8.837,0,16-7.164,16-16V24.431C610.542,15.594,603.379,8.431,594.542,8.431"/>
		<path fill="#BCBEC0" d="M112.538,175.606c-37.666,0-68.2-30.535-68.2-68.201c0-37.667,30.534-68.201,68.2-68.201
			s68.201,30.534,68.201,68.201C180.739,145.071,150.204,175.606,112.538,175.606"/>
		<path fill="#58595B" d="M112.538,166.217c-32.481,0-58.813-26.33-58.813-58.812c0-32.482,26.332-58.813,58.813-58.813
			c32.482,0,58.813,26.331,58.813,58.813C171.351,139.887,145.02,166.217,112.538,166.217"/>
		<path fill="#BCBEC0" d="M301.787,175.606c-37.666,0-68.2-30.535-68.2-68.201c0-37.667,30.534-68.201,68.2-68.201
			c37.666,0,68.201,30.534,68.201,68.201C369.988,145.071,339.453,175.606,301.787,175.606"/>
		<path fill="#58595B" d="M301.788,166.217c-32.481,0-58.813-26.33-58.813-58.812c0-32.482,26.332-58.813,58.813-58.813
			s58.812,26.331,58.812,58.813C360.601,139.887,334.27,166.217,301.788,166.217"/>
	</g>
	<text transform="matrix(1 0 0 1 63.4883 208.7471)" fill="#FFFFFF" font-family="'Oswald-Regular'" font-size="24">COMPETE</text>
	<text transform="matrix(1 0 0 1 433.832 208.7471)"><tspan x="0" y="0" fill="#FFFFFF" font-family="'Oswald-Regular'" font-size="24">CO-OPER</tspan><tspan x="79.688" y="0" fill="#FFFFFF" font-family="'Oswald-Regular'" font-size="24">A</tspan><tspan x="90.744" y="0" fill="#FFFFFF" font-family="'Oswald-Regular'" font-size="24">TE</tspan></text>
	<g>
		<path fill="#FFFFFF" d="M112.392,165.174c-32.481,0-58.813-26.33-58.813-58.812c0,0,21.594-4.531,58.813,0
			c37.017,4.508,58.813,0,58.813,0C171.205,138.844,144.874,165.174,112.392,165.174"/>
		<path fill="#FFFFFF" d="M301.643,165.174c32.481,0,58.813-26.33,58.813-58.812c0,0-21.613-4.691-58.813,0
			c-37.067,4.674-58.813,0-58.813,0C242.83,138.844,269.161,165.174,301.643,165.174"/>
	</g>
	<text transform="matrix(1 0 0 1 245.8047 208.7471)"><tspan x="0" y="0" fill="#FFFFFF" font-family="'Oswald-Regular'" font-size="24">CAPI</tspan><tspan x="41.613" y="0" fill="#FFFFFF" font-family="'Oswald-Regular'" font-size="24">T</tspan><tspan x="51.15" y="0" fill="#FFFFFF" font-family="'Oswald-Regular'" font-size="24">ALISE</tspan></text>
	<path fill="#BCBEC0" d="M473.131,80.689l36.646,24.844c0.586,0.396,0.586,1.26,0,1.656l-36.646,24.844
		c-0.665,0.451-1.562-0.025-1.562-0.828V81.518C471.568,80.715,472.466,80.238,473.131,80.689"/>
	<path fill="#F36E29" d="M94.631,80.689l36.646,24.844c0.587,0.396,0.587,1.26,0,1.656l-36.646,24.844
		c-0.665,0.451-1.563-0.025-1.563-0.828V81.518C93.068,80.715,93.966,80.238,94.631,80.689"/>
	<path fill="#F36E29" d="M286.818,80.689l36.647,24.844c0.586,0.396,0.586,1.26,0,1.656l-36.647,24.844
		c-0.665,0.451-1.562-0.025-1.562-0.828V81.518C285.256,80.715,286.153,80.238,286.818,80.689"/>
	<path fill="#BCBEC0" d="M495.588,174.563c-37.666,0-68.2-30.535-68.2-68.201c0-37.667,30.534-68.201,68.2-68.201
		c37.667,0,68.201,30.534,68.201,68.201C563.789,144.028,533.255,174.563,495.588,174.563"/>
	<path fill="#58595B" d="M495.588,165.174c-32.481,0-58.813-26.33-58.813-58.812c0-32.482,26.332-58.813,58.813-58.813
		S554.4,73.88,554.4,106.362C554.4,138.844,528.069,165.174,495.588,165.174"/>
	<path fill="#FFFFFF" d="M495.588,165.174c-32.481,0-58.813-26.33-58.813-58.812c0,0,21.609-4.66,58.813,0
		c37.321,4.674,58.813,0,58.813,0C554.401,138.844,528.07,165.174,495.588,165.174"/>
	<path fill="#FFFFFF" d="M466.421,121.536l3.536,0.248c0,0-0.053-0.434-0.896-1.033l0.66-9.426l0.28,0.018
		c0.506,0.033,0.943-0.348,0.979-0.854l0.584-8.35c0.047-0.658-0.451-1.232-1.11-1.277l-1.7-0.119c0,0,0.624-2.004,0.598-2.809
		c-0.018-0.521-0.648-1.238-1.44-1.293c-0.931-0.065-1.517,0.566-1.606,1.081c-0.14,0.793,0.198,2.863,0.198,2.863l-1.698-0.119
		c-0.66-0.047-1.232,0.451-1.278,1.111l-0.585,8.348c-0.035,0.508,0.345,0.945,0.851,0.984l0.28,0.02l-0.66,9.428
		c-0.919,0.475-1.033,0.896-1.033,0.896l3.537,0.248L466.421,121.536z"/>
	<path fill="#FFFFFF" d="M335.545,123.532l3.536,0.248c0,0-0.053-0.434-0.897-1.033l0.66-9.426l0.281,0.018
		c0.506,0.033,0.942-0.348,0.979-0.854l0.584-8.35c0.048-0.658-0.45-1.23-1.109-1.277l-1.7-0.119c0,0,0.624-2.004,0.597-2.809
		c-0.017-0.521-0.647-1.238-1.439-1.293c-0.932-0.066-1.518,0.566-1.607,1.08c-0.139,0.793,0.199,2.863,0.199,2.863l-1.699-0.117
		c-0.66-0.049-1.231,0.449-1.278,1.109l-0.585,8.35c-0.034,0.506,0.346,0.943,0.852,0.982l0.28,0.02l-0.66,9.428
		c-0.919,0.475-1.033,0.896-1.033,0.896l3.537,0.248L335.545,123.532z"/>
	<path fill="#FFFFFF" d="M65.14,122.864l3.529-0.334c0,0-0.124-0.42-1.054-0.871l-0.891-9.408l0.279-0.027
		c0.505-0.051,0.874-0.498,0.827-1.004l-0.79-8.332c-0.062-0.658-0.646-1.141-1.305-1.078l-1.696,0.16c0,0,0.288-2.078,0.129-2.869
		c-0.102-0.51-0.841-1.115-1.632-1.039c-0.929,0.088-1.404,0.807-1.409,1.328c-0.007,0.805,0.666,2.793,0.666,2.793l-1.696,0.16
		c-0.658,0.062-1.141,0.646-1.079,1.305l0.789,8.332c0.048,0.506,0.495,0.877,1,0.83l0.28-0.025l0.891,9.408
		c-0.829,0.619-0.872,1.055-0.872,1.055l3.53-0.334L65.14,122.864z"/>
	<path fill="#FFFFFF" d="M85.311,122.934l3.538,0.227c0,0-0.056-0.434-0.904-1.027l0.604-9.432l0.28,0.018
		c0.506,0.031,0.942-0.354,0.974-0.859l0.535-8.352c0.042-0.66-0.459-1.23-1.119-1.273l-1.7-0.107c0,0,0.612-2.008,0.58-2.812
		c-0.021-0.52-0.656-1.232-1.448-1.285c-0.931-0.059-1.514,0.576-1.6,1.09c-0.135,0.795,0.216,2.863,0.216,2.863l-1.7-0.107
		c-0.66-0.043-1.229,0.457-1.271,1.117l-0.535,8.352c-0.032,0.506,0.351,0.943,0.857,0.979l0.28,0.02l-0.603,9.43
		c-0.916,0.48-1.027,0.904-1.027,0.904l3.538,0.227L85.311,122.934z"/>
	<path fill="#FFFFFF" d="M77.268,111.165c0.507,0.023,0.936-0.367,0.961-0.875l0.412-8.359c0.033-0.66-0.476-1.221-1.137-1.254
		l-1.702-0.084c0,0,0.583-2.016,0.539-2.82c-0.028-0.519-0.674-1.224-1.467-1.263c-0.931-0.046-1.505,0.599-1.584,1.113
		c-0.122,0.796,0.259,2.859,0.259,2.859l-0.495-0.023c-0.147-0.008-0.287,0.014-0.419,0.055l0.299-6.079
		c0.024-0.48-0.327-0.889-0.795-0.954l-0.076-0.003c-0.473,0.019-0.862,0.391-0.885,0.87l-0.412,8.359
		c-0.045,0.908,0.178,1.188,0.783,1.236l0,0c0.013,0.002,0.024,0.002,0.036,0.002c0.012,0.002,0.024,0.002,0.036,0.004v-0.002
		c0.021,0,0.04,0,0.06-0.002l-0.349,6.93l-0.465,9.438c-0.909,0.494-1.014,0.92-1.014,0.92l3.541,0.176l0.506,0.023l3.541,0.174
		c0,0-0.063-0.434-0.919-1.014l0.465-9.439L77.268,111.165z"/>
	<path fill="#FFFFFF" d="M342.069,111.211c-0.503-0.062-0.861-0.52-0.801-1.023l1-8.311c0.077-0.656,0.675-1.125,1.331-1.045
		l1.691,0.203c0,0-0.234-2.086-0.057-2.871c0.115-0.507,0.87-1.093,1.658-0.999c0.926,0.112,1.383,0.842,1.375,1.364
		c-0.015,0.805-0.736,2.775-0.736,2.775l0.492,0.059c0.145,0.018,0.28,0.062,0.403,0.125l0.728-6.042
		c0.057-0.478,0.471-0.821,0.944-0.807l0.074,0.01c0.463,0.097,0.784,0.528,0.728,1.007l-1,8.309
		c-0.108,0.902-0.375,1.141-0.98,1.086v0.002c-0.012-0.002-0.022-0.004-0.035-0.006c-0.013,0-0.023-0.002-0.035-0.002v-0.002
		c-0.021-0.004-0.039-0.008-0.06-0.012l-0.821,6.891l-1.128,9.381c0.813,0.641,0.846,1.076,0.846,1.076l-3.521-0.422l-0.503-0.061
		l-3.519-0.424c0,0,0.134-0.418,1.075-0.846l1.129-9.381L342.069,111.211z"/>
	<path fill="#FFFFFF" d="M144.406,116.493c-0.5,0.084-0.974-0.254-1.059-0.754l-1.403-8.25c-0.111-0.652,0.327-1.271,0.979-1.381
		l1.68-0.285c0,0-0.818-1.934-0.87-2.738c-0.034-0.518,0.523-1.295,1.306-1.428c0.919-0.156,1.565,0.414,1.705,0.916
		c0.216,0.777,0.083,2.871,0.083,2.871l0.489-0.084c0.144-0.023,0.287-0.021,0.423,0.006l-1.021-6
		c-0.081-0.475,0.219-0.922,0.676-1.041l0.075-0.014c0.471-0.039,0.902,0.285,0.983,0.76l1.403,8.25
		c0.153,0.895-0.035,1.199-0.631,1.32l0.001,0.002c-0.013,0.002-0.024,0.002-0.036,0.004c-0.012,0.002-0.023,0.006-0.035,0.008
		l-0.001-0.002c-0.02,0.002-0.039,0.004-0.059,0.006l1.171,6.838l1.585,9.318c0.961,0.381,1.116,0.791,1.116,0.791l-3.495,0.594
		l-0.499,0.086l-3.495,0.594c0,0,0.01-0.438,0.791-1.115l-1.585-9.316L144.406,116.493z"/>
	<path fill="#FFFFFF" d="M521.629,112.985c0.505-0.049,0.875-0.496,0.828-1.002l-0.775-8.332c-0.061-0.658-0.644-1.143-1.303-1.082
		l-1.696,0.158c0,0,0.291-2.078,0.135-2.869c-0.102-0.512-0.841-1.115-1.632-1.043c-0.928,0.088-1.404,0.805-1.409,1.326
		c-0.01,0.805,0.659,2.795,0.659,2.795l-0.493,0.045c-0.146,0.014-0.282,0.055-0.407,0.113l-0.563-6.059
		c-0.044-0.479-0.449-0.834-0.922-0.831l-0.076,0.007c-0.465,0.084-0.797,0.508-0.753,0.987l0.775,8.333
		c0.084,0.904,0.344,1.148,0.95,1.111v0.002c0.013,0,0.023-0.002,0.035-0.004c0.013,0,0.024-0.002,0.036-0.004v-0.002
		c0.021-0.002,0.039-0.006,0.06-0.008l0.635,6.908l0.874,9.41c-0.83,0.617-0.873,1.053-0.873,1.053l3.53-0.328l0.504-0.047
		l3.529-0.328c0,0-0.123-0.42-1.053-0.873l-0.875-9.41L521.629,112.985z"/>
	<path fill="#FFFFFF" d="M535.663,112.985c-0.505-0.049-0.875-0.496-0.827-1.002l0.774-8.332c0.062-0.658,0.645-1.143,1.303-1.082
		l1.696,0.158c0,0-0.291-2.078-0.134-2.869c0.101-0.512,0.84-1.115,1.631-1.043c0.928,0.088,1.405,0.805,1.41,1.326
		c0.009,0.805-0.66,2.795-0.66,2.795l0.493,0.045c0.146,0.014,0.283,0.055,0.407,0.113l0.563-6.059
		c0.044-0.479,0.449-0.834,0.922-0.831l0.076,0.007c0.465,0.084,0.797,0.508,0.753,0.987l-0.774,8.333
		c-0.084,0.904-0.345,1.148-0.95,1.111v0.002c-0.013,0-0.024-0.002-0.036-0.004c-0.012,0-0.024-0.002-0.036-0.004v-0.002
		c-0.02-0.002-0.039-0.006-0.059-0.008l-0.635,6.908l-0.875,9.41c0.83,0.617,0.873,1.053,0.873,1.053l-3.529-0.328l-0.504-0.047
		l-3.53-0.328c0,0,0.124-0.42,1.053-0.873l0.875-9.41L535.663,112.985z"/>
	<path fill="#FFFFFF" d="M453.345,104.526c0.012,0,0.022-0.002,0.035-0.004v-0.002c0.6-0.096,0.8-0.393,0.684-1.293l-1.073-8.3
		c-0.061-0.477-0.479-0.816-0.951-0.798l-0.074,0.01c-0.463,0.102-0.779,0.536-0.719,1.014l0.78,6.04
		c-0.136-0.033-0.281-0.045-0.428-0.025l-0.486,0.062c0,0,0.217-2.088,0.032-2.869c-0.12-0.508-0.88-1.087-1.667-0.985
		c-0.925,0.119-1.376,0.854-1.363,1.375c0.021,0.805,0.761,2.768,0.761,2.768l-0.491,0.064c-0.146,0.02-0.28,0.064-0.403,0.129
		l-0.78-6.037c-0.062-0.477-0.479-0.816-0.951-0.798l-0.074,0.01c-0.463,0.102-0.78,0.536-0.719,1.014l1.073,8.299
		c0.116,0.902,0.385,1.137,0.989,1.078v0.002c0.013-0.002,0.023-0.004,0.036-0.006c0.012-0.002,0.022-0.002,0.036-0.004
		l-0.001-0.002c0.021-0.004,0.04-0.008,0.059-0.012l0.882,6.883l1.211,9.371c-0.808,0.646-0.836,1.084-0.836,1.084l3.516-0.453
		l0.504-0.064l3.515-0.455c0,0-0.138-0.416-1.083-0.836l-1.211-9.371l-0.901-6.881c0.021,0,0.042-0.002,0.064-0.004v0.002
		C453.321,104.53,453.332,104.528,453.345,104.526"/>
	<path fill="#FFFFFF" d="M267.498,109.979c0.012-0.002,0.023-0.002,0.036-0.002v-0.002c0.602-0.074,0.814-0.363,0.731-1.268
		l-0.757-8.336c-0.044-0.479-0.448-0.834-0.921-0.832l-0.075,0.006c-0.466,0.084-0.799,0.508-0.756,0.986l0.552,6.064
		c-0.136-0.037-0.28-0.055-0.428-0.039l-0.487,0.043c0,0,0.295-2.078,0.139-2.867c-0.1-0.512-0.837-1.119-1.628-1.047
		c-0.929,0.084-1.407,0.803-1.413,1.322c-0.011,0.807,0.654,2.797,0.654,2.797l-0.493,0.045c-0.146,0.012-0.283,0.053-0.408,0.111
		l-0.551-6.061c-0.043-0.479-0.448-0.834-0.92-0.832l-0.076,0.006c-0.465,0.084-0.799,0.506-0.755,0.986l0.758,8.334
		c0.082,0.906,0.342,1.15,0.948,1.115v0.002c0.012-0.002,0.024-0.004,0.036-0.004c0.012-0.002,0.023-0.004,0.036-0.004l-0.001-0.002
		c0.021-0.002,0.04-0.006,0.059-0.01l0.621,6.912l0.856,9.41c-0.831,0.615-0.876,1.051-0.876,1.051l3.531-0.32l0.504-0.047
		l3.531-0.32c0,0-0.123-0.42-1.052-0.875l-0.855-9.412l-0.64-6.908c0.021,0,0.042,0,0.064-0.002v0.002
		C267.475,109.981,267.486,109.979,267.498,109.979"/>
	<path fill="#FFFFFF" d="M530.783,106.784c0.012,0,0.022,0.002,0.036,0.002v-0.002c0.606,0.01,0.854-0.248,0.896-1.156l0.384-8.359
		c0.022-0.481-0.33-0.889-0.799-0.951l-0.075-0.003c-0.473,0.019-0.859,0.393-0.883,0.873l-0.279,6.083
		c-0.129-0.057-0.269-0.092-0.418-0.098l-0.488-0.021c0,0,0.574-2.02,0.528-2.824c-0.029-0.518-0.678-1.221-1.471-1.258
		c-0.932-0.041-1.503,0.604-1.58,1.119c-0.12,0.797,0.269,2.857,0.269,2.857l-0.495-0.021c-0.146-0.006-0.287,0.014-0.419,0.057
		L526.268,97c0.022-0.479-0.33-0.888-0.799-0.95l-0.075-0.004c-0.473,0.021-0.86,0.394-0.883,0.874l-0.384,8.36
		c-0.041,0.908,0.183,1.186,0.788,1.232v0.004c0.012,0,0.023,0,0.036,0c0.012,0,0.022,0.002,0.036,0.002v-0.002
		c0.021,0,0.039,0,0.06,0l-0.326,6.93l-0.433,9.439c-0.908,0.496-1.012,0.924-1.012,0.924l3.541,0.16l0.507,0.025l3.541,0.162
		c0,0-0.064-0.434-0.923-1.012l0.435-9.439l0.306-6.932c0.021,0.002,0.042,0.006,0.064,0.006v0.002
		C530.76,106.784,530.771,106.784,530.783,106.784"/>
	<path fill="#F36E29" d="M480.765,80.689l36.646,24.844c0.586,0.396,0.586,1.26,0,1.656l-36.646,24.844
		c-0.665,0.451-1.563-0.025-1.563-0.828V81.518C479.201,80.715,480.1,80.238,480.765,80.689"/>
</g>
</svg>
