<?xml version="1.0" encoding="utf-8"?>
<!-- Generator: Adobe Illustrator 16.0.0, SVG Export Plug-In . SVG Version: 6.00 Build 0)  -->
<!DOCTYPE svg PUBLIC "-//W3C//DTD SVG 1.1//EN" "http://www.w3.org/Graphics/SVG/1.1/DTD/svg11.dtd">
<svg version="1.1" id="Layer_1" xmlns="http://www.w3.org/2000/svg" xmlns:xlink="http://www.w3.org/1999/xlink" x="0px" y="0px"
	 width="514.016px" height="377.172px" viewBox="0 0 514.016 377.172" enable-background="new 0 0 514.016 377.172"
	 xml:space="preserve">
<g id="Layer_2">
	<rect stroke="#000000" stroke-miterlimit="10" width="514.016" height="377.172"/>
</g>
<g id="Layer_1_1_">
	<path fill="#F36E29" d="M39.479,176.947h8.857c1.129,0,2.044,0.906,2.044,2.022v38.742c0,0.457,0.157,0.9,0.443,1.259
		l14.205,15.165c2.869,3.576,4.43,8.009,4.43,12.576v124.439c0,1.117-0.915,2.023-2.044,2.023H39.479H11.543
		c-1.129,0-2.044-0.906-2.044-2.023V246.711c0-4.567,1.561-9,4.43-12.576l14.205-15.165c0.286-0.357,0.443-0.802,0.443-1.259V178.97
		c0-1.117,0.915-2.022,2.044-2.022H39.479z"/>
	<path fill="#F36E29" d="M125.738,0h7.495c1.129,0,2.044,0.915,2.044,2.044v24.611c0,0.461,0.156,0.909,0.443,1.271l20.097,15.142
		c0.159,0.12,0.304,0.26,0.425,0.418c2.75,3.572,4.244,7.955,4.244,12.469l1,95.046c0,1.129-0.915,2.045-2.044,2.045h-40.88H90.627
		c-1.129,0-2.044-0.916-2.044-2.045l-1-95.046c0-4.514,1.494-8.897,4.244-12.469c0.122-0.158,0.266-0.298,0.425-0.418l20.098-15.142
		c0.286-0.362,0.443-0.81,0.443-1.271V2.044c0-1.129,0.915-2.044,2.044-2.044H125.738z"/>
	<polygon fill="#FFFFFF" points="160.487,61.048 87.583,61.048 88.583,131.487 160.487,131.487 	"/>
	<path fill="#F36E29" d="M317.921,373.172h23.611c1.13,0,2.044-0.914,2.044-2.043v-36.588c0-22.84,3.074-45.576,9.139-67.596
		l5.225-18.975c0.474-1.719-0.819-3.418-2.604-3.418h-37.415h-37.415c-1.783,0-3.076,1.699-2.604,3.418l7.66,27.82
		c4.448,16.149,6.703,32.824,6.703,49.574v45.764c0,1.129,0.914,2.043,2.043,2.043H317.921L317.921,373.172z"/>
	<path fill="#FFFFFF" d="M353.404,264.437l4.535-16.465c0.473-1.72-0.82-3.416-2.604-3.416h-74.83c-1.784,0-3.077,1.696-2.604,3.416
		l4.535,16.465H353.404z"/>
	<path fill="#F36E29" d="M392.68,38.451h57.233c1.129,0,2.044,0.915,2.044,2.044v110.888c0,1.129,1.085,2.044-0.044,2.044H392.68
		c-1.129,0-2.044-0.915-2.044-2.044V40.495C390.636,39.366,391.551,38.451,392.68,38.451"/>
	<path fill="#F36E29" d="M131.915,331.188c0.199,24.127,20.542,43.373,44.935,41.906c21.774-1.309,39.295-19.59,39.723-41.398
		c0.18-9.18-2.566-17.691-7.351-24.695c-0.384-0.561-1.035-0.889-1.716-0.883l-66.921,0.551c-0.681,0.006-1.325,0.342-1.7,0.912
		C134.421,314.35,131.843,322.469,131.915,331.188"/>
	<path fill="#FFFFFF" d="M132.927,321.61c-0.687,3.08-1.039,6.285-1.012,9.578c0.199,24.127,20.542,43.373,44.935,41.906
		c21.774-1.309,39.295-19.59,39.723-41.398c0.068-3.473-0.284-6.85-1.006-10.086H132.927z"/>
	<path fill="#F36E29" d="M507.171,268.784v-15.682c0-0.754-0.612-1.365-1.366-1.365h-35.604H434.6c-0.754,0-1.365,0.611-1.365,1.365
		v15.682c0,0.135-0.021,0.268-0.06,0.396c-0.482,1.621-3.631,13.133,1.947,20.977c0.143,0.203,0.231,0.439,0.249,0.688l5.213,80.271
		c0.028,0.447,0.268,0.844,0.648,1.078c2.27,1.389,11.067,0.895,28.969,0.895c17.902,0,26.701,0.494,28.971-0.895
		c0.381-0.234,0.62-0.631,0.648-1.078l5.213-80.271c0.017-0.247,0.105-0.483,0.249-0.688c5.578-7.844,2.432-19.355,1.946-20.977
		C507.191,269.051,507.171,268.918,507.171,268.784"/>
	<path fill="#FFFFFF" d="M505.033,290.845c0.017-0.248,0.105-0.484,0.249-0.687c5.578-7.846,2.432-19.357,1.946-20.979
		c-0.037-0.129-0.059-0.262-0.059-0.396v-15.682c0-0.754-0.612-1.365-1.366-1.365h-35.603H434.6c-0.754,0-1.365,0.611-1.365,1.365
		v15.682c0,0.135-0.021,0.268-0.06,0.396c-0.482,1.621-3.631,13.133,1.946,20.979c0.144,0.201,0.233,0.438,0.25,0.687H505.033z"/>
	<path fill="#F36E29" d="M280.291,56.794V25.212c0-1.129-0.915-2.044-2.045-2.044H259.34c-1.129,0-2.044,0.915-2.044,2.044v31.652
		c0,0.922-0.626,1.711-1.515,1.959c-22.396,6.247-38.3,28.057-35.298,53.046c2.668,22.207,20.645,39.989,42.875,42.447
		c29.442,3.257,54.363-19.707,54.363-48.493c0-22.486-15.213-41.408-35.904-47.065C280.922,58.514,280.291,57.722,280.291,56.794"/>
	<path fill="#FFFFFF" d="M304.998,138.68c0.1-0.11,0.197-0.221,0.297-0.331c7.279-8,11.709-18.19,12.34-29.67
		c0.004-0.075,0.014-0.149,0.018-0.224c0.043-0.871,0.07-1.747,0.07-2.632c0-9.088-1.977-17.96-7.271-25.623h-83.069
		c-5.58,9.022-8.302,19.999-6.9,31.669c0.081,0.671,0.177,1.337,0.285,2c0.036,0.219,0.081,0.435,0.119,0.652
		c0.079,0.442,0.157,0.884,0.248,1.322c0.054,0.259,0.116,0.515,0.174,0.773c0.088,0.392,0.175,0.784,0.273,1.173
		c0.068,0.273,0.144,0.542,0.217,0.814c0.1,0.369,0.2,0.738,0.308,1.103c0.082,0.277,0.17,0.551,0.257,0.826
		c0.112,0.354,0.225,0.71,0.345,1.062c0.095,0.276,0.194,0.55,0.293,0.823c0.125,0.346,0.252,0.69,0.385,1.032
		c0.106,0.273,0.215,0.545,0.326,0.815c0.138,0.337,0.279,0.673,0.425,1.006c0.117,0.268,0.235,0.535,0.357,0.8
		c0.152,0.332,0.308,0.66,0.467,0.988c0.126,0.26,0.254,0.521,0.385,0.78c0.166,0.327,0.337,0.649,0.511,0.972
		c0.135,0.252,0.269,0.504,0.408,0.754c0.182,0.324,0.371,0.646,0.561,0.967c0.141,0.24,0.28,0.479,0.425,0.716
		c0.202,0.329,0.411,0.653,0.621,0.978c0.143,0.221,0.282,0.443,0.428,0.662c0.231,0.346,0.471,0.684,0.71,1.022
		c0.135,0.19,0.266,0.384,0.403,0.573c0.307,0.42,0.624,0.834,0.943,1.244c0.078,0.101,0.152,0.203,0.23,0.303
		c0.401,0.508,0.813,1.007,1.234,1.498c0.12,0.14,0.246,0.274,0.368,0.414c0.277,0.316,0.553,0.636,0.839,0.944h0.005
		c7.765,8.414,18.435,14.116,30.324,15.432c16.393,1.812,31.377-4.51,41.444-15.432h0.013
		C304.877,138.818,304.936,138.749,304.998,138.68"/>
	<text transform="matrix(1 0 0 1 237.5781 112.856)" font-family="'Oswald-Regular'" font-size="13.58">UNITIS</text>
	<text transform="matrix(1 0 0 1 270.7129 112.856)" font-family="'Oswald-Regular'" font-size="13.58">A</text>
	<text transform="matrix(1 0 0 1 276.9551 112.856)" font-family="'Oswald-Regular'" font-size="13.58">TION</text>
	<text transform="matrix(1 0 0 1 95.6992 100.3208)" font-family="'Oswald-Regular'" font-size="13.58">FLEXIBILITY</text>
	<rect x="390.473" y="76.523" fill="#FFFFFF" width="61.483" height="34.65"/>
	<text transform="matrix(1 0 0 1 140.54 340.8472)" font-family="'Oswald-Regular'" font-size="13.58">COMPETITION</text>
	<text transform="matrix(1 0 0 1 288.3037 260.0464)" font-family="'Oswald-Regular'" font-size="13.58">INSECURITY</text>
	<text transform="matrix(1 0 0 1 405.3057 99.231)" font-family="'Oswald-Regular'" font-size="13.58">TRUST</text>
	<rect x="9.5" y="281.665" fill="#FFFFFF" width="59.958" height="63.059"/>
	<text transform="matrix(1 0 0 1 13.4316 310.4468)" font-family="'Oswald-Regular'" font-size="13.58">W</text>
	<text transform="matrix(1 0 0 1 23.2227 310.4468)" font-family="'Oswald-Regular'" font-size="13.58">ORKER’S</text>
	<text transform="matrix(1 0 0 1 24.8115 326.7417)" font-family="'Oswald-Regular'" font-size="13.58">V</text>
	<text transform="matrix(1 0 0 1 31.5654 326.7417)" font-family="'Oswald-Regular'" font-size="13.58">OICE</text>
	<text transform="matrix(1 0 0 1 440.916 277.23)" font-family="'Oswald-Regular'" font-size="13.58">SOLI</text>
	<text transform="matrix(1 0 0 1 463.4141 277.23)" font-family="'Oswald-Regular'" font-size="13.58">D</text>
	<text transform="matrix(1 0 0 1 470.4199 277.23)" font-family="'Oswald-Regular'" font-size="13.58">ARITY</text>
	<line fill="none" stroke="#6D6E71" stroke-width="8" stroke-miterlimit="10" x1="0" y1="156.958" x2="514.016" y2="156.958"/>
	<line fill="none" stroke="#6D6E71" stroke-width="8" stroke-miterlimit="10" x1="0" y1="373.172" x2="514.016" y2="373.172"/>
</g>
</svg>
