<?xml version="1.0" encoding="utf-8"?>
<!-- Generator: Adobe Illustrator 16.0.0, SVG Export Plug-In . SVG Version: 6.00 Build 0)  -->
<!DOCTYPE svg PUBLIC "-//W3C//DTD SVG 1.1//EN" "http://www.w3.org/Graphics/SVG/1.1/DTD/svg11.dtd">
<svg version="1.1" xmlns="http://www.w3.org/2000/svg" xmlns:xlink="http://www.w3.org/1999/xlink" x="0px" y="0px"
	 width="514.016px" height="377.173px" viewBox="0 0 514.016 377.173" enable-background="new 0 0 514.016 377.173"
	 xml:space="preserve">
<g id="Layer_2">
	<rect stroke="#000000" stroke-miterlimit="10" width="514.016" height="377.173"/>
</g>
<g id="Layer_1">
	<path fill="#F36E29" d="M39.479,176.947h8.857c1.129,0,2.044,0.906,2.044,2.023v38.742c0,0.457,0.157,0.9,0.443,1.258
		l14.205,15.166c2.869,3.576,4.43,8.008,4.43,12.576v124.439c0,1.117-0.915,2.023-2.044,2.023H39.479H11.543
		c-1.129,0-2.044-0.906-2.044-2.023V246.712c0-4.568,1.561-9,4.43-12.576l14.205-15.166c0.286-0.357,0.443-0.801,0.443-1.258V178.97
		c0-1.117,0.915-2.023,2.044-2.023H39.479z"/>
	<path fill="#F36E29" d="M125.738,0h7.495c1.129,0,2.044,0.915,2.044,2.044v24.611c0,0.461,0.156,0.909,0.443,1.271l20.097,15.142
		c0.159,0.12,0.304,0.26,0.425,0.418c2.75,3.572,4.244,7.955,4.244,12.469l1,95.046c0,1.129-0.915,2.045-2.044,2.045h-40.88H90.627
		c-1.129,0-2.044-0.916-2.044-2.045l-1-95.046c0-4.514,1.494-8.897,4.244-12.469c0.122-0.158,0.266-0.298,0.425-0.418l20.098-15.142
		c0.286-0.362,0.443-0.81,0.443-1.271V2.044c0-1.129,0.915-2.044,2.044-2.044H125.738z"/>
	<polygon fill="#FFFFFF" points="160.487,61.048 87.583,61.048 88.583,131.487 160.487,131.487 	"/>
	<path fill="#F36E29" d="M317.921,373.173h23.611c1.13,0,2.044-0.914,2.044-2.043v-36.588c0-22.84,3.074-45.576,9.139-67.596
		l5.225-18.975c0.473-1.719-0.82-3.418-2.604-3.418h-37.415h-37.415c-1.784,0-3.077,1.699-2.604,3.418l7.661,27.82
		c4.448,16.15,6.702,32.824,6.702,49.574v45.764c0,1.129,0.915,2.043,2.044,2.043H317.921z"/>
	<path fill="#FFFFFF" d="M353.405,264.437l4.534-16.465c0.473-1.719-0.82-3.416-2.604-3.416h-74.83
		c-1.784,0-3.077,1.697-2.604,3.416l4.534,16.465H353.405z"/>
	<path fill="#F36E29" d="M392.68,38.451h57.233c1.129,0,2.044,0.915,2.044,2.044v110.888c0,1.129,1.085,2.044-0.044,2.044H392.68
		c-1.129,0-2.044-0.915-2.044-2.044V40.495C390.636,39.366,391.551,38.451,392.68,38.451"/>
	<path fill="#F36E29" d="M131.915,331.188c0.199,24.127,20.542,43.373,44.935,41.906c21.774-1.309,39.295-19.59,39.723-41.398
		c0.18-9.18-2.566-17.691-7.351-24.695c-0.384-0.562-1.035-0.889-1.716-0.883l-66.921,0.551c-0.681,0.006-1.325,0.342-1.7,0.912
		C134.421,314.351,131.843,322.47,131.915,331.188"/>
	<path fill="#FFFFFF" d="M132.927,321.61c-0.687,3.08-1.039,6.285-1.012,9.578c0.199,24.127,20.542,43.373,44.935,41.906
		c21.774-1.309,39.295-19.59,39.723-41.398c0.068-3.473-0.284-6.85-1.006-10.086H132.927z"/>
	<path fill="#F36E29" d="M507.171,268.784v-15.682c0-0.754-0.612-1.365-1.366-1.365h-35.604H434.6c-0.754,0-1.366,0.611-1.366,1.365
		v15.682c0,0.135-0.021,0.268-0.059,0.396c-0.483,1.621-3.631,13.133,1.947,20.977c0.143,0.203,0.232,0.439,0.249,0.688
		l5.213,80.271c0.028,0.447,0.268,0.844,0.648,1.078c2.27,1.389,11.068,0.895,28.969,0.895c17.902,0,26.701,0.494,28.971-0.895
		c0.381-0.234,0.62-0.631,0.648-1.078l5.213-80.271c0.017-0.248,0.106-0.484,0.249-0.688c5.578-7.844,2.432-19.355,1.947-20.977
		C507.191,269.052,507.171,268.919,507.171,268.784"/>
	<path fill="#FFFFFF" d="M505.033,290.845c0.017-0.248,0.106-0.484,0.249-0.686c5.578-7.846,2.432-19.357,1.947-20.979
		c-0.038-0.129-0.059-0.262-0.059-0.396v-15.682c0-0.754-0.612-1.365-1.366-1.365h-35.603H434.6c-0.754,0-1.366,0.611-1.366,1.365
		v15.682c0,0.135-0.021,0.268-0.059,0.396c-0.483,1.621-3.631,13.133,1.946,20.979c0.144,0.201,0.233,0.438,0.25,0.686H505.033z"/>
	<path fill="#F36E29" d="M280.291,56.794V25.212c0-1.129-0.915-2.044-2.045-2.044H259.34c-1.129,0-2.044,0.915-2.044,2.044v31.652
		c0,0.922-0.626,1.711-1.515,1.959c-22.396,6.247-38.3,28.057-35.298,53.046c2.668,22.207,20.645,39.989,42.874,42.447
		c29.443,3.257,54.364-19.707,54.364-48.493c0-22.486-15.213-41.408-35.905-47.065C280.922,58.514,280.291,57.722,280.291,56.794"/>
	<path fill="#FFFFFF" d="M304.998,138.68c0.1-0.11,0.198-0.221,0.297-0.331c7.279-8,11.709-18.19,12.34-29.67
		c0.004-0.075,0.013-0.149,0.017-0.224c0.044-0.871,0.07-1.747,0.07-2.632c0-9.088-1.976-17.96-7.27-25.623h-83.069
		c-5.58,9.022-8.302,19.999-6.9,31.669c0.081,0.671,0.177,1.337,0.285,2c0.036,0.219,0.081,0.435,0.119,0.652
		c0.079,0.442,0.157,0.884,0.248,1.322c0.054,0.259,0.116,0.515,0.174,0.773c0.088,0.392,0.175,0.784,0.273,1.173
		c0.068,0.273,0.144,0.542,0.217,0.814c0.1,0.369,0.2,0.738,0.308,1.103c0.082,0.277,0.17,0.551,0.257,0.826
		c0.112,0.355,0.225,0.71,0.345,1.062c0.095,0.276,0.194,0.55,0.293,0.823c0.125,0.346,0.252,0.69,0.385,1.032
		c0.106,0.273,0.215,0.545,0.326,0.815c0.138,0.337,0.279,0.673,0.425,1.006c0.117,0.268,0.235,0.535,0.357,0.8
		c0.152,0.332,0.308,0.66,0.467,0.988c0.126,0.26,0.254,0.521,0.385,0.78c0.166,0.327,0.337,0.649,0.511,0.972
		c0.135,0.252,0.269,0.504,0.408,0.754c0.182,0.324,0.371,0.646,0.561,0.967c0.141,0.24,0.28,0.479,0.425,0.716
		c0.202,0.329,0.411,0.653,0.621,0.978c0.143,0.221,0.282,0.443,0.428,0.662c0.231,0.346,0.471,0.684,0.71,1.022
		c0.135,0.19,0.266,0.384,0.403,0.573c0.307,0.42,0.624,0.834,0.943,1.244c0.078,0.101,0.152,0.203,0.23,0.303
		c0.401,0.508,0.813,1.007,1.234,1.498c0.12,0.14,0.246,0.274,0.368,0.414c0.277,0.316,0.553,0.636,0.839,0.944h0.005
		c7.765,8.414,18.435,14.116,30.325,15.432c16.392,1.812,31.376-4.51,41.444-15.432h0.013
		C304.877,138.818,304.936,138.749,304.998,138.68"/>
	<g>
		<path d="M242.491,112.792c-0.345,0.122-0.751,0.182-1.22,0.182s-0.876-0.061-1.224-0.182c-0.347-0.122-0.629-0.287-0.845-0.498
			c-0.217-0.209-0.391-0.479-0.521-0.809c-0.131-0.33-0.221-0.679-0.269-1.048c-0.049-0.369-0.073-0.799-0.073-1.29v-7.288h1.459
			v7.36c0,0.314,0.009,0.586,0.026,0.815c0.018,0.23,0.058,0.461,0.119,0.693c0.062,0.232,0.145,0.418,0.249,0.56
			c0.104,0.142,0.246,0.258,0.428,0.348c0.181,0.091,0.397,0.136,0.649,0.136s0.468-0.045,0.646-0.136
			c0.179-0.09,0.32-0.208,0.425-0.352c0.104-0.144,0.187-0.33,0.248-0.56c0.062-0.23,0.102-0.46,0.119-0.69
			c0.018-0.229,0.027-0.501,0.027-0.815v-7.36h1.458v7.288c0,0.491-0.024,0.92-0.072,1.29c-0.049,0.369-0.139,0.718-0.269,1.048
			c-0.131,0.329-0.305,0.599-0.521,0.809C243.117,112.505,242.836,112.67,242.491,112.792z"/>
		<path d="M245.82,112.855v-10.994h1.041l3.123,7.301v-7.301h1.279v10.994h-0.981l-3.169-7.513v7.513H245.82z"/>
		<path d="M253.061,112.855v-10.994h1.506v10.994H253.061z"/>
		<path d="M257.478,112.855v-9.86h-2.009v-1.134h5.477v1.134h-1.937v9.86H257.478z"/>
		<path d="M261.86,112.855v-10.994h1.506v10.994H261.86z"/>
		<path d="M267.736,112.974c-0.924,0-1.628-0.285-2.112-0.855c-0.483-0.57-0.755-1.351-0.812-2.341l1.366-0.372
			c0.098,1.574,0.617,2.361,1.559,2.361c0.394,0,0.692-0.109,0.898-0.328c0.205-0.219,0.309-0.541,0.309-0.965
			c0-0.234-0.028-0.449-0.083-0.643c-0.056-0.195-0.146-0.38-0.272-0.557s-0.245-0.324-0.357-0.441
			c-0.113-0.117-0.273-0.273-0.481-0.468l-1.843-1.638c-0.371-0.336-0.643-0.69-0.812-1.064c-0.17-0.373-0.255-0.83-0.255-1.369
			c0-0.795,0.23-1.416,0.692-1.86s1.093-0.671,1.894-0.68c0.879-0.013,1.538,0.213,1.976,0.68s0.7,1.188,0.789,2.165l-1.293,0.358
			c-0.018-0.239-0.042-0.451-0.073-0.636c-0.03-0.186-0.081-0.373-0.152-0.561c-0.07-0.188-0.157-0.34-0.259-0.458
			s-0.236-0.21-0.404-0.278c-0.168-0.069-0.362-0.096-0.583-0.083c-0.81,0.058-1.214,0.46-1.214,1.207
			c0,0.323,0.056,0.593,0.166,0.809c0.11,0.217,0.296,0.444,0.557,0.683l1.856,1.638c0.482,0.434,0.866,0.897,1.15,1.393
			c0.285,0.495,0.428,1.057,0.428,1.684c0,0.805-0.243,1.442-0.729,1.913C269.153,112.739,268.519,112.974,267.736,112.974z"/>
		<path d="M270.965,112.855l2.348-10.994h1.479l2.348,10.994h-1.459l-0.504-2.771h-2.235l-0.523,2.771H270.965z M273.14,108.989
			h1.837l-0.922-4.967L273.14,108.989z"/>
		<path d="M278.945,112.855v-9.86h-2.009v-1.134h5.477v1.134h-1.937v9.86H278.945z"/>
		<path d="M283.328,112.855v-10.994h1.506v10.994H283.328z"/>
		<path d="M289.416,112.974c-0.548,0-1.018-0.082-1.409-0.245c-0.391-0.164-0.701-0.404-0.932-0.723
			c-0.229-0.318-0.397-0.69-0.504-1.114c-0.105-0.424-0.159-0.919-0.159-1.485v-4.164c0-1.145,0.233-2.012,0.7-2.603
			c0.466-0.59,1.234-0.885,2.304-0.885c1.065,0,1.832,0.297,2.301,0.892c0.469,0.594,0.703,1.46,0.703,2.596v4.171
			c0,1.145-0.235,2.025-0.706,2.639S290.477,112.974,289.416,112.974z M288.67,111.635c0.197,0.093,0.445,0.139,0.746,0.139
			s0.549-0.046,0.746-0.139c0.196-0.093,0.346-0.234,0.447-0.424c0.102-0.19,0.172-0.399,0.209-0.626
			c0.038-0.228,0.057-0.509,0.057-0.846v-4.814c0-0.332-0.019-0.607-0.057-0.829c-0.037-0.221-0.107-0.424-0.209-0.61
			c-0.102-0.186-0.251-0.321-0.447-0.408c-0.197-0.086-0.445-0.129-0.746-0.129s-0.549,0.043-0.746,0.129
			c-0.196,0.086-0.346,0.222-0.447,0.408c-0.102,0.186-0.172,0.389-0.209,0.61c-0.038,0.221-0.057,0.497-0.057,0.829v4.814
			c0,0.336,0.019,0.618,0.057,0.846c0.037,0.228,0.107,0.437,0.209,0.626C288.324,111.401,288.474,111.542,288.67,111.635z"/>
		<path d="M293.938,112.855v-10.994h1.041l3.123,7.301v-7.301h1.279v10.994H298.4l-3.169-7.513v7.513H293.938z"/>
	</g>
	<g>
		<path d="M96.561,100.321V89.327h4.244v1.101h-2.712v3.653h2.102v1.094h-2.102v5.146H96.561z"/>
		<path d="M101.866,100.321V89.327h1.532v9.894h2.805v1.101H101.866z"/>
		<path d="M107.257,100.321V89.327h4.257v1.134h-2.726v3.633h2.215v1.094h-2.215v4.032h2.759v1.101H107.257z"/>
		<path d="M112.104,100.321l2.288-5.755l-2.254-5.239h1.425l1.671,3.879l1.525-3.879h1.426l-2.314,5.365l2.427,5.629h-1.432
			l-1.784-4.138l-1.558,4.138H112.104z"/>
		<path d="M119.405,100.321V89.327h1.505v10.994H119.405z"/>
		<path d="M122.693,100.321V89.327h2.513c0.999,0,1.74,0.224,2.222,0.67c0.481,0.446,0.723,1.141,0.723,2.082
			c0,1.401-0.526,2.175-1.578,2.321c0.65,0.159,1.124,0.465,1.422,0.918s0.447,1.073,0.447,1.86c0,0.99-0.232,1.762-0.696,2.314
			c-0.464,0.553-1.173,0.829-2.128,0.829H122.693z M124.225,93.916h0.902c0.632,0,1.071-0.141,1.316-0.421
			c0.245-0.28,0.368-0.752,0.368-1.416c0-0.216-0.016-0.405-0.046-0.567c-0.031-0.161-0.071-0.299-0.12-0.415
			c-0.049-0.115-0.123-0.211-0.222-0.289c-0.1-0.077-0.2-0.139-0.302-0.186s-0.24-0.082-0.414-0.106
			c-0.175-0.024-0.343-0.04-0.504-0.046c-0.161-0.007-0.368-0.01-0.62-0.01h-0.358V93.916z M124.225,99.22h1.035
			c0.663,0,1.116-0.156,1.359-0.468c0.243-0.312,0.365-0.836,0.365-1.575c0-0.703-0.145-1.228-0.435-1.575s-0.761-0.521-1.416-0.521
			h-0.909V99.22z"/>
		<path d="M129.881,100.321V89.327h1.505v10.994H129.881z"/>
		<path d="M133.17,100.321V89.327h1.532v9.894h2.805v1.101H133.17z"/>
		<path d="M138.634,100.321V89.327h1.505v10.994H138.634z"/>
		<path d="M143.05,100.321v-9.86h-2.009v-1.134h5.477v1.134h-1.936v9.86H143.05z"/>
		<path d="M149.038,100.321v-3.879l-2.374-7.115h1.425l1.678,5.298l1.658-5.298h1.445l-2.367,7.115v3.879H149.038z"/>
	</g>
	<rect x="390.472" y="76.523" fill="#FFFFFF" width="61.484" height="34.65"/>
	<g>
		<path d="M144.147,340.966c-0.456,0-0.855-0.062-1.2-0.186c-0.345-0.125-0.627-0.293-0.846-0.504
			c-0.219-0.213-0.398-0.477-0.537-0.793s-0.235-0.648-0.289-0.998c-0.053-0.35-0.08-0.74-0.08-1.174v-3.885
			c0-0.465,0.028-0.879,0.083-1.24c0.055-0.363,0.151-0.701,0.289-1.016c0.137-0.312,0.316-0.572,0.537-0.775
			c0.221-0.203,0.503-0.361,0.845-0.477c0.343-0.115,0.742-0.172,1.197-0.172c0.99,0,1.699,0.266,2.128,0.801
			c0.429,0.535,0.643,1.322,0.643,2.361v0.875h-1.452v-0.775c0-0.168-0.001-0.299-0.003-0.395s-0.006-0.213-0.013-0.355
			c-0.007-0.141-0.019-0.252-0.037-0.332c-0.018-0.078-0.041-0.172-0.069-0.277c-0.029-0.105-0.065-0.189-0.109-0.248
			c-0.044-0.061-0.1-0.125-0.166-0.193s-0.142-0.119-0.226-0.152s-0.183-0.061-0.298-0.082c-0.115-0.023-0.243-0.033-0.384-0.033
			c-0.212,0-0.398,0.023-0.557,0.068c-0.159,0.047-0.29,0.119-0.391,0.219c-0.102,0.1-0.185,0.209-0.249,0.328
			c-0.064,0.119-0.111,0.273-0.142,0.461c-0.031,0.189-0.052,0.369-0.063,0.545c-0.011,0.174-0.017,0.389-0.017,0.646v4.35
			c0,0.826,0.104,1.4,0.312,1.725c0.208,0.322,0.577,0.482,1.107,0.482c0.203,0,0.379-0.021,0.527-0.066
			c0.148-0.043,0.27-0.117,0.365-0.219s0.171-0.207,0.229-0.318c0.057-0.109,0.099-0.26,0.126-0.447
			c0.026-0.188,0.043-0.361,0.05-0.52c0.006-0.16,0.01-0.367,0.01-0.623v-0.811h1.452v0.816c0,0.42-0.026,0.795-0.08,1.127
			s-0.144,0.643-0.272,0.932c-0.128,0.289-0.296,0.529-0.504,0.721c-0.208,0.189-0.473,0.338-0.795,0.447
			C144.945,340.911,144.572,340.966,144.147,340.966z"/>
		<path d="M151.189,340.966c-0.548,0-1.018-0.082-1.409-0.246c-0.391-0.162-0.702-0.404-0.932-0.723
			c-0.229-0.318-0.397-0.689-0.504-1.113c-0.106-0.424-0.159-0.92-0.159-1.486v-4.164c0-1.145,0.233-2.012,0.7-2.602
			s1.234-0.885,2.304-0.885c1.065,0,1.833,0.297,2.301,0.891c0.469,0.596,0.703,1.461,0.703,2.596v4.172
			c0,1.145-0.235,2.023-0.706,2.639C153.016,340.659,152.25,340.966,151.189,340.966z M150.443,339.626
			c0.197,0.094,0.445,0.139,0.746,0.139s0.549-0.045,0.746-0.139c0.197-0.092,0.346-0.234,0.448-0.424
			c0.102-0.189,0.171-0.398,0.208-0.627s0.057-0.51,0.057-0.846v-4.814c0-0.33-0.019-0.607-0.057-0.828s-0.107-0.424-0.208-0.609
			c-0.102-0.186-0.251-0.322-0.448-0.408s-0.445-0.129-0.746-0.129s-0.549,0.043-0.746,0.129s-0.346,0.223-0.447,0.408
			c-0.102,0.186-0.171,0.389-0.209,0.609s-0.056,0.498-0.056,0.828v4.814c0,0.336,0.019,0.617,0.056,0.846s0.107,0.438,0.209,0.627
			C150.097,339.392,150.246,339.534,150.443,339.626z"/>
		<path d="M155.678,340.847l0.205-10.994h1.499l1.942,8.918l1.957-8.918h1.499l0.206,10.994h-1.24l-0.119-7.99l-1.863,7.99H158.9
			l-1.85-7.99l-0.12,7.99H155.678z"/>
		<path d="M164.676,340.847v-10.994h2.726c0.955,0,1.646,0.258,2.075,0.771c0.429,0.516,0.644,1.271,0.644,2.266
			c0,0.893-0.231,1.588-0.693,2.088s-1.135,0.75-2.019,0.75h-1.2v5.119H164.676z M166.208,334.626h0.696
			c0.672,0,1.134-0.119,1.386-0.357c0.252-0.238,0.378-0.697,0.378-1.373c0-0.277-0.007-0.508-0.02-0.686
			c-0.013-0.18-0.043-0.348-0.09-0.508c-0.046-0.158-0.107-0.281-0.182-0.367c-0.075-0.088-0.18-0.16-0.315-0.223
			s-0.292-0.104-0.471-0.127c-0.179-0.021-0.401-0.033-0.667-0.033h-0.716V334.626z"/>
		<path d="M171.194,340.847v-10.994h4.257v1.133h-2.726v3.635h2.215v1.094h-2.215v4.031h2.759v1.102H171.194z"/>
		<path d="M177.852,340.847v-9.861h-2.009v-1.133h5.477v1.133h-1.936v9.861H177.852z"/>
		<path d="M182.235,340.847v-10.994h1.505v10.994H182.235z"/>
		<path d="M186.651,340.847v-9.861h-2.009v-1.133h5.477v1.133h-1.936v9.861H186.651z"/>
		<path d="M191.034,340.847v-10.994h1.505v10.994H191.034z"/>
		<path d="M197.121,340.966c-0.548,0-1.018-0.082-1.409-0.246c-0.391-0.162-0.702-0.404-0.932-0.723
			c-0.229-0.318-0.397-0.689-0.504-1.113c-0.106-0.424-0.159-0.92-0.159-1.486v-4.164c0-1.145,0.233-2.012,0.7-2.602
			s1.234-0.885,2.304-0.885c1.065,0,1.833,0.297,2.301,0.891c0.469,0.596,0.703,1.461,0.703,2.596v4.172
			c0,1.145-0.235,2.023-0.706,2.639C198.948,340.659,198.182,340.966,197.121,340.966z M196.375,339.626
			c0.197,0.094,0.445,0.139,0.746,0.139s0.549-0.045,0.746-0.139c0.197-0.092,0.346-0.234,0.448-0.424
			c0.102-0.189,0.171-0.398,0.208-0.627s0.057-0.51,0.057-0.846v-4.814c0-0.33-0.019-0.607-0.057-0.828s-0.107-0.424-0.208-0.609
			c-0.102-0.186-0.251-0.322-0.448-0.408s-0.445-0.129-0.746-0.129s-0.549,0.043-0.746,0.129s-0.346,0.223-0.447,0.408
			c-0.102,0.186-0.171,0.389-0.209,0.609s-0.056,0.498-0.056,0.828v4.814c0,0.336,0.019,0.617,0.056,0.846s0.107,0.438,0.209,0.627
			C196.029,339.392,196.178,339.534,196.375,339.626z"/>
		<path d="M201.643,340.847v-10.994h1.041l3.124,7.301v-7.301h1.28v10.994h-0.981l-3.169-7.514v7.514H201.643z"/>
	</g>
	<g>
		<path d="M289.238,260.046v-10.994h1.506v10.994H289.238z"/>
		<path d="M292.528,260.046v-10.994h1.041l3.123,7.301v-7.301h1.279v10.994h-0.981l-3.169-7.514v7.514H292.528z"/>
		<path d="M302.282,260.165c-0.924,0-1.628-0.285-2.112-0.855c-0.483-0.57-0.755-1.352-0.812-2.342l1.366-0.371
			c0.098,1.574,0.617,2.361,1.559,2.361c0.394,0,0.692-0.109,0.898-0.328c0.205-0.219,0.309-0.541,0.309-0.965
			c0-0.234-0.028-0.449-0.083-0.643c-0.056-0.195-0.146-0.381-0.272-0.559c-0.126-0.176-0.245-0.322-0.357-0.439
			c-0.113-0.117-0.273-0.273-0.481-0.469l-1.843-1.637c-0.371-0.336-0.643-0.691-0.812-1.064s-0.255-0.83-0.255-1.369
			c0-0.797,0.23-1.416,0.692-1.859c0.462-0.445,1.093-0.672,1.894-0.68c0.879-0.014,1.538,0.213,1.976,0.68
			c0.438,0.465,0.7,1.188,0.789,2.164l-1.293,0.357c-0.018-0.238-0.042-0.451-0.073-0.637c-0.03-0.186-0.081-0.371-0.152-0.559
			c-0.07-0.189-0.157-0.342-0.259-0.459s-0.236-0.209-0.404-0.277s-0.362-0.098-0.583-0.084c-0.81,0.059-1.214,0.461-1.214,1.207
			c0,0.322,0.056,0.592,0.166,0.809s0.296,0.445,0.557,0.684l1.856,1.639c0.482,0.432,0.866,0.896,1.15,1.393
			c0.285,0.494,0.428,1.055,0.428,1.684c0,0.805-0.243,1.441-0.729,1.912C303.699,259.929,303.064,260.165,302.282,260.165z"/>
		<path d="M306.122,260.046v-10.994h4.257v1.133h-2.726v3.635h2.215v1.094h-2.215v4.031h2.759v1.102H306.122z"/>
		<path d="M314.397,260.165c-0.456,0-0.855-0.062-1.2-0.186c-0.345-0.125-0.627-0.293-0.846-0.504
			c-0.219-0.213-0.397-0.477-0.537-0.793s-0.235-0.648-0.288-0.998c-0.054-0.35-0.08-0.74-0.08-1.174v-3.885
			c0-0.465,0.027-0.879,0.083-1.24c0.056-0.363,0.151-0.701,0.288-1.016c0.138-0.312,0.316-0.572,0.537-0.775
			c0.222-0.203,0.503-0.361,0.846-0.477s0.741-0.172,1.197-0.172c0.99,0,1.699,0.266,2.128,0.801s0.644,1.322,0.644,2.361v0.875
			h-1.452v-0.775c0-0.168-0.001-0.299-0.003-0.395c-0.003-0.096-0.007-0.213-0.014-0.355c-0.007-0.141-0.019-0.252-0.036-0.332
			c-0.018-0.078-0.041-0.172-0.07-0.277c-0.028-0.105-0.064-0.189-0.109-0.248c-0.044-0.061-0.1-0.125-0.165-0.193
			c-0.066-0.068-0.142-0.119-0.226-0.152s-0.184-0.061-0.299-0.082c-0.115-0.023-0.243-0.033-0.385-0.033
			c-0.212,0-0.397,0.023-0.557,0.068c-0.159,0.047-0.29,0.119-0.392,0.219s-0.185,0.209-0.248,0.328
			c-0.064,0.119-0.112,0.273-0.143,0.461c-0.031,0.189-0.052,0.369-0.063,0.545c-0.011,0.174-0.017,0.389-0.017,0.646v4.35
			c0,0.826,0.104,1.4,0.312,1.725c0.208,0.322,0.577,0.482,1.107,0.482c0.203,0,0.379-0.021,0.527-0.066
			c0.148-0.043,0.27-0.117,0.365-0.219c0.095-0.102,0.171-0.207,0.229-0.318c0.058-0.109,0.1-0.26,0.126-0.447
			s0.043-0.361,0.05-0.52c0.007-0.16,0.01-0.367,0.01-0.623v-0.811h1.452v0.816c0,0.42-0.026,0.795-0.08,1.127
			c-0.053,0.332-0.144,0.643-0.271,0.932s-0.296,0.529-0.504,0.721c-0.208,0.189-0.473,0.338-0.796,0.447
			C315.195,260.11,314.821,260.165,314.397,260.165z"/>
		<path d="M322.692,259.981c-0.345,0.123-0.751,0.184-1.22,0.184s-0.876-0.061-1.224-0.184c-0.347-0.121-0.629-0.287-0.845-0.496
			c-0.217-0.211-0.391-0.48-0.521-0.809c-0.131-0.33-0.221-0.68-0.269-1.049c-0.049-0.369-0.073-0.799-0.073-1.289v-7.287h1.459
			v7.359c0,0.314,0.009,0.586,0.026,0.816s0.058,0.461,0.119,0.693c0.062,0.23,0.145,0.418,0.249,0.561
			c0.104,0.141,0.246,0.256,0.428,0.348c0.181,0.09,0.397,0.135,0.649,0.135s0.468-0.045,0.646-0.135
			c0.179-0.092,0.32-0.209,0.425-0.352c0.104-0.145,0.187-0.33,0.248-0.561c0.062-0.23,0.102-0.459,0.119-0.689
			s0.027-0.502,0.027-0.816v-7.359h1.458v7.287c0,0.49-0.024,0.92-0.072,1.289c-0.049,0.369-0.139,0.719-0.269,1.049
			c-0.131,0.328-0.305,0.598-0.521,0.809C323.318,259.694,323.037,259.86,322.692,259.981z"/>
		<path d="M326.021,260.046v-10.994h2.208c1.113,0,1.931,0.227,2.45,0.684c0.52,0.455,0.778,1.197,0.778,2.227
			c0,1.416-0.453,2.271-1.358,2.566l1.571,5.518h-1.485l-1.445-5.16h-1.188v5.16H326.021z M327.553,253.786h0.577
			c0.667,0,1.144-0.131,1.429-0.395s0.428-0.74,0.428-1.43c0-0.666-0.122-1.135-0.368-1.404c-0.245-0.271-0.708-0.406-1.389-0.406
			h-0.677V253.786z"/>
		<path d="M333.143,260.046v-10.994h1.506v10.994H333.143z"/>
		<path d="M337.56,260.046v-9.861h-2.009v-1.133h5.477v1.133h-1.937v9.861H337.56z"/>
		<path d="M343.548,260.046v-3.879l-2.374-7.115h1.426l1.677,5.297l1.658-5.297h1.445l-2.367,7.115v3.879H343.548z"/>
	</g>
	<g>
		<path d="M407.295,99.23v-9.86h-2.009v-1.134h5.477v1.134h-1.937v9.86H407.295z"/>
		<path d="M411.605,99.23V88.236h2.208c1.113,0,1.931,0.228,2.45,0.683c0.52,0.456,0.778,1.198,0.778,2.228
			c0,1.415-0.453,2.27-1.358,2.566l1.571,5.517h-1.485l-1.445-5.159h-1.188v5.159H411.605z M413.137,92.97h0.577
			c0.667,0,1.144-0.131,1.429-0.395c0.285-0.263,0.428-0.739,0.428-1.429c0-0.667-0.122-1.136-0.368-1.406
			c-0.245-0.27-0.708-0.404-1.389-0.404h-0.677V92.97z"/>
		<path d="M422.705,99.167c-0.345,0.122-0.751,0.182-1.22,0.182s-0.876-0.061-1.224-0.182c-0.347-0.122-0.629-0.287-0.845-0.498
			c-0.217-0.209-0.391-0.479-0.521-0.809c-0.131-0.33-0.221-0.679-0.269-1.048c-0.049-0.369-0.073-0.799-0.073-1.29v-7.288h1.459
			v7.36c0,0.314,0.009,0.586,0.026,0.815c0.018,0.23,0.058,0.461,0.119,0.693c0.062,0.232,0.145,0.418,0.249,0.56
			c0.104,0.142,0.246,0.258,0.428,0.348c0.181,0.091,0.397,0.136,0.649,0.136s0.468-0.045,0.646-0.136
			c0.179-0.09,0.32-0.208,0.425-0.352c0.104-0.144,0.187-0.33,0.248-0.56c0.062-0.23,0.102-0.46,0.119-0.69
			c0.018-0.229,0.027-0.501,0.027-0.815v-7.36h1.458v7.288c0,0.491-0.024,0.92-0.072,1.29c-0.049,0.369-0.139,0.718-0.269,1.048
			c-0.131,0.329-0.305,0.599-0.521,0.809C423.331,98.88,423.05,99.045,422.705,99.167z"/>
		<path d="M428.62,99.349c-0.924,0-1.628-0.285-2.112-0.855c-0.483-0.57-0.755-1.351-0.812-2.341l1.366-0.372
			c0.098,1.574,0.617,2.361,1.559,2.361c0.394,0,0.692-0.109,0.898-0.328c0.205-0.219,0.309-0.541,0.309-0.965
			c0-0.234-0.028-0.449-0.083-0.643c-0.056-0.195-0.146-0.38-0.272-0.557s-0.245-0.324-0.357-0.441
			c-0.113-0.117-0.273-0.273-0.481-0.468l-1.843-1.638c-0.371-0.336-0.643-0.69-0.812-1.064c-0.17-0.373-0.255-0.83-0.255-1.369
			c0-0.795,0.23-1.416,0.692-1.86s1.093-0.671,1.894-0.68c0.879-0.013,1.538,0.213,1.976,0.68s0.7,1.188,0.789,2.165l-1.293,0.358
			c-0.018-0.239-0.042-0.451-0.073-0.636c-0.03-0.186-0.081-0.373-0.152-0.561c-0.07-0.188-0.157-0.34-0.259-0.458
			s-0.236-0.21-0.404-0.278c-0.168-0.069-0.362-0.096-0.583-0.083c-0.81,0.058-1.214,0.46-1.214,1.207
			c0,0.323,0.056,0.593,0.166,0.809c0.11,0.217,0.296,0.444,0.557,0.683l1.856,1.638c0.482,0.434,0.866,0.897,1.15,1.393
			c0.285,0.495,0.428,1.057,0.428,1.684c0,0.805-0.243,1.442-0.729,1.913C430.037,99.114,429.402,99.349,428.62,99.349z"/>
		<path d="M433.587,99.23v-9.86h-2.009v-1.134h5.477v1.134h-1.937v9.86H433.587z"/>
	</g>
	<rect x="9.5" y="281.665" fill="#FFFFFF" width="59.958" height="63.059"/>
	<g>
		<path d="M15.713,310.446l-1.797-10.994h1.287l1.174,7.904l1.485-7.871h1.088l1.492,7.904l1.147-7.938h1.253l-1.764,10.994h-1.114
			l-1.532-8.143l-1.551,8.143H15.713z"/>
		<path d="M26.883,310.565c-0.548,0-1.018-0.082-1.409-0.246c-0.391-0.162-0.702-0.404-0.932-0.723
			c-0.229-0.318-0.397-0.689-0.504-1.113c-0.106-0.424-0.159-0.92-0.159-1.486v-4.164c0-1.145,0.233-2.012,0.7-2.602
			s1.234-0.885,2.304-0.885c1.065,0,1.833,0.297,2.301,0.891c0.469,0.596,0.703,1.461,0.703,2.596v4.172
			c0,1.145-0.235,2.023-0.706,2.639C28.71,310.259,27.944,310.565,26.883,310.565z M26.137,309.226
			c0.197,0.094,0.445,0.139,0.746,0.139s0.549-0.045,0.746-0.139c0.197-0.092,0.346-0.234,0.448-0.424
			c0.102-0.189,0.171-0.398,0.208-0.627s0.057-0.51,0.057-0.846v-4.814c0-0.33-0.019-0.607-0.057-0.828s-0.107-0.424-0.208-0.609
			c-0.102-0.186-0.251-0.322-0.448-0.408s-0.445-0.129-0.746-0.129s-0.549,0.043-0.746,0.129s-0.346,0.223-0.447,0.408
			c-0.102,0.186-0.171,0.389-0.209,0.609s-0.056,0.498-0.056,0.828v4.814c0,0.336,0.019,0.617,0.056,0.846s0.107,0.438,0.209,0.627
			C25.792,308.991,25.94,309.134,26.137,309.226z"/>
		<path d="M31.405,310.446v-10.994h2.208c1.114,0,1.93,0.227,2.45,0.684c0.52,0.455,0.779,1.197,0.779,2.227
			c0,1.416-0.453,2.271-1.359,2.566l1.572,5.518H35.57l-1.446-5.16h-1.187v5.16H31.405z M32.937,304.187h0.577
			c0.667,0,1.144-0.131,1.429-0.395s0.428-0.74,0.428-1.43c0-0.666-0.123-1.135-0.368-1.404c-0.246-0.271-0.708-0.406-1.389-0.406
			h-0.677V304.187z"/>
		<path d="M38.454,310.446v-10.994h1.532v5.178l2.52-5.178h1.425l-2.175,4.848l2.526,6.146h-1.492l-2.208-5.451l-0.597,1.121v4.33
			H38.454z"/>
		<path d="M45.178,310.446v-10.994h4.257v1.133h-2.726v3.635h2.215v1.094h-2.215v4.031h2.759v1.102H45.178z"/>
		<path d="M50.708,310.446v-10.994h2.208c1.114,0,1.93,0.227,2.45,0.684c0.52,0.455,0.779,1.197,0.779,2.227
			c0,1.416-0.453,2.271-1.359,2.566l1.572,5.518h-1.485l-1.446-5.16H52.24v5.16H50.708z M52.24,304.187h0.577
			c0.667,0,1.144-0.131,1.429-0.395s0.428-0.74,0.428-1.43c0-0.666-0.123-1.135-0.368-1.404c-0.246-0.271-0.708-0.406-1.389-0.406
			H52.24V304.187z"/>
		<path d="M57.949,303.04l-0.252-0.537c0.274-0.023,0.464-0.15,0.57-0.385s0.159-0.615,0.159-1.141h-0.723v-1.525h1.591v1.312
			c0,0.734-0.104,1.291-0.312,1.672C58.776,302.815,58.431,303.017,57.949,303.04z"/>
		<path d="M63.168,310.565c-0.924,0-1.628-0.285-2.112-0.855c-0.484-0.57-0.755-1.352-0.812-2.342l1.366-0.371
			c0.097,1.574,0.617,2.361,1.559,2.361c0.393,0,0.693-0.109,0.898-0.328s0.308-0.541,0.308-0.965c0-0.234-0.027-0.449-0.083-0.643
			c-0.055-0.195-0.146-0.381-0.271-0.559c-0.126-0.176-0.246-0.322-0.358-0.439s-0.273-0.273-0.48-0.469l-1.843-1.637
			c-0.372-0.336-0.643-0.691-0.812-1.064c-0.17-0.373-0.255-0.83-0.255-1.369c0-0.797,0.231-1.416,0.693-1.859
			c0.462-0.445,1.093-0.672,1.893-0.68c0.88-0.014,1.539,0.213,1.976,0.68c0.438,0.465,0.701,1.188,0.789,2.164l-1.293,0.357
			c-0.018-0.238-0.042-0.451-0.073-0.637c-0.031-0.186-0.082-0.371-0.153-0.559c-0.071-0.189-0.157-0.342-0.258-0.459
			c-0.102-0.117-0.237-0.209-0.405-0.277s-0.362-0.098-0.583-0.084c-0.809,0.059-1.213,0.461-1.213,1.207
			c0,0.322,0.055,0.592,0.166,0.809c0.11,0.217,0.296,0.445,0.557,0.684l1.857,1.639c0.481,0.432,0.865,0.896,1.15,1.393
			c0.285,0.494,0.428,1.055,0.428,1.684c0,0.805-0.243,1.441-0.729,1.912S63.95,310.565,63.168,310.565z"/>
	</g>
	<g>
		<path d="M27.583,326.741l-2.453-10.994h1.432l1.737,8.098l1.658-8.098h1.399l-2.433,10.994H27.583z"/>
		<path d="M35.226,326.86c-0.548,0-1.018-0.082-1.409-0.244c-0.391-0.164-0.702-0.404-0.932-0.723
			c-0.229-0.318-0.397-0.689-0.504-1.115c-0.106-0.424-0.159-0.918-0.159-1.484v-4.164c0-1.145,0.233-2.014,0.7-2.604
			s1.234-0.885,2.304-0.885c1.065,0,1.833,0.297,2.301,0.893c0.469,0.594,0.703,1.459,0.703,2.596v4.17
			c0,1.145-0.235,2.025-0.706,2.639C37.053,326.554,36.287,326.86,35.226,326.86z M34.48,325.522
			c0.197,0.092,0.445,0.139,0.746,0.139s0.549-0.047,0.746-0.139c0.197-0.094,0.346-0.234,0.448-0.426
			c0.102-0.189,0.171-0.398,0.208-0.627c0.038-0.227,0.057-0.508,0.057-0.844v-4.814c0-0.332-0.019-0.607-0.057-0.83
			c-0.038-0.221-0.107-0.424-0.208-0.609c-0.102-0.186-0.251-0.322-0.448-0.408s-0.445-0.129-0.746-0.129s-0.549,0.043-0.746,0.129
			s-0.346,0.223-0.447,0.408c-0.102,0.186-0.171,0.389-0.209,0.609c-0.038,0.223-0.056,0.498-0.056,0.83v4.814
			c0,0.336,0.019,0.617,0.056,0.844c0.038,0.229,0.107,0.438,0.209,0.627C34.134,325.288,34.283,325.429,34.48,325.522z"/>
		<path d="M39.821,326.741v-10.994h1.505v10.994H39.821z"/>
		<path d="M45.855,326.86c-0.456,0-0.855-0.061-1.2-0.186c-0.345-0.123-0.627-0.291-0.846-0.504
			c-0.219-0.211-0.398-0.477-0.537-0.791c-0.139-0.316-0.235-0.65-0.289-0.998c-0.053-0.35-0.08-0.74-0.08-1.174v-3.887
			c0-0.463,0.028-0.877,0.083-1.24c0.055-0.361,0.151-0.699,0.289-1.014c0.137-0.314,0.316-0.572,0.537-0.775
			c0.221-0.203,0.503-0.363,0.845-0.479c0.343-0.115,0.742-0.172,1.197-0.172c0.99,0,1.699,0.268,2.128,0.803
			c0.429,0.535,0.643,1.322,0.643,2.359v0.877h-1.452v-0.777c0-0.168-0.001-0.299-0.003-0.395c-0.002-0.094-0.006-0.213-0.013-0.354
			c-0.007-0.143-0.019-0.252-0.037-0.332s-0.041-0.172-0.069-0.279c-0.029-0.105-0.065-0.188-0.109-0.248
			c-0.044-0.059-0.1-0.123-0.166-0.191s-0.142-0.119-0.226-0.152s-0.183-0.062-0.298-0.084c-0.115-0.021-0.243-0.033-0.384-0.033
			c-0.212,0-0.398,0.023-0.557,0.07s-0.29,0.119-0.391,0.219c-0.102,0.1-0.185,0.209-0.249,0.328
			c-0.064,0.119-0.111,0.273-0.142,0.461c-0.031,0.188-0.052,0.369-0.063,0.543c-0.011,0.176-0.017,0.391-0.017,0.646v4.35
			c0,0.828,0.104,1.402,0.312,1.725c0.208,0.322,0.577,0.484,1.107,0.484c0.203,0,0.379-0.021,0.527-0.066
			c0.148-0.045,0.27-0.117,0.365-0.219s0.171-0.207,0.229-0.318c0.057-0.111,0.099-0.26,0.126-0.447
			c0.026-0.188,0.043-0.361,0.05-0.521c0.006-0.158,0.01-0.367,0.01-0.623v-0.809h1.452v0.816c0,0.42-0.026,0.795-0.08,1.127
			c-0.053,0.33-0.144,0.641-0.272,0.932c-0.128,0.289-0.296,0.529-0.504,0.719s-0.473,0.34-0.795,0.447
			C46.653,326.808,46.28,326.86,45.855,326.86z"/>
		<path d="M50.099,326.741v-10.994h4.257v1.135H51.63v3.633h2.215v1.096H51.63v4.031h2.759v1.1H50.099z"/>
	</g>
	<g>
		<path d="M444.364,277.349c-0.924,0-1.628-0.285-2.112-0.855c-0.483-0.57-0.755-1.352-0.812-2.342l1.366-0.371
			c0.098,1.574,0.617,2.361,1.559,2.361c0.394,0,0.692-0.109,0.898-0.328c0.205-0.219,0.309-0.541,0.309-0.965
			c0-0.234-0.028-0.449-0.083-0.643c-0.056-0.195-0.146-0.381-0.272-0.559c-0.126-0.176-0.245-0.322-0.357-0.439
			c-0.113-0.117-0.273-0.273-0.481-0.469l-1.843-1.637c-0.371-0.336-0.643-0.691-0.812-1.064s-0.255-0.83-0.255-1.369
			c0-0.797,0.23-1.416,0.692-1.859c0.462-0.445,1.093-0.672,1.894-0.68c0.879-0.014,1.538,0.213,1.976,0.68
			c0.438,0.465,0.7,1.188,0.789,2.164l-1.293,0.357c-0.018-0.238-0.042-0.451-0.073-0.637c-0.03-0.186-0.081-0.371-0.152-0.559
			c-0.07-0.189-0.157-0.342-0.259-0.459s-0.236-0.209-0.404-0.277s-0.362-0.098-0.583-0.084c-0.81,0.059-1.214,0.461-1.214,1.207
			c0,0.322,0.056,0.592,0.166,0.809s0.296,0.445,0.557,0.684l1.856,1.639c0.482,0.432,0.866,0.896,1.15,1.393
			c0.285,0.494,0.428,1.055,0.428,1.684c0,0.805-0.243,1.441-0.729,1.912C445.781,277.112,445.146,277.349,444.364,277.349z"/>
		<path d="M451.002,277.349c-0.548,0-1.018-0.082-1.409-0.246c-0.391-0.162-0.701-0.404-0.932-0.723
			c-0.229-0.318-0.397-0.689-0.504-1.113c-0.105-0.424-0.159-0.92-0.159-1.486v-4.164c0-1.145,0.233-2.012,0.7-2.602
			c0.466-0.59,1.234-0.885,2.304-0.885c1.065,0,1.832,0.297,2.301,0.891c0.469,0.596,0.703,1.461,0.703,2.596v4.172
			c0,1.145-0.235,2.023-0.706,2.639S452.062,277.349,451.002,277.349z M450.256,276.009c0.197,0.094,0.445,0.139,0.746,0.139
			s0.549-0.045,0.746-0.139c0.196-0.092,0.346-0.234,0.447-0.424s0.172-0.398,0.209-0.627c0.038-0.229,0.057-0.51,0.057-0.846
			v-4.814c0-0.33-0.019-0.607-0.057-0.828c-0.037-0.221-0.107-0.424-0.209-0.609s-0.251-0.322-0.447-0.408
			c-0.197-0.086-0.445-0.129-0.746-0.129s-0.549,0.043-0.746,0.129c-0.196,0.086-0.346,0.223-0.447,0.408s-0.172,0.389-0.209,0.609
			c-0.038,0.221-0.057,0.498-0.057,0.828v4.814c0,0.336,0.019,0.617,0.057,0.846c0.037,0.229,0.107,0.438,0.209,0.627
			S450.06,275.917,450.256,276.009z"/>
		<path d="M455.524,277.229v-10.994h1.531v9.893h2.805v1.102H455.524z"/>
		<path d="M460.987,277.229v-10.994h1.506v10.994H460.987z"/>
		<path d="M464.277,277.229v-10.994h2.387c1.189,0,2.028,0.27,2.517,0.809s0.732,1.389,0.732,2.547v4.045
			c0,1.207-0.242,2.107-0.726,2.701c-0.484,0.596-1.288,0.893-2.41,0.893H464.277z M465.809,276.128h0.862
			c0.234,0,0.44-0.023,0.62-0.068c0.179-0.047,0.328-0.104,0.447-0.166c0.119-0.064,0.22-0.168,0.302-0.309
			c0.082-0.143,0.144-0.271,0.186-0.393c0.042-0.119,0.074-0.295,0.097-0.529c0.021-0.234,0.035-0.434,0.039-0.6
			c0.005-0.166,0.007-0.406,0.007-0.721v-3.574c0-0.264-0.004-0.488-0.013-0.67c-0.01-0.18-0.027-0.361-0.054-0.543
			s-0.066-0.328-0.119-0.443s-0.122-0.225-0.205-0.328c-0.085-0.105-0.188-0.184-0.312-0.24c-0.123-0.055-0.27-0.098-0.438-0.129
			s-0.364-0.047-0.59-0.047h-0.829V276.128z"/>
		<path d="M470.672,277.229l2.348-10.994h1.479l2.348,10.994h-1.459l-0.504-2.771h-2.235l-0.523,2.771H470.672z M472.847,273.362
			h1.837l-0.922-4.965L472.847,273.362z"/>
		<path d="M477.96,277.229v-10.994h2.208c1.113,0,1.931,0.227,2.45,0.684c0.52,0.455,0.778,1.197,0.778,2.227
			c0,1.416-0.453,2.271-1.358,2.566l1.571,5.518h-1.485l-1.445-5.16h-1.188v5.16H477.96z M479.491,270.97h0.577
			c0.667,0,1.144-0.131,1.429-0.395s0.428-0.74,0.428-1.43c0-0.666-0.122-1.135-0.368-1.404c-0.245-0.271-0.708-0.406-1.389-0.406
			h-0.677V270.97z"/>
		<path d="M485.081,277.229v-10.994h1.506v10.994H485.081z"/>
		<path d="M489.498,277.229v-9.861h-2.009v-1.133h5.477v1.133h-1.937v9.861H489.498z"/>
		<path d="M495.486,277.229v-3.879l-2.374-7.115h1.426l1.677,5.297l1.658-5.297h1.445l-2.367,7.115v3.879H495.486z"/>
	</g>
	<line fill="none" stroke="#6D6E71" stroke-width="8" stroke-miterlimit="10" x1="0" y1="156.958" x2="514.016" y2="156.958"/>
	<line fill="none" stroke="#6D6E71" stroke-width="8" stroke-miterlimit="10" x1="0" y1="373.173" x2="514.016" y2="373.173"/>
	<g>
	</g>
	<g>
	</g>
	<g>
	</g>
	<g>
	</g>
	<g>
	</g>
	<g>
	</g>
	<g>
	</g>
	<g>
	</g>
	<g>
	</g>
</g>
</svg>
