<?xml version="1.0" encoding="utf-8"?>
<!-- Generator: Adobe Illustrator 16.0.0, SVG Export Plug-In . SVG Version: 6.00 Build 0)  -->
<!DOCTYPE svg PUBLIC "-//W3C//DTD SVG 1.1//EN" "http://www.w3.org/Graphics/SVG/1.1/DTD/svg11.dtd">
<svg version="1.1" xmlns="http://www.w3.org/2000/svg" xmlns:xlink="http://www.w3.org/1999/xlink" x="0px" y="0px" width="136.4px"
	 height="136.401px" viewBox="0 0 136.4 136.401" enable-background="new 0 0 136.4 136.401" xml:space="preserve">
<g id="Layer_2">
	<rect fill="#010202" width="136.4" height="136.401"/>
	<rect x="474.536" y="213.938" fill="#010202" width="136.4" height="136.401"/>
</g>
<g id="Layer_1">
	<path fill="#C6C6C6" d="M68.2,136.401C30.534,136.401,0,105.867,0,68.2C0,30.534,30.534,0,68.2,0
		C105.865,0,136.4,30.534,136.4,68.2C136.4,105.867,105.865,136.401,68.2,136.401"/>
	<path fill="#575756" d="M68.2,127.014c-32.481,0-58.813-26.331-58.813-58.813c0-32.481,26.332-58.812,58.813-58.812
		c32.482,0,58.813,26.331,58.813,58.812C127.013,100.683,100.682,127.014,68.2,127.014"/>
	<path fill="#FFFFFF" d="M68.2,127.014c-32.481,0-58.813-26.331-58.813-58.813c0,0,21.594-4.531,58.813,0
		c37.017,4.509,58.813,0,58.813,0C127.013,100.683,100.682,127.014,68.2,127.014"/>
	<path fill="#EC651A" d="M50.438,42.528l36.646,24.844c0.587,0.396,0.587,1.26,0,1.657L50.438,93.873
		c-0.665,0.451-1.563-0.026-1.563-0.829V43.356C48.875,42.554,49.774,42.077,50.438,42.528"/>
	<path fill="#FFFFFF" d="M20.947,84.703l3.529-0.334c0,0-0.124-0.421-1.054-0.872l-0.891-9.408l0.279-0.027
		c0.505-0.05,0.874-0.498,0.827-1.003l-0.79-8.332c-0.062-0.658-0.646-1.142-1.305-1.079l-1.696,0.161c0,0,0.288-2.079,0.129-2.869
		c-0.102-0.51-0.841-1.115-1.632-1.04c-0.929,0.088-1.404,0.808-1.409,1.328c-0.007,0.805,0.666,2.794,0.666,2.794l-1.696,0.16
		c-0.658,0.062-1.141,0.646-1.079,1.305l0.789,8.332c0.048,0.505,0.495,0.876,1,0.83l0.28-0.025l0.891,9.408
		c-0.829,0.618-0.872,1.054-0.872,1.054l3.53-0.334L20.947,84.703z"/>
	<path fill="#FFFFFF" d="M41.118,84.773L44.656,85c0,0-0.056-0.435-0.904-1.027l0.604-9.432l0.28,0.018
		c0.506,0.03,0.942-0.354,0.974-0.86l0.535-8.352c0.042-0.66-0.459-1.229-1.119-1.272l-1.7-0.107c0,0,0.612-2.008,0.58-2.813
		c-0.021-0.52-0.656-1.232-1.448-1.284c-0.931-0.06-1.514,0.576-1.6,1.09c-0.135,0.794,0.216,2.863,0.216,2.863l-1.7-0.108
		c-0.66-0.042-1.229,0.458-1.271,1.117l-0.535,8.353c-0.032,0.506,0.351,0.943,0.857,0.978l0.28,0.02l-0.603,9.431
		c-0.916,0.479-1.027,0.903-1.027,0.903l3.538,0.227L41.118,84.773z"/>
	<path fill="#FFFFFF" d="M33.076,73.004c0.507,0.022,0.936-0.368,0.961-0.875l0.412-8.359c0.033-0.66-0.476-1.222-1.137-1.254
		l-1.702-0.084c0,0,0.583-2.017,0.539-2.821c-0.028-0.519-0.674-1.224-1.467-1.263c-0.931-0.046-1.505,0.599-1.584,1.113
		c-0.122,0.796,0.259,2.859,0.259,2.859l-0.495-0.023c-0.147-0.008-0.287,0.013-0.419,0.055l0.299-6.079
		c0.024-0.48-0.327-0.889-0.795-0.954l-0.076-0.003c-0.473,0.019-0.862,0.391-0.885,0.87l-0.412,8.359
		c-0.045,0.908,0.178,1.187,0.783,1.235v0.001c0.013,0.002,0.024,0.002,0.036,0.002c0.012,0.001,0.024,0.002,0.036,0.003v-0.002
		c0.021,0,0.04,0,0.06-0.001l-0.349,6.93l-0.465,9.438c-0.909,0.494-1.014,0.919-1.014,0.919l3.541,0.176l0.506,0.023l3.541,0.175
		c0,0-0.063-0.434-0.919-1.014l0.465-9.439L33.076,73.004z"/>
	<path fill="#FFFFFF" d="M100.213,78.332c-0.5,0.083-0.974-0.254-1.059-0.754l-1.402-8.251c-0.111-0.651,0.326-1.271,0.979-1.381
		l1.68-0.285c0,0-0.818-1.933-0.869-2.737c-0.035-0.519,0.522-1.295,1.306-1.428c0.919-0.157,1.565,0.414,1.704,0.916
		c0.217,0.776,0.084,2.87,0.084,2.87l0.488-0.083c0.145-0.024,0.287-0.021,0.424,0.005l-1.021-6
		c-0.081-0.475,0.219-0.922,0.676-1.041l0.075-0.013c0.472-0.039,0.902,0.285,0.983,0.759l1.402,8.25
		c0.153,0.896-0.035,1.2-0.631,1.32l0.001,0.002c-0.013,0.002-0.024,0.003-0.036,0.005s-0.022,0.005-0.035,0.007v-0.002
		c-0.021,0.003-0.039,0.005-0.06,0.007l1.171,6.838l1.585,9.317c0.962,0.381,1.116,0.791,1.116,0.791l-3.495,0.595l-0.499,0.085
		l-3.494,0.594c0,0,0.01-0.438,0.791-1.115l-1.586-9.316L100.213,78.332z"/>
</g>
</svg>
