<?xml version="1.0" encoding="utf-8"?>
<!-- Generator: Adobe Illustrator 16.0.0, SVG Export Plug-In . SVG Version: 6.00 Build 0)  -->
<!DOCTYPE svg PUBLIC "-//W3C//DTD SVG 1.1//EN" "http://www.w3.org/Graphics/SVG/1.1/DTD/svg11.dtd">
<svg version="1.1" xmlns="http://www.w3.org/2000/svg" xmlns:xlink="http://www.w3.org/1999/xlink" x="0px" y="0px"
	 width="664.271px" height="773.439px" viewBox="0 0 664.271 773.439" enable-background="new 0 0 664.271 773.439"
	 xml:space="preserve">
<g id="Layer_2">
	<rect width="664.271" height="773.439"/>
</g>
<g id="Layer_1">
	<line x1="-52.395" y1="-55.333" x2="-52.395" y2="756.279"/>
	<line x1="714.979" y1="756.279" x2="714.979" y2="-55.333"/>
	<path fill="#6D6E71" d="M236.681,307.292c-15.487,0-28.042,12.554-28.042,28.041c0,15.486,12.555,28.042,28.042,28.042
		s28.042-12.556,28.042-28.042C264.723,319.846,252.167,307.292,236.681,307.292 M236.354,343.811c-4.682,0-8.478-3.796-8.478-8.478
		c0-4.683,3.796-8.478,8.478-8.478c4.682,0,8.478,3.795,8.478,8.478C244.833,340.015,241.037,343.811,236.354,343.811"/>
	<path fill="#6D6E71" d="M506.44,307.292c-15.487,0-28.042,12.554-28.042,28.041c0,15.486,12.555,28.042,28.042,28.042
		s28.042-12.556,28.042-28.042C534.482,319.846,521.928,307.292,506.44,307.292 M506.44,343.811c-4.682,0-8.478-3.796-8.478-8.478
		c0-4.683,3.796-8.478,8.478-8.478s8.479,3.795,8.479,8.478C514.919,340.015,511.122,343.811,506.44,343.811"/>
	<path fill="#F36E29" d="M402.651,465.667h-4.333c-0.553,0-1-0.442-1-0.989v-18.954c0-0.224-0.077-0.44-0.217-0.615l-6.95-7.419
		c-1.403-1.75-2.167-3.918-2.167-6.153v-60.879c0-0.547,0.448-0.99,1-0.99h13.667h13.667c0.552,0,1,0.443,1,0.99v60.879
		c0,2.235-0.764,4.403-2.167,6.153l-6.95,7.419c-0.14,0.175-0.217,0.392-0.217,0.615v18.954c0,0.547-0.447,0.989-1,0.989H402.651z"
		/>
	<path fill="#F36E29" d="M535.684,249.468c-0.096-0.203-0.121-0.435-0.069-0.654l4.032-17.272c0.125-0.538-0.209-1.075-0.747-1.201
		l-4.22-0.984l-4.22-0.985c-0.537-0.126-1.075,0.208-1.201,0.746l-4.032,17.271c-0.051,0.221-0.176,0.416-0.352,0.557
		c-5.916,4.758-9.357,8.777-10.37,13.113c-0.011,0.047-8.919,38.203-8.919,38.203c-0.125,0.537,0.209,1.075,0.747,1.2l11.36,2.653
		l11.361,2.652c0.538,0.125,1.076-0.209,1.201-0.746c0,0,8.908-38.156,8.919-38.202
		C540.122,261.761,538.882,256.353,535.684,249.468"/>
	<path fill="#FFFFFF" d="M337.324,224.708h3.667c0.552,0,1,0.448,1,1v12.041c0,0.225,0.076,0.443,0.216,0.621l9.833,7.408
		c0.077,0.059,0.148,0.127,0.208,0.203c1.346,1.748,2.076,3.894,2.076,6.102v46.5c0,0.552-0.448,1-1,1h-20h-13.667
		c-0.552,0-1-0.448-1-1v-46.5c0-2.208,0.731-4.354,2.077-6.102c0.059-0.076,0.13-0.145,0.208-0.203l9.832-7.408
		c0.14-0.178,0.217-0.396,0.217-0.621v-12.041c0-0.552,0.447-1,1-1H337.324z"/>
	<path fill="#F36E29" d="M159.209,316.5c0-0.551,0.448-1,1-1l40.375,4c0.552,0,1,0.449,1,1v20v9.668c0,0.552-0.448,1-1,1l-40.375,4
		c-0.552,0-1-0.448-1-1V316.5z"/>
	<path fill="#FFFFFF" d="M201.584,340.5v9.668c0,0.552-0.448,1-1,1l-40.375,4c-0.552,0-1-0.448-1-1v-2.313
		c0,0,9.329-4.345,21.987-5.891C193.855,344.417,201.584,340.5,201.584,340.5"/>
	<path fill="#F36E29" d="M446.772,423.042c-0.553,0-1-0.448-1-1l4-50.375c0-0.552,0.447-1,1-1h17.073h9.667c0.553,0,1,0.448,1,1
		l4,50.375c0,0.552-0.447,1-1,1H446.772z"/>
	<path fill="#F36E29" d="M578.257,352.079c0,0.552-0.448,1-1,1l-33.312-1c-0.554,0-1-0.448-1-1v-19.074v-11.667c0-0.552,0.446-1,1-1
		l33.312-1c0.552,0,1,0.448,1,1V352.079z"/>
	<path fill="#F36E29" d="M462.68,299.583h11.552c0.552,0,1-0.448,1-1v-17.9c0-11.174,1.503-22.297,4.47-33.07l2.557-9.281
		c0.231-0.842-0.401-1.672-1.273-1.672H462.68h-18.305c-0.872,0-1.506,0.83-1.273,1.672l3.748,13.609
		c2.175,7.901,3.278,16.06,3.278,24.254v22.389c0,0.552,0.447,1,1,1H462.68z"/>
	<path fill="#FFFFFF" d="M445.641,247.55l1.209,4.392c2.176,7.899,3.278,16.058,3.278,24.253v22.389c0,0.553,0.447,1,1,1h11.551
		h11.553c0.553,0,1-0.447,1-1v-17.899c0-11.174,1.504-22.297,4.471-33.07c0,0-9.719,1.336-17.055-0.032
		C455.057,246.167,445.641,247.55,445.641,247.55"/>
	<path fill="#FFFFFF" d="M262.408,243.333h28c0.552,0,1,0.448,1,1v54.25c0,0.552-0.448,1-1,1h-28c-0.552,0-1-0.448-1-1v-54.25
		C261.408,243.782,261.855,243.333,262.408,243.333"/>
	<path fill="#F36E29" d="M200.265,285.529c2.295,11.579,13.828,18.975,25.419,16.047c10.346-2.613,17.102-12.998,15.319-23.52
		c-0.75-4.43-2.846-8.27-5.784-11.2c-0.236-0.235-0.579-0.333-0.906-0.269l-32.116,6.366c-0.326,0.064-0.606,0.285-0.734,0.593
		C199.935,277.207,199.436,281.345,200.265,285.529"/>
	<path fill="#FFFFFF" d="M202.197,272.954c-0.327,0.065-0.606,0.285-0.734,0.592c-1.528,3.662-2.028,7.799-1.198,11.983
		c2.295,11.578,13.827,18.976,25.418,16.047c10.347-2.614,17.102-12.998,15.32-23.521c-0.384-2.266-0.83-3.81-1.851-5.725
		c0,0-9.937,1.614-19.375,0.418S202.197,272.954,202.197,272.954"/>
	<path fill="#F36E29" d="M549.769,383.729c-6.731-17.519-20.126-19.771-30.918-14.569c-9.634,4.643-17.048,14.817-11.242,30.758
		c2.444,6.708,8.481,12.703,12.604,16.988c0.332,0.345,0.721,0.472,1.031,0.352l30.871-12.641c0.311-0.119,0.514-0.473,0.53-0.949
		C552.83,397.984,552.201,390.06,549.769,383.729"/>
	<path fill="#F36E29" d="M318.405,421.738v7.671c0,0.37,0.299,0.669,0.668,0.669h17.418h17.418c0.368,0,0.668-0.299,0.668-0.669
		v-7.671c0-0.066,0.01-0.131,0.028-0.195c0.237-0.793,1.776-6.424-0.952-10.262c-0.07-0.1-0.113-0.215-0.122-0.336l-2.55-39.272
		c-0.015-0.218-0.132-0.413-0.317-0.526c-1.11-0.68-5.415-0.438-14.173-0.438c-8.758,0-13.063-0.242-14.173,0.438
		c-0.186,0.113-0.303,0.309-0.317,0.526l-2.55,39.272c-0.008,0.121-0.052,0.236-0.123,0.336c-2.728,3.838-1.188,9.469-0.952,10.262
		C318.395,421.607,318.405,421.671,318.405,421.738"/>
	<path fill="#F36E29" d="M210.129,389.878c-0.036,0.148,0.098,0.307,0.3,0.356l9.52,2.313l9.519,2.313
		c0.202,0.049,0.394-0.031,0.43-0.179l2.665-23.89c0.014-0.089-0.031-0.183-0.122-0.253c-0.54-0.42-1.927-0.609-6.713-1.771
		c-4.787-1.164-6.1-1.849-6.773-1.724c-0.113,0.021-0.196,0.084-0.225,0.169L210.129,389.878z"/>
	<path fill="#F36E29" d="M282.118,374.833h3.679c0.552,0,1-0.448,1-1v-2.167c0-0.552-0.448-1-1-1h-18.785c-0.553,0-1,0.448-1,1
		v2.167c0,0.552,0.447,1,1,1h3.686l-5.975,62.629c0,0.552,0.447,1,1,1h21.37c0.552,0,1-0.448,1-1L282.118,374.833z"/>
	<path fill="#F36E29" d="M502.608,660.333H61.313c-2.209,0-4-1.791-4-4l-8-158.333c0-2.209,1.791-4,4-4h457.295c2.209,0,4,1.791,4,4
		l-8,158.333C506.608,658.542,504.817,660.333,502.608,660.333"/>
	<path fill="#FFFFFF" d="M513.389,522.15l-6.78,134.184c0,2.209-1.791,4-4,4H61.314c-2.21,0-4-1.791-4-4l-6.78-134.184
		c0,0,120.446,9.517,231.427,0C392.98,514.333,513.389,522.15,513.389,522.15"/>
	<path fill="#FFFFFF" d="M456.095,150.435h-3.521c0,0,0.083,0.427,0.961,0.961v9.387l-0.28,0.001
		c-0.503,0.002-0.909,0.411-0.909,0.914v8.313c0,0.656,0.531,1.188,1.188,1.188h1.692c0,0-0.479,2.029-0.396,2.825
		c0.054,0.514,0.729,1.181,1.518,1.181c0.926,0,1.463-0.667,1.517-1.181c0.082-0.796-0.396-2.825-0.396-2.825h1.691
		c0.657,0,1.19-0.532,1.19-1.188v-8.313c0-0.503-0.408-0.912-0.911-0.914l-0.28-0.001v-9.387c0.878-0.534,0.961-0.961,0.961-0.961
		h-3.521H456.095z"/>
	<path fill="#FFFFFF" d="M468.595,150.435h-3.521c0,0,0.083,0.427,0.961,0.961v9.387l-0.28,0.001
		c-0.503,0.002-0.909,0.411-0.909,0.914v8.313c0,0.656,0.531,1.188,1.188,1.188h1.692c0,0-0.479,2.029-0.396,2.825
		c0.054,0.514,0.729,1.181,1.518,1.181c0.926,0,1.463-0.667,1.516-1.181c0.083-0.796-0.396-2.825-0.396-2.825h1.691
		c0.657,0,1.19-0.532,1.19-1.188v-8.313c0-0.503-0.408-0.912-0.911-0.914l-0.28-0.001v-9.387c0.878-0.534,0.961-0.961,0.961-0.961
		h-3.521H468.595z"/>
	<path fill="#FFFFFF" d="M456.095,207.896h-3.521c0,0,0.083,0.427,0.961,0.961v9.387l-0.28,0.001
		c-0.503,0.002-0.909,0.411-0.909,0.914v8.313c0,0.656,0.531,1.188,1.188,1.188h1.692c0,0-0.479,2.029-0.396,2.825
		c0.054,0.514,0.729,1.182,1.518,1.182c0.926,0,1.463-0.668,1.517-1.182c0.082-0.796-0.396-2.825-0.396-2.825h1.691
		c0.657,0,1.19-0.532,1.19-1.188v-8.313c0-0.503-0.408-0.912-0.911-0.914l-0.28-0.001v-9.387c0.878-0.534,0.961-0.961,0.961-0.961
		h-3.521H456.095z"/>
	<path fill="#FFFFFF" d="M468.595,207.896h-3.521c0,0,0.083,0.427,0.961,0.961v9.387l-0.28,0.001
		c-0.503,0.002-0.909,0.411-0.909,0.914v8.313c0,0.656,0.531,1.188,1.188,1.188h1.692c0,0-0.479,2.029-0.396,2.825
		c0.054,0.514,0.729,1.182,1.518,1.182c0.926,0,1.463-0.668,1.516-1.182c0.083-0.796-0.396-2.825-0.396-2.825h1.691
		c0.657,0,1.19-0.532,1.19-1.188v-8.313c0-0.503-0.408-0.912-0.911-0.914l-0.28-0.001v-9.387c0.878-0.534,0.961-0.961,0.961-0.961
		h-3.521H468.595z"/>
	<path fill="#FFFFFF" d="M456.201,239.335h-3.521c0,0,0.083,0.428,0.962,0.961v9.387l-0.28,0.002c-0.503,0.002-0.91,0.41-0.91,0.914
		v8.312c0,0.657,0.532,1.189,1.189,1.189h1.691c0,0-0.479,2.029-0.396,2.824c0.053,0.515,0.728,1.182,1.517,1.182
		c0.926,0,1.463-0.667,1.517-1.182c0.082-0.795-0.396-2.824-0.396-2.824h1.692c0.656,0,1.189-0.532,1.189-1.189v-8.312
		c0-0.504-0.408-0.912-0.911-0.914l-0.28-0.002v-9.387c0.879-0.533,0.962-0.961,0.962-0.961h-3.521H456.201z"/>
	<path fill="#FFFFFF" d="M468.701,239.335h-3.521c0,0,0.083,0.428,0.961,0.961v9.387l-0.278,0.002
		c-0.504,0.002-0.911,0.41-0.911,0.914v8.312c0,0.657,0.532,1.189,1.188,1.189h1.692c0,0-0.479,2.029-0.396,2.824
		c0.054,0.515,0.729,1.182,1.518,1.182c0.926,0,1.463-0.667,1.517-1.182c0.082-0.795-0.396-2.824-0.396-2.824h1.691
		c0.657,0,1.19-0.532,1.19-1.189v-8.312c0-0.504-0.408-0.912-0.911-0.914l-0.28-0.002v-9.387c0.878-0.533,0.961-0.961,0.961-0.961
		h-3.521H468.701z"/>
	<path fill="#FFFFFF" d="M408.244,251.722v-15.451c0-0.553-0.448-1-1-1h-9.25c-0.553,0-1,0.447-1,1v15.484
		c0,0.452-0.307,0.838-0.741,0.959c-10.956,3.057-18.737,13.727-17.269,25.952c1.306,10.863,10.1,19.563,20.976,20.767
		c14.403,1.592,26.596-9.643,26.596-23.725c0-11.001-7.442-20.258-17.565-23.025C408.553,252.563,408.244,252.175,408.244,251.722"
		/>
	<path fill="#FFFFFF" d="M449.391,178.518h-3.521c0,0,0.084,0.427,0.962,0.961v9.387l-0.28,0.001
		c-0.503,0.002-0.91,0.411-0.91,0.914v8.313c0,0.657,0.532,1.188,1.189,1.188h1.691c0,0-0.479,2.029-0.396,2.825
		c0.053,0.514,0.728,1.181,1.517,1.181c0.926,0,1.463-0.667,1.517-1.181c0.082-0.796-0.396-2.825-0.396-2.825h1.692
		c0.656,0,1.189-0.531,1.189-1.188v-8.313c0-0.503-0.408-0.912-0.911-0.914l-0.279-0.001v-9.387
		c0.878-0.534,0.961-0.961,0.961-0.961h-3.521H449.391z"/>
	<path fill="#FFFFFF" d="M461.891,178.518h-3.521c0,0,0.083,0.427,0.961,0.961v9.387l-0.28,0.001
		c-0.503,0.002-0.91,0.411-0.91,0.914v8.313c0,0.657,0.532,1.188,1.189,1.188h1.691c0,0-0.479,2.029-0.396,2.825
		c0.053,0.514,0.728,1.181,1.517,1.181c0.926,0,1.463-0.667,1.516-1.181c0.083-0.796-0.396-2.825-0.396-2.825h1.692
		c0.656,0,1.189-0.531,1.189-1.188v-8.313c0-0.503-0.408-0.912-0.911-0.914l-0.279-0.001v-9.387
		c0.878-0.534,0.961-0.961,0.961-0.961h-3.521H461.891z"/>
	<path fill="#FFFFFF" d="M524.841,301.66l3.432,0.788c0,0,0.015-0.436-0.722-1.152l2.1-9.147l0.273,0.061
		c0.491,0.11,0.979-0.197,1.092-0.688l1.86-8.103c0.146-0.64-0.253-1.278-0.894-1.425l-1.649-0.379c0,0,0.921-1.87,1.019-2.664
		c0.063-0.514-0.446-1.314-1.215-1.491c-0.902-0.207-1.575,0.323-1.742,0.812c-0.259,0.758-0.246,2.843-0.246,2.843l-1.648-0.379
		c-0.642-0.147-1.279,0.253-1.426,0.893l-1.859,8.103c-0.113,0.49,0.193,0.98,0.683,1.096l0.272,0.062l-2.101,9.149
		c-0.975,0.324-1.15,0.722-1.15,0.722l3.432,0.787L524.841,301.66z"/>
	<path fill="#FFFFFF" d="M473.891,178.518h-3.521c0,0,0.084,0.427,0.962,0.961v9.387l-0.28,0.001
		c-0.503,0.002-0.91,0.411-0.91,0.914v8.313c0,0.657,0.532,1.188,1.189,1.188h1.691c0,0-0.479,2.029-0.396,2.825
		c0.053,0.514,0.728,1.181,1.517,1.181c0.926,0,1.463-0.667,1.516-1.181c0.083-0.796-0.396-2.825-0.396-2.825h1.692
		c0.656,0,1.189-0.531,1.189-1.188v-8.313c0-0.503-0.408-0.912-0.911-0.914l-0.279-0.001v-9.387
		c0.878-0.534,0.961-0.961,0.961-0.961h-3.521H473.891z"/>
	<line fill="none" x1="-53.02" y1="4124.074" x2="-53.02" y2="-55.333"/>
	<line fill="none" x1="714.98" y1="-55.333" x2="714.98" y2="4124.074"/>
	<path fill="#FFFFFF" d="M400.746,441.458h3.545c0,0-0.231-0.781-2.106-1.156l-5.503-6.427l-0.004-8.329
		c0-0.661-0.536-1.197-1.197-1.197h-0.502c0,0,0.482-2.043,0.398-2.844c-0.053-0.518-0.731-1.189-1.526-1.189
		c-0.933,0-1.474,0.672-1.527,1.189c-0.083,0.801,0.399,2.844,0.399,2.844h-0.515c-0.661,0-1.196,0.536-1.196,1.197l0.008,8.329
		l6.644,7.583h2.576H400.746z"/>
	<path fill="#FFFFFF" d="M80.591,542.386l3.536,0.248c0,0-0.053-0.435-0.897-1.032l0.66-9.427l0.281,0.018
		c0.506,0.034,0.943-0.348,0.979-0.854l0.584-8.35c0.047-0.659-0.451-1.23-1.11-1.277l-1.7-0.119c0,0,0.624-2.004,0.597-2.81
		c-0.017-0.52-0.648-1.237-1.44-1.293c-0.931-0.065-1.517,0.567-1.607,1.08c-0.139,0.793,0.199,2.865,0.199,2.865l-1.699-0.119
		c-0.66-0.046-1.232,0.451-1.278,1.11l-0.585,8.349c-0.035,0.506,0.345,0.945,0.851,0.983l0.28,0.02l-0.66,9.427
		c-0.919,0.475-1.033,0.898-1.033,0.898l3.537,0.248L80.591,542.386z"/>
	<path fill="#FFFFFF" d="M350.428,537.125l3.536,0.248c0,0-0.053-0.436-0.896-1.033l0.659-9.428l0.281,0.019
		c0.506,0.034,0.943-0.349,0.979-0.854l0.584-8.349c0.047-0.659-0.451-1.231-1.11-1.278l-1.7-0.119c0,0,0.624-2.004,0.598-2.809
		c-0.018-0.52-0.648-1.236-1.44-1.293c-0.931-0.064-1.517,0.567-1.606,1.08c-0.14,0.793,0.198,2.865,0.198,2.865l-1.698-0.119
		c-0.66-0.046-1.232,0.451-1.278,1.109l-0.585,8.35c-0.035,0.506,0.345,0.945,0.851,0.982l0.28,0.021l-0.66,9.427
		c-0.919,0.475-1.033,0.897-1.033,0.897l3.537,0.248L350.428,537.125z"/>
	<path fill="#FFFFFF" d="M420.178,537.125l3.536,0.248c0,0-0.053-0.436-0.896-1.033l0.659-9.428l0.281,0.019
		c0.506,0.034,0.943-0.349,0.979-0.854l0.584-8.349c0.047-0.659-0.451-1.231-1.11-1.278l-1.7-0.119c0,0,0.624-2.004,0.598-2.809
		c-0.018-0.52-0.648-1.236-1.44-1.293c-0.931-0.064-1.517,0.567-1.606,1.08c-0.14,0.793,0.198,2.865,0.198,2.865l-1.698-0.119
		c-0.66-0.046-1.232,0.451-1.278,1.109l-0.585,8.35c-0.035,0.506,0.345,0.945,0.851,0.982l0.28,0.021l-0.66,9.427
		c-0.919,0.475-1.033,0.897-1.033,0.897l3.537,0.248L420.178,537.125z"/>
	<path fill="#FFFFFF" d="M435.16,537.035l3.523-0.387c0,0-0.13-0.419-1.066-0.856l-1.032-9.394l0.279-0.032
		c0.504-0.057,0.865-0.511,0.811-1.015l-0.914-8.319c-0.072-0.657-0.663-1.132-1.321-1.059l-1.692,0.186
		c0,0,0.256-2.084,0.086-2.871c-0.11-0.509-0.858-1.102-1.648-1.015c-0.927,0.102-1.391,0.828-1.388,1.349
		c0.005,0.806,0.707,2.783,0.707,2.783l-1.693,0.187c-0.657,0.071-1.132,0.662-1.06,1.32l0.914,8.319
		c0.055,0.504,0.508,0.868,1.012,0.815l0.28-0.03l1.032,9.394c-0.82,0.631-0.856,1.067-0.856,1.067l3.523-0.388L435.16,537.035z"/>
	<path fill="#FFFFFF" d="M503.66,539.69l3.523-0.387c0,0-0.13-0.419-1.066-0.856l-1.032-9.394l0.278-0.032
		c0.505-0.057,0.866-0.511,0.812-1.015l-0.914-8.319c-0.072-0.657-0.663-1.132-1.321-1.059l-1.692,0.186
		c0,0,0.256-2.084,0.086-2.871c-0.11-0.509-0.858-1.102-1.648-1.015c-0.927,0.102-1.391,0.828-1.388,1.349
		c0.005,0.805,0.707,2.783,0.707,2.783l-1.693,0.186c-0.658,0.072-1.132,0.664-1.06,1.321l0.914,8.319
		c0.055,0.504,0.508,0.868,1.012,0.814l0.28-0.029l1.031,9.394c-0.819,0.63-0.855,1.067-0.855,1.067l3.523-0.387L503.66,539.69z"/>
	<path fill="#FFFFFF" d="M127.247,545.44l3.536,0.248c0,0-0.053-0.435-0.897-1.033l0.66-9.427l0.281,0.018
		c0.506,0.034,0.943-0.348,0.979-0.854l0.584-8.35c0.047-0.658-0.451-1.231-1.11-1.277l-1.7-0.119c0,0,0.624-2.004,0.597-2.809
		c-0.017-0.521-0.648-1.237-1.44-1.293c-0.931-0.065-1.517,0.566-1.607,1.08c-0.139,0.793,0.199,2.864,0.199,2.864l-1.699-0.12
		c-0.66-0.046-1.232,0.452-1.278,1.111l-0.585,8.35c-0.035,0.506,0.345,0.944,0.851,0.982l0.28,0.02l-0.66,9.428
		c-0.919,0.474-1.033,0.897-1.033,0.897l3.537,0.248L127.247,545.44z"/>
	<path fill="#FFFFFF" d="M169.508,545.826l3.536,0.248c0,0-0.053-0.435-0.897-1.033l0.66-9.427l0.281,0.019
		c0.506,0.033,0.943-0.349,0.979-0.854l0.584-8.349c0.047-0.659-0.451-1.232-1.11-1.278l-1.7-0.119c0,0,0.624-2.004,0.597-2.809
		c-0.017-0.521-0.648-1.237-1.44-1.293c-0.931-0.065-1.517,0.567-1.607,1.08c-0.139,0.793,0.199,2.864,0.199,2.864l-1.699-0.119
		c-0.66-0.047-1.232,0.451-1.278,1.11l-0.585,8.35c-0.035,0.506,0.345,0.944,0.851,0.982l0.28,0.021l-0.66,9.427
		c-0.919,0.474-1.033,0.897-1.033,0.897l3.537,0.248L169.508,545.826z"/>
	<path fill="#FFFFFF" d="M192.358,545.384l3.529-0.334c0,0-0.124-0.421-1.054-0.872l-0.891-9.408l0.279-0.028
		c0.505-0.05,0.874-0.498,0.827-1.002l-0.79-8.332c-0.062-0.658-0.646-1.142-1.305-1.08l-1.696,0.162c0,0,0.288-2.08,0.129-2.869
		c-0.102-0.511-0.841-1.115-1.632-1.041c-0.929,0.089-1.404,0.809-1.409,1.328c-0.007,0.807,0.666,2.795,0.666,2.795l-1.696,0.159
		c-0.658,0.063-1.141,0.647-1.079,1.306l0.789,8.332c0.048,0.505,0.495,0.876,1,0.83l0.28-0.025l0.891,9.408
		c-0.829,0.617-0.872,1.054-0.872,1.054l3.53-0.334L192.358,545.384z"/>
	<path fill="#FFFFFF" d="M288.088,541.426l3.529-0.334c0,0-0.124-0.421-1.054-0.872l-0.891-9.408l0.279-0.027
		c0.505-0.051,0.874-0.498,0.827-1.004l-0.79-8.332c-0.062-0.657-0.646-1.141-1.305-1.078l-1.696,0.16c0,0,0.288-2.078,0.129-2.869
		c-0.102-0.51-0.842-1.114-1.632-1.039c-0.929,0.088-1.404,0.808-1.409,1.328c-0.007,0.805,0.666,2.793,0.666,2.793l-1.696,0.16
		c-0.658,0.063-1.142,0.647-1.079,1.306l0.789,8.332c0.048,0.505,0.495,0.876,1,0.829l0.28-0.024l0.891,9.408
		c-0.829,0.618-0.872,1.054-0.872,1.054l3.53-0.334L288.088,541.426z"/>
	<path fill="#FFFFFF" d="M295.665,539.904l3.541,0.169c0,0-0.063-0.434-0.92-1.013l0.452-9.438l0.28,0.012
		c0.507,0.022,0.936-0.37,0.961-0.876l0.4-8.359c0.031-0.66-0.479-1.222-1.139-1.254l-1.702-0.08c0,0,0.579-2.018,0.535-2.822
		c-0.029-0.52-0.675-1.223-1.469-1.26c-0.931-0.045-1.504,0.6-1.582,1.113c-0.122,0.797,0.262,2.86,0.262,2.86l-1.701-0.081
		c-0.661-0.032-1.222,0.479-1.253,1.138l-0.4,8.36c-0.025,0.506,0.365,0.937,0.872,0.963l0.28,0.015l-0.451,9.439
		c-0.909,0.495-1.013,0.92-1.013,0.92l3.541,0.17L295.665,539.904z"/>
	<path fill="#FFFFFF" d="M212.529,545.455l3.538,0.226c0,0-0.056-0.434-0.904-1.026l0.603-9.432l0.281,0.018
		c0.506,0.029,0.942-0.354,0.974-0.86l0.535-8.352c0.042-0.66-0.459-1.229-1.119-1.271l-1.7-0.108c0,0,0.612-2.009,0.58-2.813
		c-0.021-0.521-0.656-1.233-1.448-1.284c-0.931-0.06-1.514,0.576-1.6,1.089c-0.135,0.794,0.216,2.864,0.216,2.864l-1.7-0.109
		c-0.66-0.043-1.229,0.459-1.271,1.118l-0.535,8.353c-0.032,0.506,0.351,0.942,0.857,0.978l0.28,0.02l-0.603,9.431
		c-0.916,0.479-1.027,0.903-1.027,0.903l3.538,0.227L212.529,545.455z"/>
	<path fill="#FFFFFF" d="M273.641,391.142c-0.505-0.045-0.878-0.491-0.834-0.996l0.727-8.338c0.057-0.658,0.638-1.146,1.296-1.088
		l1.698,0.147c0,0-0.303-2.077-0.151-2.868c0.099-0.511,0.834-1.121,1.625-1.052c0.929,0.081,1.409,0.797,1.418,1.317
		c0.013,0.805-0.644,2.798-0.644,2.798l0.493,0.043c0.146,0.013,0.283,0.053,0.408,0.112l0.529-6.063
		c0.041-0.479,0.444-0.837,0.917-0.837l0.076,0.007c0.465,0.081,0.8,0.503,0.759,0.981l-0.727,8.339
		c-0.079,0.905-0.338,1.15-0.944,1.116v0.002c-0.012,0-0.024-0.002-0.036-0.004c-0.012,0-0.023,0-0.036-0.002v-0.002
		c-0.02-0.002-0.039-0.006-0.059-0.009l-0.595,6.913l-0.82,9.414c0.834,0.612,0.88,1.048,0.88,1.048l-3.532-0.308l-0.505-0.044
		l-3.531-0.308c0,0,0.121-0.422,1.048-0.88l0.82-9.415L273.641,391.142z"/>
	<path fill="#FFFFFF" d="M327.749,446.902c0.505-0.046,0.878-0.492,0.834-0.997l-0.727-8.337c-0.057-0.659-0.638-1.146-1.297-1.089
		l-1.697,0.147c0,0,0.303-2.076,0.151-2.867c-0.099-0.512-0.834-1.121-1.625-1.053c-0.929,0.082-1.409,0.797-1.418,1.317
		c-0.013,0.805,0.644,2.798,0.644,2.798l-0.493,0.044c-0.146,0.013-0.283,0.052-0.408,0.111l-0.529-6.063
		c-0.042-0.479-0.444-0.837-0.917-0.837l-0.076,0.007c-0.465,0.082-0.8,0.504-0.759,0.983l0.727,8.337
		c0.079,0.905,0.338,1.151,0.944,1.118v0.001c0.012-0.001,0.024-0.002,0.036-0.004c0.012-0.001,0.023-0.001,0.036-0.002v-0.002
		c0.02-0.002,0.039-0.006,0.059-0.01l0.595,6.914l0.82,9.414c-0.834,0.611-0.88,1.047-0.88,1.047l3.532-0.307l0.505-0.045
		l3.531-0.307c0,0-0.121-0.422-1.048-0.88l-0.82-9.414L327.749,446.902z"/>
	<path fill="#FFFFFF" d="M560.004,417.32c0.498-0.094,0.827-0.572,0.736-1.07l-1.513-8.232c-0.119-0.649-0.743-1.08-1.393-0.961
		l-1.676,0.308c0,0,0.104-2.097-0.121-2.869c-0.146-0.499-0.937-1.037-1.718-0.894c-0.917,0.168-1.327,0.926-1.286,1.445
		c0.062,0.803,0.905,2.725,0.905,2.725l-0.487,0.09c-0.145,0.026-0.276,0.078-0.396,0.149l-1.099-5.985
		c-0.087-0.475-0.522-0.791-0.993-0.746l-0.074,0.013c-0.456,0.126-0.75,0.577-0.663,1.05l1.511,8.232
		c0.164,0.894,0.445,1.113,1.047,1.022v0.002c0.012-0.002,0.022-0.005,0.034-0.007c0.013-0.002,0.023-0.004,0.036-0.006
		l-0.001-0.002c0.021-0.004,0.039-0.009,0.059-0.014l1.246,6.824l1.707,9.295c-0.773,0.688-0.777,1.127-0.777,1.127l3.487-0.641
		l0.498-0.091l3.486-0.64c0,0-0.161-0.409-1.127-0.777l-1.706-9.295L560.004,417.32z"/>
	<path fill="#FFFFFF" d="M204.487,533.685c0.507,0.022,0.936-0.368,0.961-0.875l0.412-8.359c0.033-0.66-0.476-1.222-1.137-1.254
		l-1.702-0.084c0,0,0.583-2.018,0.539-2.821c-0.028-0.519-0.674-1.223-1.467-1.263c-0.931-0.045-1.505,0.599-1.584,1.113
		c-0.122,0.796,0.259,2.859,0.259,2.859l-0.495-0.024c-0.147-0.007-0.287,0.014-0.419,0.056l0.299-6.079
		c0.024-0.481-0.327-0.889-0.795-0.954l-0.076-0.003c-0.473,0.019-0.862,0.39-0.885,0.87l-0.412,8.359
		c-0.045,0.908,0.178,1.187,0.783,1.235v0.001c0.013,0.001,0.024,0.001,0.036,0.001c0.012,0.001,0.024,0.002,0.036,0.003v-0.002
		c0.021,0.001,0.04,0,0.06,0l-0.349,6.93l-0.465,9.438c-0.909,0.494-1.014,0.919-1.014,0.919l3.541,0.175l0.506,0.024l3.541,0.175
		c0,0-0.063-0.434-0.919-1.014l0.465-9.439L204.487,533.685z"/>
	<path fill="#FFFFFF" d="M133.771,533.119c-0.503-0.062-0.861-0.52-0.801-1.024l1-8.309c0.078-0.657,0.675-1.125,1.331-1.046
		l1.692,0.204c0,0-0.235-2.087-0.057-2.871c0.115-0.509,0.87-1.095,1.658-0.999c0.926,0.111,1.383,0.843,1.375,1.363
		c-0.014,0.806-0.736,2.775-0.736,2.775l0.492,0.059c0.145,0.019,0.281,0.062,0.404,0.125l0.727-6.043
		c0.057-0.477,0.471-0.82,0.944-0.806l0.075,0.009c0.463,0.098,0.784,0.53,0.727,1.008l-1,8.309c-0.108,0.903-0.375,1.14-0.98,1.087
		v0.001c-0.012-0.001-0.023-0.003-0.035-0.005c-0.013-0.001-0.024-0.002-0.036-0.003v-0.002c-0.02-0.003-0.039-0.007-0.059-0.012
		l-0.821,6.891l-1.128,9.382c0.813,0.64,0.845,1.076,0.845,1.076l-3.52-0.423l-0.503-0.061l-3.519-0.424
		c0,0,0.134-0.417,1.076-0.845l1.128-9.382L133.771,533.119z"/>
	<path fill="#FFFFFF" d="M250.196,533.671c0.506,0.03,0.942-0.354,0.974-0.86l0.531-8.353c0.042-0.66-0.459-1.229-1.119-1.271
		l-1.7-0.108c0,0,0.611-2.008,0.579-2.812c-0.021-0.521-0.656-1.233-1.449-1.283c-0.931-0.061-1.513,0.576-1.6,1.09
		c-0.134,0.794,0.218,2.863,0.218,2.863l-0.495-0.032c-0.146-0.009-0.287,0.01-0.42,0.05l0.387-6.075
		c0.03-0.479-0.315-0.893-0.782-0.964l-0.076-0.005c-0.472,0.011-0.867,0.378-0.897,0.858l-0.531,8.352
		c-0.058,0.907,0.161,1.189,0.765,1.247v0.002c0.013,0,0.024,0,0.036,0.001c0.012,0.001,0.023,0.002,0.036,0.003v-0.002
		c0.021,0.001,0.04,0,0.06,0l-0.448,6.924l-0.6,9.432c-0.916,0.479-1.027,0.903-1.027,0.903l3.538,0.226l0.506,0.032l3.538,0.225
		c0,0-0.057-0.434-0.904-1.027l0.599-9.431L250.196,533.671z"/>
	<path fill="#FFFFFF" d="M322.735,526.306c0.505-0.049,0.875-0.497,0.828-1.002l-0.775-8.334c-0.061-0.657-0.644-1.143-1.303-1.08
		l-1.696,0.156c0,0,0.291-2.078,0.134-2.867c-0.101-0.511-0.84-1.116-1.631-1.043c-0.928,0.087-1.405,0.805-1.41,1.325
		c-0.009,0.806,0.66,2.794,0.66,2.794l-0.493,0.047c-0.146,0.014-0.283,0.054-0.407,0.113l-0.564-6.06
		c-0.044-0.479-0.449-0.834-0.922-0.831l-0.076,0.007c-0.465,0.084-0.797,0.508-0.753,0.987l0.775,8.333
		c0.084,0.905,0.344,1.148,0.95,1.112v0.002c0.013-0.002,0.024-0.004,0.036-0.005c0.012-0.001,0.024-0.002,0.036-0.003v-0.002
		c0.02-0.002,0.039-0.006,0.059-0.009l0.635,6.909l0.874,9.41c-0.83,0.615-0.873,1.053-0.873,1.053l3.53-0.328l0.504-0.047
		l3.53-0.328c0,0-0.124-0.421-1.053-0.874l-0.875-9.41L322.735,526.306z"/>
	<path fill="#FFFFFF" d="M477.484,526.306c0.505-0.049,0.875-0.497,0.828-1.002l-0.774-8.334c-0.062-0.657-0.645-1.143-1.304-1.08
		l-1.695,0.156c0,0,0.291-2.078,0.134-2.867c-0.102-0.511-0.84-1.116-1.631-1.043c-0.929,0.087-1.405,0.805-1.41,1.325
		c-0.009,0.806,0.66,2.794,0.66,2.794l-0.493,0.047c-0.146,0.014-0.283,0.054-0.408,0.113l-0.562-6.06
		c-0.045-0.479-0.449-0.834-0.923-0.831l-0.075,0.007c-0.466,0.084-0.798,0.508-0.754,0.987l0.775,8.333
		c0.084,0.905,0.344,1.148,0.95,1.112v0.002c0.013-0.002,0.023-0.004,0.036-0.005c0.012-0.001,0.023-0.002,0.036-0.003v-0.002
		c0.02-0.002,0.039-0.006,0.059-0.009l0.635,6.909l0.875,9.41c-0.831,0.615-0.874,1.053-0.874,1.053l3.53-0.328l0.504-0.047
		l3.53-0.328c0,0-0.124-0.421-1.053-0.874l-0.875-9.41L477.484,526.306z"/>
	<path fill="#FFFFFF" d="M380.234,526.306c0.505-0.049,0.875-0.497,0.828-1.002l-0.774-8.334c-0.062-0.657-0.645-1.143-1.304-1.08
		l-1.695,0.156c0,0,0.291-2.078,0.134-2.867c-0.102-0.511-0.84-1.116-1.631-1.043c-0.929,0.087-1.405,0.805-1.41,1.325
		c-0.009,0.806,0.66,2.794,0.66,2.794l-0.493,0.047c-0.146,0.014-0.283,0.054-0.407,0.113l-0.563-6.06
		c-0.045-0.479-0.449-0.834-0.923-0.831l-0.075,0.007c-0.466,0.084-0.798,0.508-0.754,0.987l0.775,8.333
		c0.084,0.905,0.344,1.148,0.95,1.112v0.002c0.013-0.002,0.023-0.004,0.036-0.005c0.012-0.001,0.023-0.002,0.036-0.003v-0.002
		c0.02-0.002,0.039-0.006,0.059-0.009l0.635,6.909l0.874,9.41c-0.83,0.615-0.873,1.053-0.873,1.053l3.53-0.328l0.504-0.047
		l3.53-0.328c0,0-0.124-0.421-1.053-0.874l-0.875-9.41L380.234,526.306z"/>
	<path fill="#FFFFFF" d="M394.27,526.306c-0.505-0.049-0.875-0.497-0.828-1.002l0.775-8.334c0.061-0.657,0.644-1.143,1.303-1.08
		l1.696,0.156c0,0-0.291-2.078-0.135-2.867c0.102-0.511,0.84-1.116,1.631-1.043c0.929,0.087,1.405,0.805,1.41,1.325
		c0.01,0.806-0.66,2.794-0.66,2.794l0.493,0.047c0.146,0.014,0.283,0.054,0.408,0.113l0.563-6.06
		c0.044-0.479,0.448-0.834,0.922-0.831l0.076,0.007c0.465,0.084,0.797,0.508,0.753,0.987l-0.775,8.333
		c-0.084,0.905-0.344,1.148-0.95,1.112v0.002c-0.013-0.002-0.023-0.004-0.036-0.005c-0.012-0.001-0.023-0.002-0.035-0.003v-0.002
		c-0.021-0.002-0.039-0.006-0.06-0.009l-0.635,6.909l-0.874,9.41c0.83,0.615,0.873,1.053,0.873,1.053l-3.53-0.328l-0.504-0.047
		l-3.53-0.328c0,0,0.124-0.421,1.054-0.874l0.875-9.41L394.27,526.306z"/>
	<path fill="#FFFFFF" d="M67.514,525.376c0.012-0.001,0.023-0.002,0.036-0.004v-0.002c0.599-0.096,0.799-0.393,0.683-1.293
		l-1.073-8.3c-0.061-0.478-0.479-0.818-0.951-0.798l-0.075,0.01c-0.462,0.101-0.779,0.536-0.718,1.013l0.78,6.039
		c-0.136-0.033-0.281-0.043-0.428-0.024l-0.486,0.063c0,0,0.217-2.088,0.032-2.871c-0.12-0.507-0.88-1.086-1.667-0.983
		c-0.925,0.118-1.376,0.854-1.363,1.375c0.021,0.805,0.761,2.769,0.761,2.769l-0.492,0.063c-0.145,0.019-0.28,0.064-0.403,0.129
		l-0.78-6.036c-0.062-0.478-0.479-0.817-0.951-0.798l-0.075,0.01c-0.462,0.101-0.78,0.536-0.718,1.013l1.073,8.3
		c0.116,0.902,0.385,1.137,0.989,1.078v0.002c0.013-0.002,0.024-0.004,0.036-0.006c0.012-0.001,0.023-0.002,0.036-0.004
		l-0.001-0.002c0.021-0.003,0.04-0.007,0.059-0.011l0.882,6.882l1.211,9.372c-0.808,0.646-0.836,1.084-0.836,1.084l3.516-0.454
		l0.503-0.065l3.515-0.454c0,0-0.138-0.416-1.083-0.836l-1.211-9.371l-0.901-6.881c0.021-0.001,0.042-0.002,0.064-0.004v0.001
		C67.491,525.38,67.502,525.378,67.514,525.376"/>
	<path fill="#FFFFFF" d="M164.867,526.323c0.012-0.001,0.023-0.001,0.036-0.002v-0.002c0.602-0.073,0.814-0.362,0.731-1.267
		l-0.757-8.334c-0.044-0.48-0.448-0.835-0.921-0.834l-0.075,0.007c-0.466,0.084-0.799,0.506-0.756,0.986l0.552,6.062
		c-0.136-0.037-0.28-0.053-0.428-0.039l-0.487,0.044c0,0,0.295-2.078,0.139-2.867c-0.1-0.512-0.837-1.118-1.628-1.047
		c-0.929,0.084-1.407,0.803-1.413,1.323c-0.011,0.806,0.654,2.795,0.654,2.795l-0.493,0.045c-0.146,0.015-0.283,0.054-0.408,0.113
		l-0.551-6.062c-0.043-0.479-0.448-0.834-0.92-0.832l-0.076,0.007c-0.465,0.083-0.799,0.506-0.755,0.984l0.758,8.335
		c0.082,0.905,0.342,1.15,0.948,1.114v0.002c0.012-0.001,0.024-0.003,0.036-0.004c0.012-0.001,0.023-0.001,0.036-0.003l-0.001-0.002
		c0.021-0.002,0.04-0.005,0.059-0.008l0.621,6.91l0.856,9.41c-0.831,0.615-0.876,1.052-0.876,1.052l3.531-0.321l0.504-0.046
		l3.531-0.321c0,0-0.123-0.42-1.052-0.876l-0.855-9.411l-0.64-6.908c0.021,0,0.042,0,0.064-0.002v0.002
		C164.844,526.326,164.854,526.324,164.867,526.323"/>
	<path fill="#FFFFFF" d="M240.126,526.335c0.012-0.001,0.023-0.001,0.036-0.002v-0.002c0.602-0.074,0.814-0.361,0.731-1.267
		l-0.757-8.335c-0.044-0.479-0.448-0.834-0.921-0.833l-0.075,0.007c-0.466,0.084-0.799,0.506-0.756,0.985l0.552,6.063
		c-0.136-0.037-0.28-0.053-0.428-0.039l-0.487,0.044c0,0,0.295-2.077,0.139-2.868c-0.1-0.511-0.837-1.117-1.628-1.046
		c-0.929,0.085-1.407,0.802-1.413,1.322c-0.011,0.806,0.654,2.796,0.654,2.796l-0.493,0.045c-0.146,0.014-0.283,0.055-0.408,0.113
		l-0.551-6.061c-0.043-0.479-0.448-0.836-0.92-0.834l-0.076,0.008c-0.465,0.083-0.799,0.506-0.755,0.984l0.758,8.336
		c0.082,0.904,0.342,1.149,0.948,1.113v0.002c0.012-0.001,0.024-0.003,0.036-0.004c0.012-0.001,0.023-0.002,0.036-0.003
		l-0.001-0.002c0.021-0.002,0.04-0.005,0.059-0.009l0.621,6.91l0.856,9.412c-0.831,0.614-0.876,1.051-0.876,1.051l3.531-0.321
		l0.504-0.046l3.531-0.321c0,0-0.123-0.421-1.052-0.876l-0.855-9.411l-0.64-6.909c0.021,0,0.042,0,0.064-0.002v0.002
		C240.103,526.339,240.114,526.337,240.126,526.335"/>
	<path fill="#FFFFFF" d="M266.771,523.447c0.012,0.002,0.023,0.004,0.036,0.006v-0.002c0.604,0.059,0.873-0.176,0.99-1.077
		l1.082-8.299c0.062-0.478-0.255-0.912-0.717-1.015l-0.075-0.01c-0.472-0.02-0.89,0.32-0.952,0.797l-0.787,6.038
		c-0.124-0.065-0.261-0.112-0.408-0.132l-0.486-0.062c0,0,0.742-1.965,0.763-2.77c0.014-0.52-0.573-1.273-1.36-1.376
		c-0.925-0.121-1.548,0.476-1.668,0.981c-0.186,0.783,0.028,2.871,0.028,2.871l-0.492-0.063c-0.145-0.019-0.287-0.01-0.422,0.021
		l0.786-6.035c0.063-0.477-0.254-0.911-0.716-1.014l-0.075-0.01c-0.472-0.02-0.89,0.32-0.952,0.797l-1.082,8.299
		c-0.117,0.901,0.083,1.197,0.682,1.295v0.002c0.012,0,0.024,0.002,0.036,0.004c0.012,0,0.023,0.004,0.035,0.005v-0.003
		c0.021,0.003,0.04,0.004,0.06,0.005l-0.904,6.88l-1.221,9.37c-0.945,0.419-1.084,0.835-1.084,0.835l3.515,0.458l0.503,0.064
		l3.515,0.458c0,0-0.028-0.437-0.834-1.084l1.221-9.371l0.884-6.882c0.021,0.004,0.041,0.009,0.063,0.013v0.002
		C266.749,523.445,266.76,523.445,266.771,523.447"/>
	<path fill="#FFFFFF" d="M342.299,521.073c0.012-0.001,0.023-0.001,0.036-0.002v-0.002c0.602-0.073,0.813-0.362,0.73-1.267
		l-0.757-8.334c-0.044-0.48-0.447-0.835-0.921-0.834l-0.075,0.007c-0.466,0.084-0.799,0.506-0.756,0.986l0.552,6.062
		c-0.136-0.037-0.279-0.053-0.428-0.039l-0.487,0.044c0,0,0.296-2.078,0.14-2.867c-0.101-0.512-0.837-1.118-1.628-1.047
		c-0.93,0.084-1.407,0.803-1.413,1.323c-0.011,0.806,0.654,2.795,0.654,2.795l-0.493,0.045c-0.146,0.015-0.283,0.054-0.408,0.113
		l-0.551-6.062c-0.043-0.479-0.448-0.834-0.92-0.832l-0.076,0.007c-0.465,0.083-0.799,0.506-0.755,0.984l0.758,8.335
		c0.082,0.905,0.342,1.15,0.948,1.114v0.002c0.012-0.001,0.023-0.003,0.035-0.004c0.013-0.001,0.023-0.001,0.036-0.003l-0.001-0.002
		c0.021-0.002,0.04-0.005,0.06-0.008l0.621,6.91l0.855,9.41c-0.831,0.615-0.876,1.052-0.876,1.052l3.531-0.321l0.504-0.046
		l3.531-0.321c0,0-0.123-0.42-1.053-0.876l-0.854-9.411l-0.64-6.908c0.021,0,0.042,0,0.063-0.002v0.002
		C342.275,521.076,342.287,521.074,342.299,521.073"/>
	<path fill="#FFFFFF" d="M310.455,523.194c0.012,0.001,0.023,0.002,0.036,0.003v-0.002c0.607,0.009,0.855-0.248,0.897-1.156
		l0.384-8.359c0.022-0.481-0.33-0.889-0.799-0.951l-0.075-0.004c-0.473,0.02-0.861,0.394-0.883,0.875l-0.279,6.082
		c-0.129-0.057-0.269-0.092-0.418-0.099l-0.489-0.021c0,0,0.575-2.02,0.529-2.823c-0.03-0.52-0.678-1.221-1.471-1.258
		c-0.932-0.042-1.503,0.604-1.58,1.117c-0.12,0.798,0.268,2.859,0.268,2.859l-0.495-0.021c-0.147-0.008-0.287,0.014-0.419,0.056
		l0.279-6.08c0.022-0.479-0.33-0.888-0.799-0.95l-0.075-0.004c-0.473,0.02-0.861,0.393-0.883,0.874l-0.384,8.36
		c-0.041,0.908,0.183,1.186,0.788,1.232v0.002c0.012,0,0.024,0,0.036,0c0.012,0.002,0.023,0.002,0.036,0.004v-0.002
		c0.02,0,0.04-0.002,0.06-0.002l-0.326,6.932l-0.433,9.439c-0.908,0.496-1.011,0.922-1.011,0.922l3.541,0.162l0.506,0.024
		l3.541,0.162c0,0-0.064-0.433-0.922-1.011l0.434-9.44l0.306-6.931c0.021,0.002,0.042,0.005,0.064,0.007v0.001
		C310.43,523.194,310.442,523.194,310.455,523.194"/>
	<path fill="#FFFFFF" d="M389.389,520.103c0.012,0.002,0.023,0.003,0.036,0.004v-0.002c0.606,0.009,0.854-0.248,0.896-1.156
		l0.385-8.36c0.021-0.48-0.33-0.888-0.8-0.95l-0.074-0.004c-0.474,0.021-0.861,0.394-0.883,0.874l-0.279,6.082
		c-0.129-0.056-0.27-0.091-0.418-0.098l-0.489-0.022c0,0,0.575-2.019,0.529-2.822c-0.03-0.52-0.679-1.221-1.472-1.258
		c-0.932-0.043-1.503,0.604-1.579,1.117c-0.12,0.797,0.268,2.859,0.268,2.859l-0.495-0.021c-0.146-0.008-0.287,0.014-0.419,0.056
		l0.279-6.08c0.021-0.48-0.33-0.888-0.799-0.95L384,509.367c-0.474,0.02-0.861,0.393-0.883,0.874l-0.385,8.36
		c-0.041,0.907,0.184,1.186,0.788,1.232v0.002c0.013,0,0.024,0,0.036,0c0.012,0.001,0.023,0.002,0.036,0.003v-0.002
		c0.021,0,0.04-0.001,0.06-0.001l-0.325,6.932l-0.434,9.439c-0.908,0.496-1.011,0.922-1.011,0.922l3.541,0.162l0.506,0.024
		l3.541,0.161c0,0-0.064-0.433-0.922-1.01l0.434-9.44l0.307-6.931c0.021,0.002,0.042,0.004,0.063,0.006v0.002
		C389.365,520.103,389.377,520.103,389.389,520.103"/>
	<path fill="#FFFFFF" d="M464.139,518.853c0.012,0.002,0.023,0.003,0.036,0.004v-0.002c0.606,0.009,0.854-0.248,0.897-1.156
		l0.384-8.36c0.021-0.48-0.33-0.888-0.8-0.95l-0.074-0.004c-0.474,0.021-0.86,0.394-0.883,0.874l-0.279,6.082
		c-0.129-0.056-0.27-0.091-0.418-0.098l-0.489-0.022c0,0,0.575-2.019,0.529-2.822c-0.03-0.52-0.679-1.221-1.472-1.258
		c-0.932-0.043-1.503,0.604-1.579,1.117c-0.12,0.797,0.268,2.859,0.268,2.859l-0.495-0.021c-0.146-0.008-0.287,0.014-0.419,0.056
		l0.279-6.08c0.021-0.48-0.33-0.888-0.799-0.95l-0.075-0.004c-0.474,0.02-0.861,0.393-0.883,0.874l-0.385,8.36
		c-0.041,0.907,0.184,1.186,0.788,1.232v0.002c0.013,0,0.024,0,0.036,0c0.012,0.001,0.023,0.002,0.036,0.003v-0.002
		c0.021,0,0.04-0.001,0.06-0.001l-0.325,6.932l-0.434,9.439c-0.908,0.496-1.011,0.922-1.011,0.922l3.541,0.162l0.506,0.024
		l3.541,0.161c0,0-0.064-0.433-0.922-1.01l0.434-9.44l0.307-6.931c0.021,0.002,0.042,0.004,0.063,0.006v0.002
		C464.116,518.853,464.127,518.853,464.139,518.853"/>
	<path fill="#FFFFFF" d="M174.208,343.876c-0.002-0.012-0.004-0.022-0.006-0.034H174.2c-0.14-0.589-0.449-0.767-1.337-0.583
		l-8.172,1.679c-0.469,0.097-0.777,0.537-0.722,1.005l0.015,0.074c0.134,0.451,0.59,0.734,1.06,0.638l5.946-1.222
		c-0.023,0.139-0.022,0.283,0.008,0.428l0.098,0.479c0,0-2.091-0.062-2.857,0.181c-0.494,0.157-1.014,0.954-0.854,1.729
		c0.187,0.912,0.951,1.305,1.467,1.254c0.799-0.08,2.697-0.961,2.697-0.961l0.1,0.483c0.029,0.144,0.084,0.274,0.157,0.392
		l-5.943,1.222c-0.47,0.096-0.777,0.536-0.723,1.005l0.015,0.074c0.135,0.451,0.591,0.734,1.061,0.638l8.172-1.679
		c0.887-0.184,1.101-0.467,0.998-1.064h0.002c-0.003-0.012-0.006-0.022-0.008-0.035c-0.003-0.012-0.004-0.022-0.007-0.035h-0.002
		c-0.004-0.02-0.01-0.038-0.015-0.058l6.776-1.385l9.228-1.896c0.702,0.754,1.139,0.75,1.139,0.75l-0.712-3.461l-0.101-0.496
		l-0.712-3.461c0,0-0.403,0.168-0.75,1.14l-9.228,1.896l-6.773,1.404c-0.002-0.021-0.005-0.042-0.009-0.064h0.002
		C174.214,343.9,174.211,343.889,174.208,343.876"/>
	<path fill="#FFFFFF" d="M214.345,401.741c0.012,0.003,0.023,0.006,0.035,0.009v-0.002c0.594,0.119,0.884-0.087,1.089-0.969
		l1.896-8.125c0.108-0.467-0.163-0.931-0.611-1.077l-0.073-0.017c-0.467-0.067-0.915,0.229-1.024,0.695l-1.378,5.911
		c-0.117-0.077-0.248-0.138-0.392-0.172l-0.476-0.11c0,0,0.931-1.873,1.032-2.67c0.065-0.516-0.443-1.32-1.214-1.5
		c-0.905-0.213-1.582,0.317-1.752,0.808c-0.262,0.759-0.256,2.851-0.256,2.851l-0.481-0.111c-0.143-0.033-0.285-0.038-0.421-0.021
		l1.378-5.909c0.109-0.467-0.162-0.931-0.61-1.076l-0.074-0.018c-0.466-0.066-0.914,0.229-1.023,0.696l-1.896,8.124
		c-0.205,0.883-0.036,1.195,0.548,1.352v0.002c0.012,0.002,0.023,0.004,0.035,0.008c0.012,0.002,0.023,0.006,0.035,0.008v-0.002
		c0.02,0.005,0.039,0.008,0.059,0.011l-1.578,6.733l-2.14,9.174c-0.98,0.322-1.158,0.721-1.158,0.721l3.441,0.803l0.492,0.115
		l3.442,0.803c0,0,0.016-0.437-0.721-1.159l2.14-9.174l1.56-6.737c0.02,0.006,0.04,0.012,0.061,0.018v0.002
		C214.322,401.736,214.333,401.738,214.345,401.741"/>
	<path fill="#FFFFFF" d="M472.837,433.148c0.013,0,0.023,0,0.036,0v-0.002c0.604-0.041,0.829-0.316,0.795-1.222l-0.31-8.337
		c-0.019-0.48-0.401-0.855-0.872-0.879l-0.075,0.003c-0.468,0.059-0.822,0.462-0.805,0.94l0.226,6.065
		c-0.133-0.044-0.274-0.067-0.423-0.062l-0.488,0.019c0,0,0.405-2.053,0.292-2.848c-0.072-0.514-0.773-1.158-1.564-1.128
		c-0.93,0.034-1.443,0.724-1.479,1.241c-0.053,0.801,0.503,2.818,0.503,2.818l-0.492,0.018c-0.146,0.006-0.285,0.039-0.412,0.091
		l-0.227-6.062c-0.018-0.479-0.4-0.855-0.872-0.878l-0.074,0.003c-0.469,0.058-0.822,0.461-0.806,0.94l0.312,8.336
		c0.033,0.906,0.278,1.164,0.884,1.16v0.002c0.013-0.001,0.024-0.002,0.036-0.002c0.012-0.001,0.023,0,0.036-0.001v-0.002
		c0.02-0.001,0.039-0.004,0.059-0.006l0.25,6.912l0.351,9.414c-0.86,0.567-0.928,1-0.928,1l3.531-0.131l0.505-0.02l3.531-0.132
		c0,0-0.1-0.425-0.999-0.928l-0.352-9.414l-0.269-6.911c0.021,0.001,0.042,0.002,0.063,0.001v0.002
		C472.814,433.15,472.825,433.149,472.837,433.148"/>
	<path fill="#FFFFFF" d="M567.905,345.224c0.001-0.012,0.002-0.022,0.003-0.035h-0.002c0.013-0.605-0.24-0.855-1.145-0.903
		l-8.331-0.446c-0.479-0.025-0.889,0.323-0.954,0.79l-0.004,0.075c0.016,0.471,0.385,0.859,0.863,0.886l6.062,0.324
		c-0.056,0.128-0.092,0.268-0.101,0.416l-0.025,0.488c0,0-2.008-0.589-2.81-0.55c-0.519,0.026-1.223,0.666-1.266,1.457
		c-0.049,0.929,0.59,1.502,1.104,1.584c0.793,0.125,2.852-0.246,2.852-0.246l-0.026,0.493c-0.008,0.146,0.013,0.286,0.054,0.419
		l-6.06-0.324c-0.479-0.025-0.888,0.322-0.953,0.789l-0.004,0.076c0.016,0.47,0.385,0.859,0.864,0.886l8.331,0.444
		c0.904,0.049,1.183-0.172,1.234-0.775h0.002c0.001-0.012,0.001-0.023,0.001-0.035c0.001-0.012,0.002-0.024,0.003-0.036h-0.002
		c0.001-0.021,0-0.04,0-0.06l6.905,0.377l9.407,0.503c0.488,0.907,0.912,1.015,0.912,1.015l0.188-3.529l0.026-0.505l0.189-3.528
		c0,0-0.434,0.061-1.016,0.912l-9.406-0.504l-6.907-0.357c0.002-0.021,0.005-0.041,0.007-0.063h0.002
		C567.905,345.248,567.905,345.237,567.905,345.224"/>
	<path fill="#FFFFFF" d="M136.459,361.294c-0.007-0.01-0.013-0.02-0.02-0.029l-0.002,0.001c-0.366-0.482-0.72-0.519-1.458,0.006
		l-6.797,4.838c-0.391,0.278-0.494,0.806-0.255,1.211l0.044,0.062c0.305,0.358,0.837,0.434,1.227,0.156l4.945-3.52
		c0.036,0.135,0.095,0.268,0.181,0.388l0.283,0.397c0,0-1.938,0.789-2.54,1.32c-0.39,0.343-0.542,1.282-0.083,1.928
		c0.539,0.757,1.397,0.808,1.848,0.553c0.699-0.396,2.079-1.968,2.079-1.968l0.287,0.401c0.084,0.119,0.188,0.218,0.302,0.295
		l-4.943,3.518c-0.391,0.279-0.495,0.805-0.256,1.212l0.044,0.062c0.306,0.358,0.837,0.434,1.228,0.155l6.797-4.838
		c0.738-0.524,0.819-0.872,0.484-1.376l0.001-0.001c-0.007-0.01-0.014-0.019-0.021-0.028s-0.013-0.02-0.02-0.029l-0.002,0.001
		c-0.012-0.017-0.025-0.031-0.037-0.046l5.639-4.006l7.675-5.461c0.947,0.406,1.345,0.227,1.345,0.227l-2.049-2.88l-0.293-0.411
		l-2.049-2.879c0,0-0.301,0.316-0.226,1.345l-7.676,5.462l-5.628,4.021c-0.011-0.019-0.022-0.036-0.034-0.055l0.002-0.001
		C136.473,361.314,136.466,361.305,136.459,361.294"/>
	<path fill="#FFFFFF" d="M115.273,390.487c-0.011-0.005-0.021-0.009-0.033-0.014l-0.001,0.002c-0.57-0.203-0.887-0.04-1.216,0.804
		l-3.033,7.772c-0.174,0.446,0.028,0.943,0.45,1.152l0.071,0.028c0.452,0.132,0.938-0.097,1.112-0.543l2.207-5.655
		c0.104,0.095,0.225,0.173,0.363,0.227l0.455,0.177c0,0-1.188,1.722-1.401,2.497c-0.138,0.5,0.249,1.369,0.987,1.657
		c0.866,0.338,1.612-0.09,1.849-0.551c0.368-0.714,0.66-2.785,0.66-2.785l0.461,0.18c0.136,0.053,0.275,0.078,0.413,0.08
		l-2.205,5.652c-0.175,0.446,0.028,0.943,0.45,1.152l0.07,0.027c0.453,0.133,0.938-0.096,1.113-0.543l3.033-7.772
		c0.329-0.844,0.207-1.178-0.35-1.415v-0.002c-0.011-0.004-0.022-0.008-0.033-0.012c-0.011-0.005-0.022-0.01-0.033-0.014
		l-0.001,0.002c-0.019-0.008-0.038-0.014-0.057-0.02l2.522-6.439l3.424-8.776c1.016-0.179,1.25-0.548,1.25-0.548l-3.293-1.285
		l-0.47-0.184l-3.292-1.284c0,0-0.078,0.43,0.548,1.249l-3.425,8.775l-2.504,6.448c-0.019-0.009-0.038-0.018-0.058-0.026
		l0.001-0.002C115.295,390.495,115.284,390.491,115.273,390.487"/>
	<path fill="#FFFFFF" d="M110.682,425.476c-0.012,0-0.023-0.001-0.036-0.001v0.003c-0.605,0.022-0.839,0.291-0.833,1.196
		l0.056,8.343c0.003,0.48,0.375,0.867,0.845,0.905l0.075-0.001c0.469-0.044,0.836-0.436,0.833-0.916l-0.04-6.068
		c0.131,0.049,0.273,0.075,0.421,0.074l0.488-0.004c0,0-0.467,2.04-0.379,2.838c0.057,0.516,0.738,1.182,1.53,1.176
		c0.93-0.007,1.465-0.68,1.515-1.195c0.077-0.799-0.417-2.832-0.417-2.832l0.494-0.004c0.146-0.001,0.285-0.029,0.414-0.078
		l0.041,6.066c0.003,0.48,0.375,0.867,0.845,0.905l0.075-0.001c0.469-0.044,0.836-0.436,0.833-0.916l-0.056-8.342
		c-0.006-0.906-0.243-1.171-0.848-1.186v-0.002c-0.013,0-0.024,0-0.036,0c-0.012,0-0.024,0-0.036,0v0.002
		c-0.021,0-0.04,0.002-0.059,0.004l-0.039-6.916l-0.063-9.42c0.878-0.543,0.958-0.972,0.958-0.972l-3.534,0.023l-0.505,0.004
		l-3.533,0.022c0,0,0.086,0.43,0.97,0.959l0.063,9.42l0.058,6.916c-0.021,0-0.042-0.002-0.064-0.002v-0.003
		C110.705,425.475,110.694,425.476,110.682,425.476"/>
	<path fill="#FFFFFF" d="M97.958,440.851c-0.012,0-0.023-0.001-0.036-0.001v0.003c-0.605,0.022-0.839,0.291-0.833,1.196l0.056,8.343
		c0.003,0.48,0.375,0.867,0.845,0.905l0.075-0.001c0.469-0.044,0.836-0.436,0.833-0.916l-0.04-6.068
		c0.131,0.049,0.273,0.075,0.421,0.074l0.488-0.004c0,0-0.467,2.04-0.379,2.838c0.057,0.516,0.738,1.182,1.53,1.176
		c0.93-0.007,1.465-0.68,1.515-1.195c0.077-0.799-0.417-2.832-0.417-2.832l0.494-0.004c0.146-0.001,0.285-0.029,0.414-0.078
		l0.041,6.066c0.003,0.48,0.375,0.867,0.845,0.905l0.075-0.001c0.469-0.044,0.836-0.436,0.833-0.916L104.662,442
		c-0.006-0.906-0.243-1.171-0.848-1.186v-0.002c-0.013,0-0.024,0-0.036,0s-0.024,0-0.036,0v0.002c-0.021,0-0.04,0.002-0.059,0.004
		l-0.039-6.916l-0.063-9.42c0.878-0.543,0.958-0.972,0.958-0.972l-3.534,0.023l-0.505,0.004l-3.533,0.022c0,0,0.086,0.43,0.97,0.959
		l0.063,9.42l0.058,6.916c-0.021,0-0.042-0.002-0.064-0.002v-0.003C97.981,440.85,97.97,440.851,97.958,440.851"/>
	<path fill="#FFFFFF" d="M110.682,459.601c-0.012,0-0.023-0.001-0.036-0.001v0.003c-0.605,0.022-0.839,0.291-0.833,1.196
		l0.056,8.343c0.003,0.48,0.375,0.867,0.845,0.905l0.075-0.001c0.469-0.044,0.836-0.436,0.833-0.916l-0.04-6.068
		c0.131,0.049,0.273,0.075,0.421,0.074l0.488-0.004c0,0-0.467,2.04-0.379,2.838c0.057,0.516,0.738,1.182,1.53,1.176
		c0.93-0.007,1.465-0.68,1.515-1.195c0.077-0.799-0.417-2.832-0.417-2.832l0.494-0.004c0.146-0.001,0.285-0.029,0.414-0.078
		l0.041,6.066c0.003,0.48,0.375,0.867,0.845,0.905l0.075-0.001c0.469-0.044,0.836-0.436,0.833-0.916l-0.056-8.342
		c-0.006-0.906-0.243-1.171-0.848-1.186v-0.002c-0.013,0-0.024,0-0.036,0c-0.012,0-0.024,0-0.036,0v0.002
		c-0.021,0-0.04,0.002-0.059,0.004l-0.039-6.916l-0.063-9.42c0.878-0.543,0.958-0.972,0.958-0.972l-3.534,0.023l-0.505,0.004
		l-3.533,0.022c0,0,0.086,0.43,0.97,0.959l0.063,9.42l0.058,6.916c-0.021,0-0.042-0.002-0.064-0.002V459.6
		C110.705,459.6,110.694,459.601,110.682,459.601"/>
	<path fill="#FFFFFF" d="M97.958,476.726c-0.012,0-0.023-0.001-0.036-0.001v0.003c-0.605,0.022-0.839,0.291-0.833,1.196l0.056,8.343
		c0.003,0.48,0.375,0.867,0.845,0.905l0.075-0.001c0.469-0.044,0.836-0.436,0.833-0.916l-0.04-6.068
		c0.131,0.049,0.273,0.075,0.421,0.074l0.488-0.004c0,0-0.467,2.04-0.379,2.838c0.057,0.516,0.738,1.182,1.53,1.176
		c0.93-0.007,1.465-0.68,1.515-1.195c0.077-0.799-0.417-2.832-0.417-2.832l0.494-0.004c0.146-0.001,0.285-0.029,0.414-0.078
		l0.041,6.066c0.003,0.48,0.375,0.867,0.845,0.905l0.075-0.001c0.469-0.044,0.836-0.436,0.833-0.916l-0.056-8.342
		c-0.006-0.906-0.243-1.171-0.848-1.186v-0.002c-0.013,0-0.024,0-0.036,0s-0.024,0-0.036,0v0.002c-0.021,0-0.04,0.002-0.059,0.004
		l-0.039-6.916l-0.063-9.42c0.878-0.543,0.958-0.972,0.958-0.972l-3.534,0.023l-0.505,0.004l-3.533,0.022c0,0,0.086,0.43,0.97,0.959
		l0.063,9.42l0.058,6.916c-0.021,0-0.042-0.002-0.064-0.002v-0.003C97.981,476.725,97.97,476.726,97.958,476.726"/>
	<path fill="#FFFFFF" d="M110.682,493.976c-0.012,0-0.023-0.001-0.036-0.001v0.003c-0.605,0.022-0.839,0.291-0.833,1.196
		l0.056,8.343c0.003,0.48,0.375,0.867,0.845,0.905l0.075-0.001c0.469-0.044,0.836-0.436,0.833-0.916l-0.04-6.068
		c0.131,0.049,0.273,0.075,0.421,0.074l0.488-0.004c0,0-0.467,2.04-0.379,2.838c0.057,0.516,0.738,1.182,1.53,1.176
		c0.93-0.007,1.465-0.68,1.515-1.195c0.077-0.799-0.417-2.832-0.417-2.832l0.494-0.004c0.146-0.001,0.285-0.029,0.414-0.078
		l0.041,6.066c0.003,0.48,0.375,0.867,0.845,0.905l0.075-0.001c0.469-0.044,0.836-0.436,0.833-0.916l-0.056-8.342
		c-0.006-0.906-0.243-1.171-0.848-1.186v-0.002c-0.013,0-0.024,0-0.036,0c-0.012,0-0.024,0-0.036,0v0.002
		c-0.021,0-0.04,0.002-0.059,0.004l-0.039-6.916l-0.063-9.42c0.878-0.543,0.958-0.972,0.958-0.972l-3.534,0.023l-0.505,0.004
		l-3.533,0.022c0,0,0.086,0.43,0.97,0.959l0.063,9.42l0.058,6.916c-0.021,0-0.042-0.002-0.064-0.002v-0.003
		C110.705,493.975,110.694,493.976,110.682,493.976"/>
	<path fill="#FFFFFF" d="M97.958,512.976c-0.012,0-0.023-0.001-0.036-0.001v0.003c-0.605,0.022-0.839,0.291-0.833,1.196l0.056,8.343
		c0.003,0.48,0.375,0.867,0.845,0.905l0.075-0.001c0.469-0.044,0.836-0.436,0.833-0.916l-0.04-6.068
		c0.131,0.049,0.273,0.075,0.421,0.074l0.488-0.004c0,0-0.467,2.04-0.379,2.838c0.057,0.516,0.738,1.182,1.53,1.176
		c0.93-0.007,1.465-0.68,1.515-1.195c0.077-0.799-0.417-2.832-0.417-2.832l0.494-0.004c0.146-0.001,0.285-0.029,0.414-0.078
		l0.041,6.066c0.003,0.48,0.375,0.867,0.845,0.905l0.075-0.001c0.469-0.044,0.836-0.436,0.833-0.916l-0.056-8.342
		c-0.006-0.906-0.243-1.171-0.848-1.186v-0.002c-0.013,0-0.024,0-0.036,0s-0.024,0-0.036,0v0.002c-0.021,0-0.04,0.002-0.059,0.004
		l-0.039-6.916l-0.063-9.42c0.878-0.543,0.958-0.972,0.958-0.972l-3.534,0.023l-0.505,0.004l-3.533,0.022c0,0,0.086,0.43,0.97,0.959
		l0.063,9.42l0.058,6.916c-0.021,0-0.042-0.002-0.064-0.002v-0.003C97.981,512.975,97.97,512.976,97.958,512.976"/>
	<path fill="#FFFFFF" d="M99.455,404.416c-0.012-0.002-0.023-0.004-0.035-0.006v0.002c-0.6-0.084-0.877,0.139-1.03,1.031
		l-1.41,8.223c-0.081,0.474,0.217,0.92,0.672,1.039l0.075,0.014c0.47,0.039,0.899-0.283,0.98-0.756l1.026-5.982
		c0.121,0.071,0.256,0.123,0.402,0.148l0.481,0.082c0,0-0.818,1.926-0.871,2.727c-0.035,0.518,0.519,1.292,1.3,1.426
		c0.916,0.157,1.561-0.412,1.701-0.91c0.216-0.773,0.087-2.862,0.087-2.862l0.487,0.084c0.144,0.024,0.286,0.021,0.421-0.005
		l-1.025,5.98c-0.081,0.473,0.217,0.919,0.673,1.038l0.074,0.013c0.47,0.039,0.9-0.281,0.981-0.755l1.41-8.223
		c0.153-0.894-0.034-1.196-0.628-1.317l0.001-0.001c-0.013-0.002-0.024-0.004-0.036-0.006c-0.012-0.002-0.023-0.004-0.035-0.006
		v0.001c-0.021-0.002-0.04-0.004-0.059-0.006l1.176-6.816l1.592-9.285c0.958-0.379,1.113-0.787,1.113-0.787l-3.483-0.598
		l-0.497-0.085l-3.484-0.597c0,0,0.01,0.438,0.788,1.113l-1.592,9.285l-1.157,6.818c-0.021-0.004-0.041-0.01-0.063-0.014v-0.002
		C99.478,404.419,99.467,404.418,99.455,404.416"/>
	<path fill="#FFFFFF" d="M112.868,366c-0.01-0.008-0.018-0.015-0.028-0.021l-0.001,0.001c-0.493-0.352-0.842-0.282-1.391,0.439
		l-5.054,6.638c-0.29,0.381-0.233,0.915,0.116,1.231l0.06,0.047c0.399,0.25,0.928,0.164,1.219-0.217l3.677-4.829
		c0.074,0.118,0.169,0.227,0.287,0.316l0.389,0.296c0,0-1.616,1.329-2.034,2.015c-0.27,0.442-0.137,1.386,0.493,1.865
		c0.74,0.563,1.574,0.357,1.93-0.021c0.549-0.586,1.4-2.496,1.4-2.496l0.394,0.299c0.116,0.088,0.243,0.15,0.375,0.191l-3.675,4.826
		c-0.291,0.383-0.233,0.916,0.116,1.232l0.06,0.046c0.398,0.252,0.928,0.166,1.218-0.216l5.054-6.637
		c0.549-0.722,0.523-1.076,0.053-1.459h0.002c-0.01-0.009-0.02-0.015-0.029-0.021c-0.01-0.008-0.019-0.015-0.028-0.023l-0.002,0.002
		c-0.016-0.012-0.033-0.021-0.049-0.032l4.196-5.499l5.706-7.495c1.026,0.106,1.352-0.183,1.352-0.183l-2.812-2.142l-0.401-0.306
		l-2.812-2.142c0,0-0.193,0.393,0.183,1.353l-5.707,7.495l-4.18,5.51c-0.016-0.015-0.032-0.028-0.049-0.042l0.001-0.001
		C112.887,366.014,112.878,366.007,112.868,366"/>
	<path fill="#6D6E71" d="M509.132,304.333c16.096,0,29.144,13.879,29.144,31s-13.048,31-29.144,31H234.581
		c-16.095,0-29.142-13.879-29.142-31s13.047-31,29.142-31H509.132 M509.132,299.333H234.581c-18.826,0-34.142,16.15-34.142,36
		c0,19.851,15.316,36,34.142,36h274.551c18.826,0,34.144-16.149,34.144-36C543.275,315.484,527.958,299.333,509.132,299.333"/>
	<line fill="none" x1="-53.02" y1="4124.074" x2="-53.02" y2="-55.333"/>
	<line fill="none" x1="714.98" y1="-55.333" x2="714.98" y2="4124.074"/>
	<line fill="none" x1="-53.02" y1="4124.074" x2="-53.02" y2="-55.333"/>
	<line fill="none" x1="714.98" y1="-55.333" x2="714.98" y2="4124.074"/>
	<line fill="none" x1="-53.02" y1="4124.074" x2="-53.02" y2="-55.333"/>
	<line fill="none" x1="714.98" y1="-55.333" x2="714.98" y2="4124.074"/>
	<line fill="none" x1="-53.02" y1="4124.074" x2="-53.02" y2="-55.333"/>
	<line fill="none" x1="714.98" y1="-55.333" x2="714.98" y2="4124.074"/>
	<polyline fill="#6D6E71" points="49.094,773.439 56.185,773.439 56.185,741.91 49.094,741.91 	"/>
	<polyline fill="#6D6E71" points="664.263,722.298 664.263,715.208 632.732,715.208 632.732,722.298 	"/>
	<polyline fill="#6D6E71" points="613.227,741.901 606.136,741.901 606.136,773.431 613.227,773.431 	"/>
	<polyline fill="#6D6E71" points="613.227,75.38 606.136,75.38 606.136,106.911 613.227,106.911 	"/>
	<polyline fill="#6D6E71" points="632.741,126.375 632.741,133.465 664.271,133.465 664.271,126.375 	"/>
	<line fill="none" x1="-53.02" y1="4124.074" x2="-53.02" y2="-55.333"/>
	<line fill="none" x1="714.98" y1="-55.333" x2="714.98" y2="4124.074"/>
	<line fill="none" x1="-53.02" y1="4124.074" x2="-53.02" y2="-55.333"/>
	<line fill="none" x1="714.98" y1="-55.333" x2="714.98" y2="4124.074"/>
	<line fill="none" x1="-53.02" y1="4124.074" x2="-53.02" y2="-55.333"/>
	<line fill="none" x1="714.98" y1="-55.333" x2="714.98" y2="4124.074"/>
	<line fill="none" x1="-53.02" y1="4124.074" x2="-53.02" y2="-55.333"/>
	<line fill="none" x1="714.98" y1="-55.333" x2="714.98" y2="4124.074"/>
	<path fill="#6D6E71" d="M27.348,771.237h414.965v2.202h7.091v-2.202h31.201l1.218,0.013h153.032l7.359-0.011
		c11.02-0.017,19.949-8.941,19.971-19.961l0.014-6.874V104.708l-0.011-7.36c-0.018-11.019-8.942-19.949-19.962-19.972l-6.873-0.013
		h-15.414h-73.476c-2.845-8.862-9.515-16.005-18.068-19.491v-9.452h-3.768v-5.946h-4.759v-10.02
		c6.133-1.305,10.997-6.036,12.495-12.095h8.155v-0.679c1.653,5.933,7.402,10.158,14.018,9.402
		c5.918-0.676,10.705-5.477,11.365-11.398c0.873-7.834-5.236-14.468-12.895-14.468c-5.957,0-10.963,4.019-12.488,9.49v-0.38h-8.186
		C530.52,5.239,524.091,0,516.438,0c-7.654,0-14.082,5.239-15.897,12.327h-7.404c-1.698-5.451-6.896-9.359-12.965-9.097
		c-6.65,0.287-12.136,5.799-12.392,12.452c-0.284,7.4,5.63,13.489,12.967,13.489c5.708,0,10.544-3.69,12.281-8.811h7.482
		c1.468,5.931,6.158,10.586,12.108,12.005v10.109h-3.812v5.946h-4.226v9.49h0.016c-8.508,3.501-15.139,10.624-17.973,19.453h-11.423
		l-6.874,0.013c-11.02,0.022-19.944,8.953-19.961,19.972l-0.011,7.36v32.619h-2.084v7.09h31.529v-7.09h-2.084v-5.942v-26.659h14.899
		c2.57,3.748,5.932,6.909,9.845,9.245c4.705,2.81,10.204,4.428,16.083,4.428c10.768,0,20.266-5.418,25.928-13.673h77.467h14.897
		v639.162H487.783v-76.464h2.085v-7.091h-2.085h-27.361h-2.085v7.091h2.085v67.704v8.748h-11.018v-1.967h-7.091v1.967H27.331
		l-7.361,0.011c-11.019,0.016-19.949,8.94-19.97,19.96"/>
	<path fill="#58595B" d="M613.227,749.38c0-0.553-0.447-1-1-1H482.373v-79.722c0-0.552-0.448-1-1-1h-15.75c-0.552,0-1,0.448-1,1
		c0,0-0.071,80.169-0.071,80.722v15.75c0,0.552,0.448,1,1,1h146.675c0.553,0,1-0.448,1-1V749.38z"/>
	<line fill="none" x1="-53.02" y1="4124.074" x2="-53.02" y2="-55.333"/>
	<line fill="none" x1="714.98" y1="-55.333" x2="714.98" y2="4124.074"/>
	<line fill="none" x1="-53.02" y1="4124.074" x2="-53.02" y2="-55.333"/>
	<line fill="none" x1="714.98" y1="-55.333" x2="714.98" y2="4124.074"/>
	<path fill="#FFFFFF" d="M470.575,709.23c-0.013,0-0.023,0-0.036,0v0.002c-0.607,0.018-0.844,0.285-0.845,1.193l-0.011,8.369
		c0,0.481,0.37,0.873,0.842,0.914h0.075c0.472-0.04,0.841-0.431,0.843-0.912l0.007-6.088c0.132,0.049,0.272,0.078,0.422,0.078
		l0.49,0.001c0,0-0.485,2.042-0.403,2.843c0.053,0.519,0.732,1.19,1.526,1.191c0.933,0.001,1.474-0.67,1.528-1.188
		c0.084-0.801-0.396-2.845-0.396-2.845l0.496,0.001c0.146,0,0.286-0.027,0.416-0.075l-0.007,6.086
		c-0.002,0.481,0.368,0.873,0.84,0.914h0.075c0.472-0.04,0.843-0.431,0.843-0.911l0.01-8.369c0.001-0.909-0.235-1.178-0.842-1.196
		v-0.002c-0.013,0-0.024,0.001-0.036,0.001s-0.023-0.001-0.036-0.001v0.002c-0.02,0-0.039,0.002-0.059,0.003l0.015-6.938
		l0.011-9.451c0.885-0.535,0.969-0.965,0.969-0.965l-3.545-0.005l-0.507-0.001l-3.545-0.004c0,0,0.084,0.43,0.967,0.969
		l-0.012,9.449l0.004,6.939c-0.021-0.002-0.042-0.004-0.063-0.004v-0.002C470.598,709.23,470.587,709.23,470.575,709.23"/>
	<path fill="#FFFFFF" d="M476.449,673.905v-0.002c-0.012,0-0.024,0.001-0.036,0.001s-0.023-0.001-0.036-0.001v0.002
		c-0.021,0.001-0.04,0.002-0.06,0.003l0.015-6.249h-5.661l0.004,6.243c-0.021-0.001-0.042-0.003-0.063-0.004v-0.002
		c-0.013,0-0.024,0.001-0.036,0.001s-0.024-0.001-0.036-0.001v0.002c-0.606,0.018-0.844,0.286-0.845,1.193l-0.01,8.369
		c0,0.482,0.368,0.873,0.84,0.914l0.076,0.002c0.471-0.041,0.842-0.432,0.843-0.912l0.007-6.09c0.131,0.051,0.273,0.078,0.422,0.079
		h0.49c0,0-0.485,2.042-0.403,2.843c0.054,0.519,0.732,1.191,1.526,1.191c0.932,0.001,1.474-0.669,1.528-1.187
		c0.085-0.802-0.396-2.845-0.396-2.845h0.496c0.146,0,0.286-0.026,0.416-0.074l-0.008,6.086c0,0.481,0.37,0.873,0.841,0.914h0.076
		c0.47-0.041,0.841-0.431,0.842-0.912l0.01-8.368C477.292,674.193,477.057,673.925,476.449,673.905"/>
	<path fill="#FFFFFF" d="M500.337,760.177c0,0.013-0.001,0.023-0.001,0.036h0.002c0.018,0.607,0.285,0.845,1.193,0.845l8.369,0.011
		c0.481,0,0.873-0.37,0.914-0.841v-0.075c-0.04-0.472-0.43-0.843-0.912-0.843l-6.088-0.008c0.05-0.131,0.078-0.272,0.078-0.422
		l0.001-0.49c0,0,2.042,0.485,2.843,0.403c0.519-0.053,1.19-0.731,1.191-1.526c0.001-0.933-0.67-1.475-1.188-1.528
		c-0.801-0.084-2.844,0.396-2.844,0.396v-0.496c0-0.146-0.027-0.285-0.075-0.416l6.086,0.008c0.481,0.001,0.873-0.369,0.914-0.84
		v-0.076c-0.04-0.472-0.431-0.842-0.911-0.842l-8.369-0.011c-0.909-0.001-1.177,0.235-1.196,0.843h-0.002
		c0,0.012,0.001,0.023,0.001,0.035s-0.001,0.023-0.001,0.036h0.002c0,0.021,0.002,0.04,0.003,0.06l-6.938-0.016l-9.45-0.011
		c-0.536-0.885-0.966-0.969-0.966-0.969l-0.005,3.545l-0.001,0.507l-0.004,3.545c0,0,0.431-0.084,0.969-0.967l9.449,0.012
		l6.939-0.004c-0.002,0.021-0.003,0.042-0.004,0.064h-0.002C500.336,760.155,500.337,760.166,500.337,760.177"/>
	<path fill="#FFFFFF" d="M536.489,760.177c0,0.013-0.001,0.023-0.001,0.036h0.002c0.018,0.607,0.285,0.845,1.194,0.845l8.368,0.011
		c0.481,0,0.873-0.37,0.914-0.841v-0.075c-0.04-0.472-0.43-0.843-0.912-0.843l-6.088-0.008c0.051-0.131,0.078-0.272,0.078-0.422
		l0.001-0.49c0,0,2.042,0.485,2.843,0.403c0.519-0.053,1.19-0.731,1.191-1.526c0.001-0.933-0.67-1.475-1.187-1.528
		c-0.802-0.084-2.845,0.396-2.845,0.396v-0.496c0-0.146-0.026-0.285-0.074-0.416l6.086,0.008c0.48,0.001,0.873-0.369,0.914-0.84
		v-0.076c-0.04-0.472-0.432-0.842-0.912-0.842l-8.369-0.011c-0.909-0.001-1.176,0.235-1.196,0.843h-0.002
		c0,0.012,0.001,0.023,0.001,0.035s-0.001,0.023-0.001,0.036h0.002c0,0.021,0.002,0.04,0.003,0.06l-6.938-0.016l-9.45-0.011
		c-0.536-0.885-0.966-0.969-0.966-0.969l-0.004,3.545l-0.001,0.507l-0.005,3.545c0,0,0.431-0.084,0.97-0.967l9.45,0.012l6.938-0.004
		c-0.001,0.021-0.003,0.042-0.004,0.064h-0.002C536.488,760.155,536.489,760.166,536.489,760.177"/>
	<path fill="#FFFFFF" d="M572.406,760.177c0,0.013-0.001,0.023-0.001,0.036h0.002c0.018,0.607,0.284,0.845,1.193,0.845l8.369,0.011
		c0.481,0,0.873-0.37,0.914-0.841v-0.075c-0.04-0.472-0.43-0.843-0.912-0.843l-6.088-0.008c0.05-0.131,0.078-0.272,0.078-0.422
		l0.001-0.49c0,0,2.042,0.485,2.843,0.403c0.519-0.053,1.19-0.731,1.191-1.526c0.001-0.933-0.67-1.475-1.188-1.528
		c-0.801-0.084-2.844,0.396-2.844,0.396v-0.496c0-0.146-0.027-0.285-0.075-0.416l6.086,0.008c0.481,0.001,0.873-0.369,0.914-0.84
		v-0.076c-0.04-0.472-0.431-0.842-0.912-0.842l-8.369-0.011c-0.908-0.001-1.176,0.235-1.195,0.843h-0.002
		c0,0.012,0.001,0.023,0.001,0.035s-0.001,0.023-0.001,0.036h0.002c0,0.021,0.002,0.04,0.003,0.06l-6.938-0.016l-9.449-0.011
		c-0.536-0.885-0.967-0.969-0.967-0.969l-0.004,3.545l-0.001,0.507l-0.004,3.545c0,0,0.43-0.084,0.968-0.967l9.45,0.012l6.939-0.004
		c-0.002,0.021-0.003,0.042-0.004,0.064h-0.002C572.405,760.155,572.406,760.166,572.406,760.177"/>
	<path fill="#FFFFFF" d="M613.227,759.304l-1.21-0.002c0.05-0.131,0.078-0.273,0.079-0.422v-0.489c0,0,0.516,0.122,1.131,0.233
		v-2.721c-0.613,0.11-1.128,0.23-1.128,0.23v-0.495c0.001-0.147-0.026-0.286-0.075-0.416l1.203,0.001v-1.758l-3.483-0.004
		c-0.908-0.002-1.177,0.234-1.196,0.842h-0.002c0,0.012,0.001,0.022,0.001,0.035s-0.001,0.023-0.001,0.036h0.002
		c0.001,0.021,0.002,0.039,0.003,0.06l-6.938-0.016l-9.449-0.012c-0.536-0.884-0.966-0.968-0.966-0.968l-0.005,3.545l-0.001,0.507
		l-0.004,3.544c0,0,0.431-0.083,0.97-0.966l9.449,0.011l6.938-0.003c-0.001,0.021-0.003,0.042-0.004,0.064h-0.002
		c0,0.012,0.001,0.023,0.001,0.035c0,0.013-0.001,0.023-0.001,0.037h0.002c0.018,0.606,0.286,0.843,1.194,0.844l3.492,0.005V759.304
		z"/>
	<path fill="#FFFFFF" d="M478.101,742.247c-0.134-0.898-0.407-1.129-1.011-1.059c-0.012,0.001-0.023,0.004-0.035,0.006
		c-0.012,0.001-0.023,0.002-0.036,0.006c-0.02,0.004-0.039,0.009-0.058,0.013c-0.635-4.28-0.622-8.455-0.617-12.772
		c0.885-0.536,0.969-0.966,0.969-0.966l-3.545-0.004l-0.507-0.001l-3.545-0.005c0,0,0.083,0.43,0.963,0.967
		c0.113,0.068,0.002,1.208,0.002,1.341c-0.001,0.966-0.002,1.933-0.003,2.899c-0.004,3.195,0.227,6.224,0.702,9.375
		c-0.021,0.002-0.042,0.004-0.063,0.005c-0.013,0.001-0.023,0.004-0.035,0.006c-0.014,0.002-0.024,0.003-0.036,0.006
		c-0.597,0.108-0.792,0.408-0.657,1.307l1.237,8.277c0.07,0.476,0.495,0.808,0.967,0.779l0.075-0.013
		c0.46-0.109,0.768-0.551,0.696-1.026l-0.899-6.022c0.137,0.03,0.282,0.037,0.429,0.016l0.484-0.072c0,0-0.175,2.091,0.025,2.871
		c0.13,0.504,0.901,1.067,1.687,0.951c0.922-0.139,1.357-0.883,1.335-1.402c-0.036-0.805-0.815-2.754-0.815-2.754l0.49-0.073
		c0.146-0.022,0.279-0.069,0.4-0.136l0.899,6.019c0.071,0.477,0.495,0.809,0.968,0.779l0.074-0.012
		c0.46-0.11,0.769-0.552,0.697-1.027L478.101,742.247z"/>
	<path fill="#58595B" d="M656.408,722.173h-15.821c-0.552,0-1-0.447-1-1V126.875c0-0.553,0.448-1,1-1h15.821c0.552,0,1,0.447,1,1
		v594.299C657.408,721.726,656.96,722.173,656.408,722.173"/>
	<path fill="#FFFFFF" d="M651.422,700.142c0.012,0,0.022,0.002,0.035,0.002v-0.003c0.607-0.018,0.845-0.284,0.846-1.193l0.01-8.369
		c0-0.481-0.37-0.873-0.841-0.914h-0.076c-0.471,0.04-0.841,0.43-0.842,0.912l-0.007,6.088c-0.133-0.05-0.273-0.078-0.423-0.078
		l-0.489-0.001c0,0,0.484-2.042,0.402-2.843c-0.053-0.519-0.731-1.19-1.525-1.191c-0.934-0.001-1.475,0.67-1.529,1.188
		c-0.084,0.801,0.396,2.844,0.396,2.844h-0.496c-0.146,0-0.286,0.026-0.416,0.075l0.007-6.086c0.001-0.481-0.369-0.873-0.84-0.914
		h-0.076c-0.472,0.04-0.842,0.431-0.842,0.912l-0.011,8.369c-0.001,0.908,0.235,1.176,0.843,1.195v0.002
		c0.012,0,0.023-0.001,0.035-0.001c0.013,0,0.023,0.001,0.036,0.001v-0.002c0.021,0,0.039-0.002,0.06-0.003l-0.016,6.938
		l-0.011,9.449c-0.885,0.536-0.969,0.967-0.969,0.967l3.545,0.004l0.507,0.001l3.545,0.004c0,0-0.084-0.431-0.967-0.968l0.012-9.45
		l-0.004-6.939c0.021,0.002,0.042,0.003,0.064,0.004v0.003C651.397,700.144,651.409,700.142,651.422,700.142"/>
	<path fill="#FFFFFF" d="M651.422,663.99c0.012,0,0.022,0.001,0.035,0.001v-0.002c0.607-0.018,0.845-0.285,0.846-1.194l0.01-8.369
		c0-0.48-0.37-0.872-0.841-0.913h-0.076c-0.471,0.04-0.841,0.431-0.842,0.911l-0.007,6.089c-0.133-0.05-0.273-0.078-0.423-0.078
		l-0.489-0.001c0,0,0.484-2.042,0.402-2.844c-0.053-0.518-0.731-1.189-1.525-1.19c-0.934-0.001-1.475,0.67-1.529,1.187
		c-0.084,0.802,0.396,2.846,0.396,2.846l-0.496-0.001c-0.146,0-0.286,0.026-0.416,0.075l0.007-6.086
		c0.001-0.481-0.369-0.873-0.84-0.914h-0.076c-0.472,0.039-0.842,0.431-0.842,0.911l-0.011,8.369
		c-0.001,0.909,0.235,1.177,0.843,1.196v0.002c0.012,0,0.023-0.001,0.035-0.001c0.013,0,0.023,0.001,0.036,0.001v-0.002
		c0.021,0,0.039-0.002,0.06-0.003l-0.016,6.938l-0.011,9.45c-0.885,0.536-0.969,0.966-0.969,0.966l3.545,0.005h0.507l3.545,0.004
		c0,0-0.084-0.43-0.967-0.968l0.012-9.45l-0.004-6.938c0.021,0.002,0.042,0.003,0.064,0.004v0.002
		C651.397,663.991,651.409,663.99,651.422,663.99"/>
	<path fill="#FFFFFF" d="M651.422,628.074c0.012,0,0.022,0.001,0.035,0.001v-0.003c0.607-0.018,0.845-0.285,0.846-1.193l0.01-8.369
		c0-0.48-0.37-0.873-0.841-0.914l-0.076-0.001c-0.471,0.041-0.841,0.431-0.842,0.913l-0.007,6.088
		c-0.133-0.05-0.273-0.078-0.423-0.078l-0.489-0.001c0,0,0.484-2.042,0.402-2.843c-0.053-0.518-0.731-1.189-1.525-1.191
		c-0.934,0-1.475,0.67-1.529,1.188c-0.084,0.801,0.396,2.844,0.396,2.844h-0.496c-0.146,0-0.286,0.027-0.416,0.075l0.007-6.086
		c0.001-0.481-0.369-0.873-0.84-0.914h-0.076c-0.472,0.04-0.842,0.431-0.842,0.912l-0.011,8.369
		c-0.001,0.909,0.235,1.176,0.843,1.196v0.002c0.012,0,0.023-0.002,0.035-0.002c0.013,0,0.023,0.002,0.036,0.002v-0.002
		c0.021-0.002,0.039-0.002,0.06-0.004L645.663,635l-0.011,9.45c-0.885,0.535-0.969,0.966-0.969,0.966l3.545,0.004l0.507,0.001
		l3.545,0.004c0,0-0.084-0.43-0.967-0.968l0.012-9.451l-0.004-6.938c0.021,0.002,0.042,0.004,0.064,0.004v0.003
		C651.397,628.075,651.409,628.074,651.422,628.074"/>
	<path fill="#FFFFFF" d="M651.422,592.392c0.012,0,0.022,0.002,0.035,0.002v-0.003c0.607-0.018,0.845-0.284,0.846-1.193l0.01-8.369
		c0-0.481-0.37-0.873-0.841-0.914h-0.076c-0.471,0.04-0.841,0.43-0.842,0.912l-0.007,6.088c-0.133-0.05-0.273-0.078-0.423-0.078
		l-0.489-0.001c0,0,0.484-2.042,0.402-2.843c-0.053-0.519-0.731-1.19-1.525-1.191c-0.934-0.001-1.475,0.67-1.529,1.188
		c-0.084,0.801,0.396,2.844,0.396,2.844h-0.496c-0.146,0-0.286,0.026-0.416,0.075l0.007-6.086c0.001-0.481-0.369-0.873-0.84-0.914
		h-0.076c-0.472,0.04-0.842,0.431-0.842,0.912l-0.011,8.369c-0.001,0.908,0.235,1.176,0.843,1.195v0.002
		c0.012,0,0.023-0.001,0.035-0.001c0.013,0,0.023,0.001,0.036,0.001v-0.002c0.021,0,0.039-0.002,0.06-0.003l-0.016,6.938
		l-0.011,9.449c-0.885,0.536-0.969,0.967-0.969,0.967l3.545,0.004l0.507,0.001l3.545,0.004c0,0-0.084-0.431-0.967-0.968l0.012-9.45
		l-0.004-6.939c0.021,0.002,0.042,0.003,0.064,0.004v0.003C651.397,592.394,651.409,592.392,651.422,592.392"/>
	<path fill="#FFFFFF" d="M651.422,556.24c0.012,0,0.022,0.001,0.035,0.001v-0.002c0.607-0.018,0.845-0.285,0.846-1.194l0.01-8.369
		c0-0.48-0.37-0.872-0.841-0.913h-0.076c-0.471,0.04-0.841,0.431-0.842,0.911l-0.007,6.089c-0.133-0.05-0.273-0.078-0.423-0.078
		l-0.489-0.001c0,0,0.484-2.042,0.402-2.844c-0.053-0.518-0.731-1.189-1.525-1.19c-0.934-0.001-1.475,0.67-1.529,1.187
		c-0.084,0.802,0.396,2.846,0.396,2.846l-0.496-0.001c-0.146,0-0.286,0.026-0.416,0.075l0.007-6.086
		c0.001-0.481-0.369-0.873-0.84-0.914h-0.076c-0.472,0.039-0.842,0.431-0.842,0.911l-0.011,8.369
		c-0.001,0.909,0.235,1.177,0.843,1.196v0.002c0.012,0,0.023-0.001,0.035-0.001c0.013,0,0.023,0.001,0.036,0.001v-0.002
		c0.021,0,0.039-0.002,0.06-0.003l-0.016,6.938l-0.011,9.45c-0.885,0.536-0.969,0.966-0.969,0.966l3.545,0.005h0.507l3.545,0.004
		c0,0-0.084-0.43-0.967-0.968l0.012-9.45l-0.004-6.938c0.021,0.002,0.042,0.003,0.064,0.004v0.002
		C651.397,556.241,651.409,556.24,651.422,556.24"/>
	<path fill="#FFFFFF" d="M651.422,520.324c0.012,0,0.022,0.001,0.035,0.001v-0.003c0.607-0.018,0.845-0.285,0.846-1.193l0.01-8.369
		c0-0.48-0.37-0.873-0.841-0.914l-0.076-0.001c-0.471,0.041-0.841,0.431-0.842,0.913l-0.007,6.088
		c-0.133-0.05-0.273-0.078-0.423-0.078l-0.489-0.001c0,0,0.484-2.042,0.402-2.843c-0.053-0.518-0.731-1.189-1.525-1.191
		c-0.934,0-1.475,0.67-1.529,1.188c-0.084,0.801,0.396,2.844,0.396,2.844h-0.496c-0.146,0-0.286,0.027-0.416,0.075l0.007-6.086
		c0.001-0.481-0.369-0.873-0.84-0.914h-0.076c-0.472,0.04-0.842,0.431-0.842,0.912l-0.011,8.369
		c-0.001,0.909,0.235,1.176,0.843,1.196v0.002c0.012,0,0.023-0.002,0.035-0.002c0.013,0,0.023,0.002,0.036,0.002v-0.002
		c0.021-0.002,0.039-0.002,0.06-0.004l-0.016,6.938l-0.011,9.45c-0.885,0.535-0.969,0.966-0.969,0.966l3.545,0.004l0.507,0.001
		l3.545,0.004c0,0-0.084-0.43-0.967-0.968l0.012-9.451l-0.004-6.938c0.021,0.002,0.042,0.004,0.064,0.004v0.003
		C651.397,520.325,651.409,520.324,651.422,520.324"/>
	<path fill="#FFFFFF" d="M651.422,484.569c0.012,0,0.022,0.001,0.035,0.001v-0.002c0.607-0.018,0.845-0.285,0.846-1.194l0.01-8.369
		c0-0.48-0.37-0.872-0.841-0.913h-0.076c-0.471,0.039-0.841,0.43-0.842,0.911l-0.007,6.089c-0.133-0.051-0.273-0.078-0.423-0.078
		l-0.489-0.002c0,0,0.484-2.041,0.402-2.843c-0.053-0.518-0.731-1.189-1.525-1.19c-0.934-0.001-1.475,0.67-1.529,1.187
		c-0.084,0.802,0.396,2.845,0.396,2.845h-0.496c-0.146,0-0.286,0.026-0.416,0.074l0.007-6.086c0.001-0.48-0.369-0.873-0.84-0.914
		h-0.076c-0.472,0.04-0.842,0.432-0.842,0.912l-0.011,8.369c-0.001,0.909,0.235,1.176,0.843,1.196v0.002
		c0.012,0,0.023-0.001,0.035-0.001c0.013,0,0.023,0.001,0.036,0.001v-0.002c0.021,0,0.039-0.002,0.06-0.003l-0.016,6.938
		l-0.011,9.45c-0.885,0.536-0.969,0.966-0.969,0.966l3.545,0.004l0.507,0.001l3.545,0.004c0,0-0.084-0.43-0.967-0.968l0.012-9.45
		l-0.004-6.938c0.021,0.002,0.042,0.003,0.064,0.004v0.002C651.397,484.57,651.409,484.569,651.422,484.569"/>
	<path fill="#FFFFFF" d="M651.422,448.888c0.012,0,0.022,0.001,0.035,0.001v-0.003c0.607-0.018,0.845-0.284,0.846-1.193l0.01-8.369
		c0-0.48-0.37-0.873-0.841-0.914h-0.076c-0.471,0.04-0.841,0.432-0.842,0.912l-0.007,6.088c-0.133-0.049-0.273-0.078-0.423-0.078
		l-0.489-0.001c0,0,0.484-2.042,0.402-2.843c-0.053-0.518-0.731-1.189-1.525-1.191c-0.934,0-1.475,0.67-1.529,1.188
		c-0.084,0.801,0.396,2.845,0.396,2.845l-0.496-0.001c-0.146,0-0.286,0.027-0.416,0.075l0.007-6.086
		c0.001-0.481-0.369-0.873-0.84-0.914h-0.076c-0.472,0.04-0.842,0.431-0.842,0.912l-0.011,8.369
		c-0.001,0.909,0.235,1.177,0.843,1.196v0.002c0.012,0,0.023-0.002,0.035-0.002c0.013,0,0.023,0.002,0.036,0.002v-0.002
		c0.021,0,0.039-0.002,0.06-0.004l-0.016,6.938l-0.011,9.45c-0.885,0.535-0.969,0.966-0.969,0.966l3.545,0.004l0.507,0.001
		l3.545,0.004c0,0-0.084-0.43-0.967-0.968l0.012-9.45l-0.004-6.939c0.021,0.002,0.042,0.004,0.064,0.004v0.003
		C651.397,448.889,651.409,448.888,651.422,448.888"/>
	<path fill="#FFFFFF" d="M651.422,412.736c0.012,0,0.022,0.001,0.035,0.001v-0.003c0.607-0.018,0.845-0.285,0.846-1.193l0.01-8.369
		c0-0.482-0.37-0.873-0.841-0.914l-0.076-0.001c-0.471,0.041-0.841,0.431-0.842,0.913l-0.007,6.088
		c-0.133-0.05-0.273-0.078-0.423-0.078l-0.489-0.001c0,0,0.484-2.042,0.402-2.843c-0.053-0.518-0.731-1.189-1.525-1.191
		c-0.934,0-1.475,0.67-1.529,1.188c-0.084,0.801,0.396,2.844,0.396,2.844h-0.496c-0.146,0-0.286,0.027-0.416,0.075l0.007-6.086
		c0.001-0.481-0.369-0.873-0.84-0.914h-0.076c-0.472,0.04-0.842,0.431-0.842,0.912l-0.011,8.369
		c-0.001,0.907,0.235,1.176,0.843,1.196v0.002c0.012,0,0.023-0.002,0.035-0.002c0.013,0,0.023,0.002,0.036,0.002v-0.002
		c0.021-0.002,0.039-0.002,0.06-0.004l-0.016,6.938l-0.011,9.45c-0.885,0.535-0.969,0.966-0.969,0.966l3.545,0.004l0.507,0.001
		l3.545,0.004c0,0-0.084-0.43-0.967-0.968l0.012-9.451l-0.004-6.938c0.021,0.002,0.042,0.004,0.064,0.004v0.003
		C651.397,412.737,651.409,412.736,651.422,412.736"/>
	<path fill="#FFFFFF" d="M651.422,376.819c0.012,0,0.022,0.001,0.035,0.001v-0.002c0.607-0.018,0.845-0.285,0.846-1.194l0.01-8.369
		c0-0.48-0.37-0.872-0.841-0.913h-0.076c-0.471,0.039-0.841,0.43-0.842,0.911l-0.007,6.089c-0.133-0.051-0.273-0.078-0.423-0.078
		l-0.489-0.002c0,0,0.484-2.041,0.402-2.843c-0.053-0.518-0.731-1.189-1.525-1.19c-0.934-0.001-1.475,0.67-1.529,1.187
		c-0.084,0.802,0.396,2.845,0.396,2.845h-0.496c-0.146,0-0.286,0.026-0.416,0.074l0.007-6.086c0.001-0.48-0.369-0.873-0.84-0.914
		h-0.076c-0.472,0.04-0.842,0.432-0.842,0.912l-0.011,8.369c-0.001,0.909,0.235,1.176,0.843,1.196v0.002
		c0.012,0,0.023-0.001,0.035-0.001c0.013,0,0.023,0.001,0.036,0.001v-0.002c0.021,0,0.039-0.002,0.06-0.003l-0.016,6.938
		l-0.011,9.45c-0.885,0.536-0.969,0.966-0.969,0.966l3.545,0.004l0.507,0.001l3.545,0.004c0,0-0.084-0.43-0.967-0.968l0.012-9.45
		l-0.004-6.938c0.021,0.002,0.042,0.003,0.064,0.004v0.002C651.397,376.82,651.409,376.819,651.422,376.819"/>
	<path fill="#FFFFFF" d="M651.422,339.944c0.012,0,0.022,0.001,0.035,0.001v-0.002c0.607-0.018,0.845-0.285,0.846-1.194l0.01-8.369
		c0-0.48-0.37-0.872-0.841-0.913h-0.076c-0.471,0.039-0.841,0.43-0.842,0.911l-0.007,6.089c-0.133-0.051-0.273-0.078-0.423-0.078
		l-0.489-0.002c0,0,0.484-2.041,0.402-2.843c-0.053-0.518-0.731-1.189-1.525-1.19c-0.934-0.001-1.475,0.67-1.529,1.187
		c-0.084,0.802,0.396,2.845,0.396,2.845h-0.496c-0.146,0-0.286,0.026-0.416,0.074l0.007-6.086c0.001-0.48-0.369-0.873-0.84-0.914
		h-0.076c-0.472,0.04-0.842,0.432-0.842,0.912l-0.011,8.369c-0.001,0.909,0.235,1.176,0.843,1.196v0.002
		c0.012,0,0.023-0.001,0.035-0.001c0.013,0,0.023,0.001,0.036,0.001v-0.002c0.021,0,0.039-0.002,0.06-0.003l-0.016,6.938
		l-0.011,9.45c-0.885,0.536-0.969,0.966-0.969,0.966l3.545,0.004l0.507,0.001l3.545,0.004c0,0-0.084-0.43-0.967-0.968l0.012-9.45
		l-0.004-6.938c0.021,0.002,0.042,0.003,0.064,0.004v0.002C651.397,339.945,651.409,339.944,651.422,339.944"/>
	<path fill="#FFFFFF" d="M651.422,304.263c0.012,0,0.022,0.001,0.035,0.001v-0.003c0.607-0.018,0.845-0.284,0.846-1.193l0.01-8.369
		c0-0.48-0.37-0.873-0.841-0.914h-0.076c-0.471,0.04-0.841,0.432-0.842,0.912l-0.007,6.088c-0.133-0.049-0.273-0.078-0.423-0.078
		l-0.489-0.001c0,0,0.484-2.042,0.402-2.843c-0.053-0.518-0.731-1.189-1.525-1.191c-0.934,0-1.475,0.67-1.529,1.188
		c-0.084,0.801,0.396,2.845,0.396,2.845l-0.496-0.001c-0.146,0-0.286,0.027-0.416,0.075l0.007-6.086
		c0.001-0.481-0.369-0.873-0.84-0.914h-0.076c-0.472,0.04-0.842,0.431-0.842,0.912l-0.011,8.369
		c-0.001,0.909,0.235,1.177,0.843,1.196v0.002c0.012,0,0.023-0.002,0.035-0.002c0.013,0,0.023,0.002,0.036,0.002v-0.002
		c0.021,0,0.039-0.002,0.06-0.004l-0.016,6.938l-0.011,9.45c-0.885,0.535-0.969,0.966-0.969,0.966l3.545,0.004l0.507,0.001
		l3.545,0.004c0,0-0.084-0.43-0.967-0.968l0.012-9.45l-0.004-6.939c0.021,0.002,0.042,0.004,0.064,0.004v0.003
		C651.397,304.264,651.409,304.263,651.422,304.263"/>
	<path fill="#FFFFFF" d="M651.422,268.111c0.012,0,0.022,0.001,0.035,0.001v-0.003c0.607-0.018,0.845-0.285,0.846-1.193l0.01-8.369
		c0-0.482-0.37-0.873-0.841-0.914l-0.076-0.001c-0.471,0.041-0.841,0.431-0.842,0.913l-0.007,6.088
		c-0.133-0.05-0.273-0.078-0.423-0.078l-0.489-0.001c0,0,0.484-2.042,0.402-2.843c-0.053-0.518-0.731-1.189-1.525-1.191
		c-0.934,0-1.475,0.67-1.529,1.188c-0.084,0.801,0.396,2.844,0.396,2.844h-0.496c-0.146,0-0.286,0.027-0.416,0.075l0.007-6.086
		c0.001-0.481-0.369-0.873-0.84-0.914h-0.076c-0.472,0.04-0.842,0.431-0.842,0.912l-0.011,8.369
		c-0.001,0.909,0.235,1.176,0.843,1.196v0.002c0.012,0,0.023-0.002,0.035-0.002c0.013,0,0.023,0.002,0.036,0.002v-0.002
		c0.021-0.002,0.039-0.002,0.06-0.004l-0.016,6.938l-0.011,9.45c-0.885,0.535-0.969,0.966-0.969,0.966l3.545,0.004l0.507,0.001
		l3.545,0.004c0,0-0.084-0.43-0.967-0.968l0.012-9.451l-0.004-6.938c0.021,0.002,0.042,0.004,0.064,0.004v0.003
		C651.397,268.112,651.409,268.111,651.422,268.111"/>
	<path fill="#FFFFFF" d="M651.422,232.194c0.012,0,0.022,0.001,0.035,0.001v-0.002c0.607-0.018,0.845-0.285,0.846-1.194l0.01-8.369
		c0-0.48-0.37-0.872-0.841-0.913h-0.076c-0.471,0.039-0.841,0.43-0.842,0.911l-0.007,6.089c-0.133-0.051-0.273-0.078-0.423-0.078
		l-0.489-0.002c0,0,0.484-2.041,0.402-2.843c-0.053-0.518-0.731-1.189-1.525-1.19c-0.934-0.001-1.475,0.67-1.529,1.187
		c-0.084,0.802,0.396,2.845,0.396,2.845h-0.496c-0.146,0-0.286,0.026-0.416,0.074l0.007-6.086c0.001-0.48-0.369-0.873-0.84-0.914
		h-0.076c-0.472,0.04-0.842,0.432-0.842,0.912l-0.011,8.369c-0.001,0.909,0.235,1.176,0.843,1.196v0.002
		c0.012,0,0.023-0.001,0.035-0.001c0.013,0,0.023,0.001,0.036,0.001v-0.002c0.021,0,0.039-0.002,0.06-0.003l-0.016,6.938
		l-0.011,9.45c-0.885,0.536-0.969,0.966-0.969,0.966l3.545,0.004l0.507,0.001l3.545,0.004c0,0-0.084-0.43-0.967-0.968l0.012-9.45
		l-0.004-6.938c0.021,0.002,0.042,0.003,0.064,0.004v0.002C651.397,232.195,651.409,232.194,651.422,232.194"/>
	<path fill="#FFFFFF" d="M651.422,195.421c0.012,0,0.022,0.001,0.035,0.001v-0.002c0.607-0.018,0.845-0.286,0.846-1.194l0.01-8.369
		c0-0.48-0.37-0.872-0.841-0.913l-0.076-0.001c-0.471,0.041-0.841,0.431-0.842,0.912l-0.007,6.089
		c-0.133-0.05-0.273-0.078-0.423-0.078l-0.489-0.001c0,0,0.484-2.042,0.402-2.844c-0.053-0.518-0.731-1.189-1.525-1.19
		c-0.934-0.001-1.475,0.67-1.529,1.187c-0.084,0.802,0.396,2.845,0.396,2.845h-0.496c-0.146,0-0.286,0.026-0.416,0.075l0.007-6.086
		c0.001-0.481-0.369-0.873-0.84-0.914h-0.076c-0.472,0.039-0.842,0.431-0.842,0.911l-0.011,8.369
		c-0.001,0.909,0.235,1.177,0.843,1.196v0.002c0.012,0,0.023-0.001,0.035-0.001c0.013,0,0.023,0.001,0.036,0.001v-0.002
		c0.021-0.001,0.039-0.002,0.06-0.003l-0.016,6.938l-0.011,9.45c-0.885,0.536-0.969,0.966-0.969,0.966l3.545,0.005h0.507
		l3.545,0.004c0,0-0.084-0.43-0.967-0.968l0.012-9.45l-0.004-6.938c0.021,0.002,0.042,0.003,0.064,0.004v0.002
		C651.397,195.422,651.409,195.421,651.422,195.421"/>
	<path fill="#FFFFFF" d="M651.422,159.269c0.012,0,0.022,0.001,0.035,0.001v-0.002c0.607-0.019,0.845-0.285,0.846-1.194l0.01-8.369
		c0-0.48-0.37-0.873-0.841-0.914h-0.076c-0.471,0.04-0.841,0.431-0.842,0.912l-0.007,6.088c-0.133-0.05-0.273-0.078-0.423-0.078
		h-0.489c0,0,0.484-2.043,0.402-2.844c-0.053-0.518-0.731-1.189-1.525-1.19c-0.934-0.001-1.475,0.67-1.529,1.187
		c-0.084,0.801,0.396,2.844,0.396,2.844h-0.496c-0.146,0-0.286,0.027-0.416,0.075l0.007-6.086c0.001-0.48-0.369-0.873-0.84-0.914
		h-0.076c-0.472,0.04-0.842,0.431-0.842,0.912l-0.011,8.369c-0.001,0.909,0.235,1.176,0.843,1.196v0.002
		c0.012,0,0.023-0.001,0.035-0.001c0.013,0,0.023,0.001,0.036,0.001v-0.002c0.021,0,0.039-0.002,0.06-0.004l-0.016,6.938
		l-0.011,9.45c-0.885,0.536-0.969,0.966-0.969,0.966l3.545,0.004l0.507,0.001l3.545,0.004c0,0-0.084-0.43-0.967-0.968l0.012-9.45
		l-0.004-6.938c0.021,0.002,0.042,0.003,0.064,0.004v0.002C651.397,159.27,651.409,159.269,651.422,159.269"/>
	<path fill="#FFFFFF" d="M651.313,139.736l0.012-9.45l-0.003-4.411h-5.648l-0.011,4.404l-0.012,9.45
		c-0.884,0.536-0.968,0.967-0.968,0.967l3.545,0.004l0.506,0.001l3.545,0.004C652.279,140.705,652.197,140.274,651.313,139.736"/>
	<line fill="none" x1="-53.02" y1="4124.074" x2="-53.02" y2="-55.333"/>
	<line fill="none" x1="714.98" y1="-55.333" x2="714.98" y2="4124.074"/>
	<line fill="none" x1="-53.02" y1="-55.336" x2="-53.02" y2="4124.074"/>
	<line fill="none" x1="714.98" y1="4124.074" x2="714.98" y2="-55.336"/>
</g>
</svg>
