<?xml version="1.0" encoding="utf-8"?>
<!-- Generator: Adobe Illustrator 16.0.0, SVG Export Plug-In . SVG Version: 6.00 Build 0)  -->
<!DOCTYPE svg PUBLIC "-//W3C//DTD SVG 1.1//EN" "http://www.w3.org/Graphics/SVG/1.1/DTD/svg11.dtd">
<svg version="1.1" xmlns="http://www.w3.org/2000/svg" xmlns:xlink="http://www.w3.org/1999/xlink" x="0px" y="0px"
	 width="189.713px" height="232.667px" viewBox="0 0 189.713 232.667" enable-background="new 0 0 189.713 232.667"
	 xml:space="preserve">
<g id="Layer_2">
	<rect x="-4.66" width="194.373" height="232.667"/>
</g>
<g id="Layer_1">
	<path fill="#FFFFFF" d="M10.454,150.435H6.933c0,0,0.083,0.427,0.961,0.961v9.387l-0.28,0.001
		c-0.503,0.002-0.909,0.411-0.909,0.914v8.313c0,0.656,0.531,1.188,1.188,1.188h1.692c0,0-0.479,2.029-0.396,2.825
		c0.054,0.514,0.729,1.181,1.518,1.181c0.926,0,1.463-0.667,1.517-1.181c0.082-0.796-0.396-2.825-0.396-2.825h1.691
		c0.657,0,1.19-0.532,1.19-1.188v-8.313c0-0.503-0.408-0.912-0.911-0.914l-0.28-0.001v-9.387c0.878-0.534,0.961-0.961,0.961-0.961
		h-3.521H10.454z"/>
	<path fill="#FFFFFF" d="M22.954,150.435h-3.521c0,0,0.083,0.427,0.961,0.961v9.387l-0.28,0.001
		c-0.503,0.002-0.909,0.411-0.909,0.914v8.313c0,0.656,0.531,1.188,1.188,1.188h1.692c0,0-0.479,2.029-0.396,2.825
		c0.054,0.514,0.729,1.181,1.518,1.181c0.926,0,1.463-0.667,1.516-1.181c0.083-0.796-0.396-2.825-0.396-2.825h1.691
		c0.657,0,1.19-0.532,1.19-1.188v-8.313c0-0.503-0.408-0.912-0.911-0.914l-0.28-0.001v-9.387c0.878-0.534,0.961-0.961,0.961-0.961
		h-3.521H22.954z"/>
	<path fill="#FFFFFF" d="M10.454,207.896H6.933c0,0,0.083,0.427,0.961,0.961v9.387l-0.28,0.001
		c-0.503,0.002-0.909,0.411-0.909,0.914v8.313c0,0.656,0.531,1.188,1.188,1.188h1.692c0,0-0.479,2.029-0.396,2.825
		c0.054,0.514,0.729,1.182,1.518,1.182c0.926,0,1.463-0.668,1.517-1.182c0.082-0.796-0.396-2.825-0.396-2.825h1.691
		c0.657,0,1.19-0.532,1.19-1.188v-8.313c0-0.503-0.408-0.912-0.911-0.914l-0.28-0.001v-9.387c0.878-0.534,0.961-0.961,0.961-0.961
		h-3.521H10.454z"/>
	<path fill="#FFFFFF" d="M22.954,207.896h-3.521c0,0,0.083,0.427,0.961,0.961v9.387l-0.28,0.001
		c-0.503,0.002-0.909,0.411-0.909,0.914v8.313c0,0.656,0.531,1.188,1.188,1.188h1.692c0,0-0.479,2.029-0.396,2.825
		c0.054,0.514,0.729,1.182,1.518,1.182c0.926,0,1.463-0.668,1.516-1.182c0.083-0.796-0.396-2.825-0.396-2.825h1.691
		c0.657,0,1.19-0.532,1.19-1.188v-8.313c0-0.503-0.408-0.912-0.911-0.914l-0.28-0.001v-9.387c0.878-0.534,0.961-0.961,0.961-0.961
		h-3.521H22.954z"/>
	<path fill="#FFFFFF" d="M3.75,178.518H0.229c0,0,0.084,0.427,0.962,0.961v9.387l-0.28,0.001C0.407,188.869,0,189.278,0,189.781
		v8.313c0,0.657,0.532,1.188,1.189,1.188h1.691c0,0-0.479,2.029-0.396,2.825c0.053,0.514,0.728,1.181,1.517,1.181
		c0.926,0,1.463-0.667,1.517-1.181c0.082-0.796-0.396-2.825-0.396-2.825h1.692c0.656,0,1.189-0.531,1.189-1.188v-8.313
		c0-0.503-0.408-0.912-0.911-0.914l-0.279-0.001v-9.387c0.878-0.534,0.961-0.961,0.961-0.961H4.253H3.75z"/>
	<path fill="#FFFFFF" d="M16.25,178.518h-3.521c0,0,0.083,0.427,0.961,0.961v9.387l-0.28,0.001c-0.503,0.002-0.91,0.411-0.91,0.914
		v8.313c0,0.657,0.532,1.188,1.189,1.188h1.691c0,0-0.479,2.029-0.396,2.825c0.053,0.514,0.728,1.181,1.517,1.181
		c0.926,0,1.463-0.667,1.516-1.181c0.083-0.796-0.396-2.825-0.396-2.825h1.692c0.656,0,1.189-0.531,1.189-1.188v-8.313
		c0-0.503-0.408-0.912-0.911-0.914l-0.279-0.001v-9.387c0.878-0.534,0.961-0.961,0.961-0.961h-3.521H16.25z"/>
	<path fill="#FFFFFF" d="M28.25,178.518h-3.521c0,0,0.084,0.427,0.962,0.961v9.387l-0.28,0.001c-0.503,0.002-0.91,0.411-0.91,0.914
		v8.313c0,0.657,0.532,1.188,1.189,1.188h1.691c0,0-0.479,2.029-0.396,2.825c0.053,0.514,0.728,1.181,1.517,1.181
		c0.926,0,1.463-0.667,1.516-1.181c0.083-0.796-0.396-2.825-0.396-2.825h1.692c0.656,0,1.189-0.531,1.189-1.188v-8.313
		c0-0.503-0.408-0.912-0.911-0.914l-0.279-0.001v-9.387c0.878-0.534,0.961-0.961,0.961-0.961h-3.521H28.25z"/>
	<polyline fill="#6D6E71" points="167.586,75.38 160.495,75.38 160.495,106.911 167.586,106.911 	"/>
	<path fill="#6D6E71" d="M189.713,77.364h-15.414h-73.476c-2.845-8.862-9.515-16.005-18.068-19.491v-9.452h-3.768v-5.946h-4.759
		v-10.02c6.133-1.305,10.997-6.036,12.495-12.095h8.155v-0.679c1.653,5.933,7.402,10.158,14.018,9.402
		c5.918-0.676,10.705-5.477,11.365-11.398c0.873-7.834-5.236-14.468-12.895-14.468c-5.957,0-10.963,4.019-12.488,9.49v-0.38h-8.186
		C84.879,5.239,78.45,0,70.798,0C63.144,0,56.716,5.239,54.9,12.327h-7.404c-1.698-5.451-6.896-9.359-12.965-9.097
		c-6.65,0.287-12.136,5.799-12.392,12.452c-0.284,7.4,5.63,13.489,12.967,13.489c5.708,0,10.544-3.69,12.281-8.811h7.482
		c1.468,5.931,6.158,10.586,12.108,12.005v10.109h-3.812v5.946h-4.226v9.49h0.016c-8.508,3.501-15.139,10.624-17.973,19.453H29.562
		l-6.874,0.013c-11.02,0.022-19.944,8.952-19.961,19.971l-0.011,7.36v32.62H0.632v7.09h31.529v-7.09h-2.084v-5.942v-26.659h14.899
		c2.57,3.748,5.932,6.909,9.845,9.245c4.705,2.81,10.204,4.428,16.083,4.428c10.768,0,20.266-5.418,25.928-13.673h77.467h14.897"/>
</g>
</svg>
