<?xml version="1.0" encoding="utf-8"?>
<!-- Generator: Adobe Illustrator 16.0.0, SVG Export Plug-In . SVG Version: 6.00 Build 0)  -->
<!DOCTYPE svg PUBLIC "-//W3C//DTD SVG 1.1//EN" "http://www.w3.org/Graphics/SVG/1.1/DTD/svg11.dtd">
<svg version="1.1" xmlns="http://www.w3.org/2000/svg" xmlns:xlink="http://www.w3.org/1999/xlink" x="0px" y="0px" width="121px"
	 height="1200px" viewBox="0 0 121 1200" enable-background="new 0 0 121 1200" xml:space="preserve">
<g id="Layer_2">
	<rect x="0.471" width="189.713" height="1200"/>
</g>
<g id="Layer_1">
	<path fill="#FFFFFF" d="M10.925,150.435H7.403c0,0,0.083,0.427,0.961,0.961v9.387l-0.28,0.001
		c-0.503,0.002-0.909,0.411-0.909,0.914v8.313c0,0.656,0.531,1.188,1.188,1.188h1.692c0,0-0.479,2.029-0.396,2.825
		c0.054,0.514,0.729,1.181,1.518,1.181c0.926,0,1.463-0.667,1.517-1.181c0.082-0.796-0.396-2.825-0.396-2.825h1.691
		c0.657,0,1.19-0.532,1.19-1.188v-8.313c0-0.503-0.408-0.912-0.911-0.914l-0.28-0.001v-9.387c0.878-0.534,0.961-0.961,0.961-0.961
		h-3.521H10.925z"/>
	<path fill="#FFFFFF" d="M23.425,150.435h-3.521c0,0,0.083,0.427,0.961,0.961v9.387l-0.28,0.001
		c-0.503,0.002-0.909,0.411-0.909,0.914v8.313c0,0.656,0.531,1.188,1.188,1.188h1.692c0,0-0.479,2.029-0.396,2.825
		c0.054,0.514,0.729,1.181,1.518,1.181c0.926,0,1.463-0.667,1.516-1.181c0.083-0.796-0.396-2.825-0.396-2.825h1.691
		c0.657,0,1.19-0.532,1.19-1.188v-8.313c0-0.503-0.408-0.912-0.911-0.914l-0.28-0.001v-9.387c0.878-0.534,0.961-0.961,0.961-0.961
		h-3.521H23.425z"/>
	<path fill="#FFFFFF" d="M10.925,207.896H7.403c0,0,0.083,0.427,0.961,0.961v9.387l-0.28,0.001
		c-0.503,0.002-0.909,0.411-0.909,0.914v8.313c0,0.656,0.531,1.188,1.188,1.188h1.692c0,0-0.479,2.029-0.396,2.825
		c0.054,0.514,0.729,1.182,1.518,1.182c0.926,0,1.463-0.668,1.517-1.182c0.082-0.796-0.396-2.825-0.396-2.825h1.691
		c0.657,0,1.19-0.532,1.19-1.188v-8.313c0-0.503-0.408-0.912-0.911-0.914l-0.28-0.001v-9.387c0.878-0.534,0.961-0.961,0.961-0.961
		h-3.521H10.925z"/>
	<path fill="#FFFFFF" d="M23.425,207.896h-3.521c0,0,0.083,0.427,0.961,0.961v9.387l-0.28,0.001
		c-0.503,0.002-0.909,0.411-0.909,0.914v8.313c0,0.656,0.531,1.188,1.188,1.188h1.692c0,0-0.479,2.029-0.396,2.825
		c0.054,0.514,0.729,1.182,1.518,1.182c0.926,0,1.463-0.668,1.516-1.182c0.083-0.796-0.396-2.825-0.396-2.825h1.691
		c0.657,0,1.19-0.532,1.19-1.188v-8.313c0-0.503-0.408-0.912-0.911-0.914l-0.28-0.001v-9.387c0.878-0.534,0.961-0.961,0.961-0.961
		h-3.521H23.425z"/>
	<path fill="#FFFFFF" d="M4.221,178.518H0.699c0,0,0.084,0.427,0.962,0.961v9.387l-0.28,0.001c-0.503,0.002-0.91,0.411-0.91,0.914
		v8.313c0,0.657,0.532,1.188,1.189,1.188h1.691c0,0-0.479,2.029-0.396,2.825c0.053,0.514,0.728,1.181,1.517,1.181
		c0.926,0,1.463-0.667,1.517-1.181c0.082-0.796-0.396-2.825-0.396-2.825h1.692c0.656,0,1.189-0.531,1.189-1.188v-8.313
		c0-0.503-0.408-0.912-0.911-0.914l-0.279-0.001v-9.387c0.878-0.534,0.961-0.961,0.961-0.961H4.724H4.221z"/>
	<path fill="#FFFFFF" d="M16.721,178.518H13.2c0,0,0.083,0.427,0.961,0.961v9.387l-0.28,0.001c-0.503,0.002-0.91,0.411-0.91,0.914
		v8.313c0,0.657,0.532,1.188,1.189,1.188h1.691c0,0-0.479,2.029-0.396,2.825c0.053,0.514,0.728,1.181,1.517,1.181
		c0.926,0,1.463-0.667,1.516-1.181c0.083-0.796-0.396-2.825-0.396-2.825h1.692c0.656,0,1.189-0.531,1.189-1.188v-8.313
		c0-0.503-0.408-0.912-0.911-0.914l-0.279-0.001v-9.387c0.878-0.534,0.961-0.961,0.961-0.961h-3.521H16.721z"/>
	<path fill="#FFFFFF" d="M28.721,178.518h-3.521c0,0,0.084,0.427,0.962,0.961v9.387l-0.28,0.001c-0.503,0.002-0.91,0.411-0.91,0.914
		v8.313c0,0.657,0.532,1.188,1.189,1.188h1.691c0,0-0.479,2.029-0.396,2.825c0.053,0.514,0.728,1.181,1.517,1.181
		c0.926,0,1.463-0.667,1.516-1.181c0.083-0.796-0.396-2.825-0.396-2.825h1.692c0.656,0,1.189-0.531,1.189-1.188v-8.313
		c0-0.503-0.408-0.912-0.911-0.914l-0.279-0.001v-9.387c0.878-0.534,0.961-0.961,0.961-0.961h-3.521H28.721z"/>
	<polyline fill="#6D6E71" points="169.057,75.38 161.966,75.38 161.966,106.911 169.057,106.911 	"/>
	<path fill="#6D6E71" d="M190.184,77.364H174.77h-73.476c-2.845-8.862-9.515-16.005-18.068-19.491v-9.452h-3.768v-5.946h-4.759
		v-10.02c6.133-1.305,10.997-6.036,12.495-12.095h8.155v-0.679c1.653,5.933,7.402,10.158,14.018,9.402
		c5.918-0.676,10.705-5.477,11.365-11.398c0.873-7.834-5.236-14.468-12.895-14.468c-5.957,0-10.963,4.019-12.488,9.49v-0.38h-8.186
		C85.35,5.239,78.921,0,71.269,0c-7.654,0-14.082,5.239-15.897,12.327h-7.404c-1.698-5.451-6.896-9.359-12.965-9.097
		c-6.65,0.287-12.136,5.799-12.392,12.452c-0.284,7.4,5.63,13.489,12.967,13.489c5.708,0,10.544-3.69,12.281-8.811h7.482
		c1.468,5.931,6.158,10.586,12.108,12.005v10.109h-3.812v5.946h-4.226v9.49h0.016c-8.508,3.501-15.139,10.624-17.973,19.453H30.032
		l-6.874,0.013c-11.02,0.022-19.944,8.952-19.961,19.971l-0.011,7.36v32.62H1.103v7.09h31.529v-7.09h-2.084v-5.942v-26.659h14.899
		c2.57,3.748,5.932,6.909,9.845,9.245c4.705,2.81,10.204,4.428,16.083,4.428c10.768,0,20.266-5.418,25.928-13.673h77.467h14.897"/>
	<line x1="2.417" y1="1289.38" x2="2.417" y2="89.381"/>
	<path fill="#FFFFFF" d="M12.871,239.816H9.35c0,0,0.083,0.427,0.961,0.961v9.387l-0.28,0.001c-0.503,0.002-0.909,0.411-0.909,0.914
		v8.313c0,0.656,0.531,1.188,1.188,1.188h1.692c0,0-0.479,2.029-0.396,2.825c0.054,0.514,0.729,1.181,1.518,1.181
		c0.926,0,1.463-0.667,1.517-1.181c0.082-0.796-0.396-2.825-0.396-2.825h1.691c0.657,0,1.19-0.532,1.19-1.188v-8.313
		c0-0.503-0.408-0.912-0.911-0.914l-0.28-0.001v-9.387c0.878-0.534,0.961-0.961,0.961-0.961h-3.521H12.871z"/>
	<path fill="#FFFFFF" d="M25.371,239.816H21.85c0,0,0.083,0.427,0.961,0.961v9.387l-0.28,0.001
		c-0.503,0.002-0.909,0.411-0.909,0.914v8.313c0,0.656,0.531,1.188,1.188,1.188h1.692c0,0-0.479,2.029-0.396,2.825
		c0.054,0.514,0.729,1.181,1.518,1.181c0.926,0,1.463-0.667,1.516-1.181c0.083-0.796-0.396-2.825-0.396-2.825h1.691
		c0.657,0,1.19-0.532,1.19-1.188v-8.313c0-0.503-0.408-0.912-0.911-0.914l-0.28-0.001v-9.387c0.878-0.534,0.961-0.961,0.961-0.961
		h-3.521H25.371z"/>
	<path fill="#FFFFFF" d="M12.871,297.277H9.35c0,0,0.083,0.427,0.961,0.961v9.387l-0.28,0.001c-0.503,0.002-0.909,0.411-0.909,0.914
		v8.313c0,0.656,0.531,1.188,1.188,1.188h1.692c0,0-0.479,2.029-0.396,2.825c0.054,0.514,0.729,1.182,1.518,1.182
		c0.926,0,1.463-0.668,1.517-1.182c0.082-0.796-0.396-2.825-0.396-2.825h1.691c0.657,0,1.19-0.532,1.19-1.188v-8.313
		c0-0.503-0.408-0.912-0.911-0.914l-0.28-0.001v-9.387c0.878-0.534,0.961-0.961,0.961-0.961h-3.521H12.871z"/>
	<path fill="#FFFFFF" d="M25.371,297.277H21.85c0,0,0.083,0.427,0.961,0.961v9.387l-0.28,0.001
		c-0.503,0.002-0.909,0.411-0.909,0.914v8.313c0,0.656,0.531,1.188,1.188,1.188h1.692c0,0-0.479,2.029-0.396,2.825
		c0.054,0.514,0.729,1.182,1.518,1.182c0.926,0,1.463-0.668,1.516-1.182c0.083-0.796-0.396-2.825-0.396-2.825h1.691
		c0.657,0,1.19-0.532,1.19-1.188v-8.313c0-0.503-0.408-0.912-0.911-0.914l-0.28-0.001v-9.387c0.878-0.534,0.961-0.961,0.961-0.961
		h-3.521H25.371z"/>
	<path fill="#FFFFFF" d="M6.167,267.899H2.646c0,0,0.084,0.427,0.962,0.961v9.387l-0.28,0.001c-0.503,0.002-0.91,0.411-0.91,0.914
		v8.313c0,0.657,0.532,1.188,1.189,1.188h1.691c0,0-0.479,2.029-0.396,2.825c0.053,0.514,0.728,1.181,1.517,1.181
		c0.926,0,1.463-0.667,1.517-1.181c0.082-0.796-0.396-2.825-0.396-2.825h1.692c0.656,0,1.189-0.531,1.189-1.188v-8.313
		c0-0.503-0.408-0.912-0.911-0.914l-0.279-0.001v-9.387c0.878-0.534,0.961-0.961,0.961-0.961H6.67H6.167z"/>
	<path fill="#FFFFFF" d="M18.667,267.899h-3.521c0,0,0.083,0.427,0.961,0.961v9.387l-0.28,0.001c-0.503,0.002-0.91,0.411-0.91,0.914
		v8.313c0,0.657,0.532,1.188,1.189,1.188h1.691c0,0-0.479,2.029-0.396,2.825c0.053,0.514,0.728,1.181,1.517,1.181
		c0.926,0,1.463-0.667,1.516-1.181c0.083-0.796-0.396-2.825-0.396-2.825h1.692c0.656,0,1.189-0.531,1.189-1.188v-8.313
		c0-0.503-0.408-0.912-0.911-0.914l-0.279-0.001v-9.387c0.878-0.534,0.961-0.961,0.961-0.961H19.17H18.667z"/>
	<path fill="#FFFFFF" d="M30.667,267.899h-3.521c0,0,0.084,0.427,0.962,0.961v9.387l-0.28,0.001c-0.503,0.002-0.91,0.411-0.91,0.914
		v8.313c0,0.657,0.532,1.188,1.189,1.188h1.691c0,0-0.479,2.029-0.396,2.825c0.053,0.514,0.728,1.181,1.517,1.181
		c0.926,0,1.463-0.667,1.516-1.181c0.083-0.796-0.396-2.825-0.396-2.825h1.692c0.656,0,1.189-0.531,1.189-1.188v-8.313
		c0-0.503-0.408-0.912-0.911-0.914l-0.279-0.001v-9.387c0.878-0.534,0.961-0.961,0.961-0.961H31.17H30.667z"/>
	<path fill="#FFFFFF" d="M13.925,329.435h-3.521c0,0,0.083,0.427,0.961,0.961v9.387l-0.28,0.001
		c-0.503,0.002-0.909,0.411-0.909,0.914v8.313c0,0.656,0.531,1.188,1.188,1.188h1.692c0,0-0.479,2.029-0.396,2.825
		c0.054,0.514,0.729,1.181,1.518,1.181c0.926,0,1.463-0.667,1.517-1.181c0.082-0.796-0.396-2.825-0.396-2.825h1.691
		c0.657,0,1.19-0.532,1.19-1.188v-8.313c0-0.503-0.408-0.912-0.911-0.914l-0.28-0.001v-9.387c0.878-0.534,0.961-0.961,0.961-0.961
		h-3.521H13.925z"/>
	<path fill="#FFFFFF" d="M26.425,329.435h-3.521c0,0,0.083,0.427,0.961,0.961v9.387l-0.28,0.001
		c-0.503,0.002-0.909,0.411-0.909,0.914v8.313c0,0.656,0.531,1.188,1.188,1.188h1.692c0,0-0.479,2.029-0.396,2.825
		c0.054,0.514,0.729,1.181,1.518,1.181c0.926,0,1.463-0.667,1.516-1.181c0.083-0.796-0.396-2.825-0.396-2.825h1.691
		c0.657,0,1.19-0.532,1.19-1.188v-8.313c0-0.503-0.408-0.912-0.911-0.914l-0.28-0.001v-9.387c0.878-0.534,0.961-0.961,0.961-0.961
		h-3.521H26.425z"/>
	<path fill="#FFFFFF" d="M13.925,386.896h-3.521c0,0,0.083,0.427,0.961,0.961v9.387l-0.28,0.001
		c-0.503,0.002-0.909,0.411-0.909,0.914v8.313c0,0.656,0.531,1.188,1.188,1.188h1.692c0,0-0.479,2.029-0.396,2.825
		c0.054,0.514,0.729,1.182,1.518,1.182c0.926,0,1.463-0.668,1.517-1.182c0.082-0.796-0.396-2.825-0.396-2.825h1.691
		c0.657,0,1.19-0.532,1.19-1.188v-8.313c0-0.503-0.408-0.912-0.911-0.914l-0.28-0.001v-9.387c0.878-0.534,0.961-0.961,0.961-0.961
		h-3.521H13.925z"/>
	<path fill="#FFFFFF" d="M26.425,386.896h-3.521c0,0,0.083,0.427,0.961,0.961v9.387l-0.28,0.001
		c-0.503,0.002-0.909,0.411-0.909,0.914v8.313c0,0.656,0.531,1.188,1.188,1.188h1.692c0,0-0.479,2.029-0.396,2.825
		c0.054,0.514,0.729,1.182,1.518,1.182c0.926,0,1.463-0.668,1.516-1.182c0.083-0.796-0.396-2.825-0.396-2.825h1.691
		c0.657,0,1.19-0.532,1.19-1.188v-8.313c0-0.503-0.408-0.912-0.911-0.914l-0.28-0.001v-9.387c0.878-0.534,0.961-0.961,0.961-0.961
		h-3.521H26.425z"/>
	<path fill="#FFFFFF" d="M7.221,357.518H3.699c0,0,0.084,0.427,0.962,0.961v9.387l-0.28,0.001c-0.503,0.002-0.91,0.411-0.91,0.914
		v8.313c0,0.657,0.532,1.188,1.189,1.188h1.691c0,0-0.479,2.029-0.396,2.825c0.053,0.514,0.728,1.181,1.517,1.181
		c0.926,0,1.463-0.667,1.517-1.181c0.082-0.796-0.396-2.825-0.396-2.825h1.692c0.656,0,1.189-0.531,1.189-1.188v-8.313
		c0-0.503-0.408-0.912-0.911-0.914l-0.279-0.001v-9.387c0.878-0.534,0.961-0.961,0.961-0.961H7.724H7.221z"/>
	<path fill="#FFFFFF" d="M19.721,357.518H16.2c0,0,0.083,0.427,0.961,0.961v9.387l-0.28,0.001c-0.503,0.002-0.91,0.411-0.91,0.914
		v8.313c0,0.657,0.532,1.188,1.189,1.188h1.691c0,0-0.479,2.029-0.396,2.825c0.053,0.514,0.728,1.181,1.517,1.181
		c0.926,0,1.463-0.667,1.516-1.181c0.083-0.796-0.396-2.825-0.396-2.825h1.692c0.656,0,1.189-0.531,1.189-1.188v-8.313
		c0-0.503-0.408-0.912-0.911-0.914l-0.279-0.001v-9.387c0.878-0.534,0.961-0.961,0.961-0.961h-3.521H19.721z"/>
	<path fill="#FFFFFF" d="M31.721,357.518h-3.521c0,0,0.084,0.427,0.962,0.961v9.387l-0.28,0.001c-0.503,0.002-0.91,0.411-0.91,0.914
		v8.313c0,0.657,0.532,1.188,1.189,1.188h1.691c0,0-0.479,2.029-0.396,2.825c0.053,0.514,0.728,1.181,1.517,1.181
		c0.926,0,1.463-0.667,1.516-1.181c0.083-0.796-0.396-2.825-0.396-2.825h1.692c0.656,0,1.189-0.531,1.189-1.188v-8.313
		c0-0.503-0.408-0.912-0.911-0.914l-0.279-0.001v-9.387c0.878-0.534,0.961-0.961,0.961-0.961h-3.521H31.721z"/>
	<line x1="3.471" y1="1472" x2="3.471" y2="272"/>
	<path fill="#FFFFFF" d="M13.925,422.435h-3.521c0,0,0.083,0.427,0.961,0.961v9.387l-0.28,0.001
		c-0.503,0.002-0.909,0.411-0.909,0.914v8.313c0,0.656,0.531,1.188,1.188,1.188h1.692c0,0-0.479,2.029-0.396,2.825
		c0.054,0.514,0.729,1.181,1.518,1.181c0.926,0,1.463-0.667,1.517-1.181c0.082-0.796-0.396-2.825-0.396-2.825h1.691
		c0.657,0,1.19-0.532,1.19-1.188v-8.313c0-0.503-0.408-0.912-0.911-0.914l-0.28-0.001v-9.387c0.878-0.534,0.961-0.961,0.961-0.961
		h-3.521H13.925z"/>
	<path fill="#FFFFFF" d="M26.425,422.435h-3.521c0,0,0.083,0.427,0.961,0.961v9.387l-0.28,0.001
		c-0.503,0.002-0.909,0.411-0.909,0.914v8.313c0,0.656,0.531,1.188,1.188,1.188h1.692c0,0-0.479,2.029-0.396,2.825
		c0.054,0.514,0.729,1.181,1.518,1.181c0.926,0,1.463-0.667,1.516-1.181c0.083-0.796-0.396-2.825-0.396-2.825h1.691
		c0.657,0,1.19-0.532,1.19-1.188v-8.313c0-0.503-0.408-0.912-0.911-0.914l-0.28-0.001v-9.387c0.878-0.534,0.961-0.961,0.961-0.961
		h-3.521H26.425z"/>
	<path fill="#FFFFFF" d="M13.925,479.896h-3.521c0,0,0.083,0.427,0.961,0.961v9.387l-0.28,0.001
		c-0.503,0.002-0.909,0.411-0.909,0.914v8.313c0,0.656,0.531,1.188,1.188,1.188h1.692c0,0-0.479,2.029-0.396,2.825
		c0.054,0.514,0.729,1.182,1.518,1.182c0.926,0,1.463-0.668,1.517-1.182c0.082-0.796-0.396-2.825-0.396-2.825h1.691
		c0.657,0,1.19-0.532,1.19-1.188v-8.313c0-0.503-0.408-0.912-0.911-0.914l-0.28-0.001v-9.387c0.878-0.534,0.961-0.961,0.961-0.961
		h-3.521H13.925z"/>
	<path fill="#FFFFFF" d="M26.425,479.896h-3.521c0,0,0.083,0.427,0.961,0.961v9.387l-0.28,0.001
		c-0.503,0.002-0.909,0.411-0.909,0.914v8.313c0,0.656,0.531,1.188,1.188,1.188h1.692c0,0-0.479,2.029-0.396,2.825
		c0.054,0.514,0.729,1.182,1.518,1.182c0.926,0,1.463-0.668,1.516-1.182c0.083-0.796-0.396-2.825-0.396-2.825h1.691
		c0.657,0,1.19-0.532,1.19-1.188v-8.313c0-0.503-0.408-0.912-0.911-0.914l-0.28-0.001v-9.387c0.878-0.534,0.961-0.961,0.961-0.961
		h-3.521H26.425z"/>
	<path fill="#FFFFFF" d="M7.221,450.518H3.699c0,0,0.084,0.427,0.962,0.961v9.387l-0.28,0.001c-0.503,0.002-0.91,0.411-0.91,0.914
		v8.313c0,0.657,0.532,1.188,1.189,1.188h1.691c0,0-0.479,2.029-0.396,2.825c0.053,0.514,0.728,1.181,1.517,1.181
		c0.926,0,1.463-0.667,1.517-1.181c0.082-0.796-0.396-2.825-0.396-2.825h1.692c0.656,0,1.189-0.531,1.189-1.188v-8.313
		c0-0.503-0.408-0.912-0.911-0.914l-0.279-0.001v-9.387c0.878-0.534,0.961-0.961,0.961-0.961H7.724H7.221z"/>
	<path fill="#FFFFFF" d="M19.721,450.518H16.2c0,0,0.083,0.427,0.961,0.961v9.387l-0.28,0.001c-0.503,0.002-0.91,0.411-0.91,0.914
		v8.313c0,0.657,0.532,1.188,1.189,1.188h1.691c0,0-0.479,2.029-0.396,2.825c0.053,0.514,0.728,1.181,1.517,1.181
		c0.926,0,1.463-0.667,1.516-1.181c0.083-0.796-0.396-2.825-0.396-2.825h1.692c0.656,0,1.189-0.531,1.189-1.188v-8.313
		c0-0.503-0.408-0.912-0.911-0.914l-0.279-0.001v-9.387c0.878-0.534,0.961-0.961,0.961-0.961h-3.521H19.721z"/>
	<path fill="#FFFFFF" d="M31.721,450.518h-3.521c0,0,0.084,0.427,0.962,0.961v9.387l-0.28,0.001c-0.503,0.002-0.91,0.411-0.91,0.914
		v8.313c0,0.657,0.532,1.188,1.189,1.188h1.691c0,0-0.479,2.029-0.396,2.825c0.053,0.514,0.728,1.181,1.517,1.181
		c0.926,0,1.463-0.667,1.516-1.181c0.083-0.796-0.396-2.825-0.396-2.825h1.692c0.656,0,1.189-0.531,1.189-1.188v-8.313
		c0-0.503-0.408-0.912-0.911-0.914l-0.279-0.001v-9.387c0.878-0.534,0.961-0.961,0.961-0.961h-3.521H31.721z"/>
	<line x1="4.606" y1="2005" x2="4.606" y2="805"/>
	<path fill="#FFFFFF" d="M15.061,955.435h-3.521c0,0,0.083,0.427,0.961,0.961v9.387l-0.28,0.001
		c-0.503,0.002-0.909,0.411-0.909,0.914v8.313c0,0.656,0.531,1.188,1.188,1.188h1.692c0,0-0.479,2.029-0.396,2.825
		c0.054,0.514,0.729,1.181,1.518,1.181c0.926,0,1.463-0.667,1.517-1.181c0.082-0.796-0.396-2.825-0.396-2.825h1.691
		c0.657,0,1.19-0.532,1.19-1.188v-8.313c0-0.503-0.408-0.912-0.911-0.914l-0.28-0.001v-9.387c0.878-0.534,0.961-0.961,0.961-0.961
		h-3.521H15.061z"/>
	<path fill="#FFFFFF" d="M27.561,955.435h-3.521c0,0,0.083,0.427,0.961,0.961v9.387l-0.28,0.001
		c-0.503,0.002-0.909,0.411-0.909,0.914v8.313c0,0.656,0.531,1.188,1.188,1.188h1.692c0,0-0.479,2.029-0.396,2.825
		c0.054,0.514,0.729,1.181,1.518,1.181c0.926,0,1.463-0.667,1.516-1.181c0.083-0.796-0.396-2.825-0.396-2.825h1.691
		c0.657,0,1.19-0.532,1.19-1.188v-8.313c0-0.503-0.408-0.912-0.911-0.914l-0.28-0.001v-9.387c0.878-0.534,0.961-0.961,0.961-0.961
		h-3.521H27.561z"/>
	<path fill="#FFFFFF" d="M15.061,1012.896h-3.521c0,0,0.083,0.427,0.961,0.961v9.387l-0.28,0.001
		c-0.503,0.002-0.909,0.411-0.909,0.914v8.313c0,0.656,0.531,1.188,1.188,1.188h1.692c0,0-0.479,2.029-0.396,2.825
		c0.054,0.514,0.729,1.182,1.518,1.182c0.926,0,1.463-0.668,1.517-1.182c0.082-0.796-0.396-2.825-0.396-2.825h1.691
		c0.657,0,1.19-0.532,1.19-1.188v-8.313c0-0.503-0.408-0.912-0.911-0.914l-0.28-0.001v-9.387c0.878-0.534,0.961-0.961,0.961-0.961
		h-3.521H15.061z"/>
	<path fill="#FFFFFF" d="M27.561,1012.896h-3.521c0,0,0.083,0.427,0.961,0.961v9.387l-0.28,0.001
		c-0.503,0.002-0.909,0.411-0.909,0.914v8.313c0,0.656,0.531,1.188,1.188,1.188h1.692c0,0-0.479,2.029-0.396,2.825
		c0.054,0.514,0.729,1.182,1.518,1.182c0.926,0,1.463-0.668,1.516-1.182c0.083-0.796-0.396-2.825-0.396-2.825h1.691
		c0.657,0,1.19-0.532,1.19-1.188v-8.313c0-0.503-0.408-0.912-0.911-0.914l-0.28-0.001v-9.387c0.878-0.534,0.961-0.961,0.961-0.961
		h-3.521H27.561z"/>
	<path fill="#FFFFFF" d="M8.356,983.518H4.835c0,0,0.084,0.427,0.962,0.961v9.387l-0.28,0.001c-0.503,0.002-0.91,0.411-0.91,0.914
		v8.313c0,0.657,0.532,1.188,1.189,1.188h1.691c0,0-0.479,2.029-0.396,2.825c0.053,0.514,0.728,1.181,1.517,1.181
		c0.926,0,1.463-0.667,1.517-1.181c0.082-0.796-0.396-2.825-0.396-2.825h1.692c0.656,0,1.189-0.531,1.189-1.188v-8.313
		c0-0.503-0.408-0.912-0.911-0.914l-0.279-0.001v-9.387c0.878-0.534,0.961-0.961,0.961-0.961H8.859H8.356z"/>
	<path fill="#FFFFFF" d="M20.856,983.518h-3.521c0,0,0.083,0.427,0.961,0.961v9.387l-0.28,0.001c-0.503,0.002-0.91,0.411-0.91,0.914
		v8.313c0,0.657,0.532,1.188,1.189,1.188h1.691c0,0-0.479,2.029-0.396,2.825c0.053,0.514,0.728,1.181,1.517,1.181
		c0.926,0,1.463-0.667,1.516-1.181c0.083-0.796-0.396-2.825-0.396-2.825h1.692c0.656,0,1.189-0.531,1.189-1.188v-8.313
		c0-0.503-0.408-0.912-0.911-0.914l-0.279-0.001v-9.387c0.878-0.534,0.961-0.961,0.961-0.961h-3.521H20.856z"/>
	<path fill="#FFFFFF" d="M32.856,983.518h-3.521c0,0,0.084,0.427,0.962,0.961v9.387l-0.28,0.001c-0.503,0.002-0.91,0.411-0.91,0.914
		v8.313c0,0.657,0.532,1.188,1.189,1.188h1.691c0,0-0.479,2.029-0.396,2.825c0.053,0.514,0.728,1.181,1.517,1.181
		c0.926,0,1.463-0.667,1.516-1.181c0.083-0.796-0.396-2.825-0.396-2.825h1.692c0.656,0,1.189-0.531,1.189-1.188v-8.313
		c0-0.503-0.408-0.912-0.911-0.914l-0.279-0.001v-9.387c0.878-0.534,0.961-0.961,0.961-0.961h-3.521H32.856z"/>
	<line x1="4.606" y1="1914.5" x2="4.606" y2="714.5"/>
	<path fill="#FFFFFF" d="M15.061,864.935h-3.521c0,0,0.083,0.427,0.961,0.961v9.387l-0.28,0.001
		c-0.503,0.002-0.909,0.411-0.909,0.914v8.313c0,0.656,0.531,1.188,1.188,1.188h1.692c0,0-0.479,2.029-0.396,2.825
		c0.054,0.514,0.729,1.181,1.518,1.181c0.926,0,1.463-0.667,1.517-1.181c0.082-0.796-0.396-2.825-0.396-2.825h1.691
		c0.657,0,1.19-0.532,1.19-1.188v-8.313c0-0.503-0.408-0.912-0.911-0.914l-0.28-0.001v-9.387c0.878-0.534,0.961-0.961,0.961-0.961
		h-3.521H15.061z"/>
	<path fill="#FFFFFF" d="M27.561,864.935h-3.521c0,0,0.083,0.427,0.961,0.961v9.387l-0.28,0.001
		c-0.503,0.002-0.909,0.411-0.909,0.914v8.313c0,0.656,0.531,1.188,1.188,1.188h1.692c0,0-0.479,2.029-0.396,2.825
		c0.054,0.514,0.729,1.181,1.518,1.181c0.926,0,1.463-0.667,1.516-1.181c0.083-0.796-0.396-2.825-0.396-2.825h1.691
		c0.657,0,1.19-0.532,1.19-1.188v-8.313c0-0.503-0.408-0.912-0.911-0.914l-0.28-0.001v-9.387c0.878-0.534,0.961-0.961,0.961-0.961
		h-3.521H27.561z"/>
	<path fill="#FFFFFF" d="M15.061,922.396h-3.521c0,0,0.083,0.427,0.961,0.961v9.387l-0.28,0.001
		c-0.503,0.002-0.909,0.411-0.909,0.914v8.313c0,0.656,0.531,1.188,1.188,1.188h1.692c0,0-0.479,2.029-0.396,2.825
		c0.054,0.514,0.729,1.182,1.518,1.182c0.926,0,1.463-0.668,1.517-1.182c0.082-0.796-0.396-2.825-0.396-2.825h1.691
		c0.657,0,1.19-0.532,1.19-1.188v-8.313c0-0.503-0.408-0.912-0.911-0.914l-0.28-0.001v-9.387c0.878-0.534,0.961-0.961,0.961-0.961
		h-3.521H15.061z"/>
	<path fill="#FFFFFF" d="M27.561,922.396h-3.521c0,0,0.083,0.427,0.961,0.961v9.387l-0.28,0.001
		c-0.503,0.002-0.909,0.411-0.909,0.914v8.313c0,0.656,0.531,1.188,1.188,1.188h1.692c0,0-0.479,2.029-0.396,2.825
		c0.054,0.514,0.729,1.182,1.518,1.182c0.926,0,1.463-0.668,1.516-1.182c0.083-0.796-0.396-2.825-0.396-2.825h1.691
		c0.657,0,1.19-0.532,1.19-1.188v-8.313c0-0.503-0.408-0.912-0.911-0.914l-0.28-0.001v-9.387c0.878-0.534,0.961-0.961,0.961-0.961
		h-3.521H27.561z"/>
	<path fill="#FFFFFF" d="M8.356,893.018H4.835c0,0,0.084,0.427,0.962,0.961v9.387l-0.28,0.001c-0.503,0.002-0.91,0.411-0.91,0.914
		v8.313c0,0.657,0.532,1.188,1.189,1.188h1.691c0,0-0.479,2.029-0.396,2.825c0.053,0.514,0.728,1.181,1.517,1.181
		c0.926,0,1.463-0.667,1.517-1.181c0.082-0.796-0.396-2.825-0.396-2.825h1.692c0.656,0,1.189-0.531,1.189-1.188v-8.313
		c0-0.503-0.408-0.912-0.911-0.914l-0.279-0.001v-9.387c0.878-0.534,0.961-0.961,0.961-0.961H8.859H8.356z"/>
	<path fill="#FFFFFF" d="M20.856,893.018h-3.521c0,0,0.083,0.427,0.961,0.961v9.387l-0.28,0.001c-0.503,0.002-0.91,0.411-0.91,0.914
		v8.313c0,0.657,0.532,1.188,1.189,1.188h1.691c0,0-0.479,2.029-0.396,2.825c0.053,0.514,0.728,1.181,1.517,1.181
		c0.926,0,1.463-0.667,1.516-1.181c0.083-0.796-0.396-2.825-0.396-2.825h1.692c0.656,0,1.189-0.531,1.189-1.188v-8.313
		c0-0.503-0.408-0.912-0.911-0.914l-0.279-0.001v-9.387c0.878-0.534,0.961-0.961,0.961-0.961h-3.521H20.856z"/>
	<path fill="#FFFFFF" d="M32.856,893.018h-3.521c0,0,0.084,0.427,0.962,0.961v9.387l-0.28,0.001c-0.503,0.002-0.91,0.411-0.91,0.914
		v8.313c0,0.657,0.532,1.188,1.189,1.188h1.691c0,0-0.479,2.029-0.396,2.825c0.053,0.514,0.728,1.181,1.517,1.181
		c0.926,0,1.463-0.667,1.516-1.181c0.083-0.796-0.396-2.825-0.396-2.825h1.692c0.656,0,1.189-0.531,1.189-1.188v-8.313
		c0-0.503-0.408-0.912-0.911-0.914l-0.279-0.001v-9.387c0.878-0.534,0.961-0.961,0.961-0.961h-3.521H32.856z"/>
	<line x1="4.606" y1="1827.5" x2="4.606" y2="627.5"/>
	<path fill="#FFFFFF" d="M15.061,777.935h-3.521c0,0,0.083,0.427,0.961,0.961v9.387l-0.28,0.001
		c-0.503,0.002-0.909,0.411-0.909,0.914v8.313c0,0.656,0.531,1.188,1.188,1.188h1.692c0,0-0.479,2.029-0.396,2.825
		c0.054,0.514,0.729,1.181,1.518,1.181c0.926,0,1.463-0.667,1.517-1.181c0.082-0.796-0.396-2.825-0.396-2.825h1.691
		c0.657,0,1.19-0.532,1.19-1.188v-8.313c0-0.503-0.408-0.912-0.911-0.914l-0.28-0.001v-9.387c0.878-0.534,0.961-0.961,0.961-0.961
		h-3.521H15.061z"/>
	<path fill="#FFFFFF" d="M27.561,777.935h-3.521c0,0,0.083,0.427,0.961,0.961v9.387l-0.28,0.001
		c-0.503,0.002-0.909,0.411-0.909,0.914v8.313c0,0.656,0.531,1.188,1.188,1.188h1.692c0,0-0.479,2.029-0.396,2.825
		c0.054,0.514,0.729,1.181,1.518,1.181c0.926,0,1.463-0.667,1.516-1.181c0.083-0.796-0.396-2.825-0.396-2.825h1.691
		c0.657,0,1.19-0.532,1.19-1.188v-8.313c0-0.503-0.408-0.912-0.911-0.914l-0.28-0.001v-9.387c0.878-0.534,0.961-0.961,0.961-0.961
		h-3.521H27.561z"/>
	<path fill="#FFFFFF" d="M15.061,835.396h-3.521c0,0,0.083,0.427,0.961,0.961v9.387l-0.28,0.001
		c-0.503,0.002-0.909,0.411-0.909,0.914v8.313c0,0.656,0.531,1.188,1.188,1.188h1.692c0,0-0.479,2.029-0.396,2.825
		c0.054,0.514,0.729,1.182,1.518,1.182c0.926,0,1.463-0.668,1.517-1.182c0.082-0.796-0.396-2.825-0.396-2.825h1.691
		c0.657,0,1.19-0.532,1.19-1.188v-8.313c0-0.503-0.408-0.912-0.911-0.914l-0.28-0.001v-9.387c0.878-0.534,0.961-0.961,0.961-0.961
		h-3.521H15.061z"/>
	<path fill="#FFFFFF" d="M27.561,835.396h-3.521c0,0,0.083,0.427,0.961,0.961v9.387l-0.28,0.001
		c-0.503,0.002-0.909,0.411-0.909,0.914v8.313c0,0.656,0.531,1.188,1.188,1.188h1.692c0,0-0.479,2.029-0.396,2.825
		c0.054,0.514,0.729,1.182,1.518,1.182c0.926,0,1.463-0.668,1.516-1.182c0.083-0.796-0.396-2.825-0.396-2.825h1.691
		c0.657,0,1.19-0.532,1.19-1.188v-8.313c0-0.503-0.408-0.912-0.911-0.914l-0.28-0.001v-9.387c0.878-0.534,0.961-0.961,0.961-0.961
		h-3.521H27.561z"/>
	<path fill="#FFFFFF" d="M8.356,806.018H4.835c0,0,0.084,0.427,0.962,0.961v9.387l-0.28,0.001c-0.503,0.002-0.91,0.411-0.91,0.914
		v8.313c0,0.657,0.532,1.188,1.189,1.188h1.691c0,0-0.479,2.029-0.396,2.825c0.053,0.514,0.728,1.181,1.517,1.181
		c0.926,0,1.463-0.667,1.517-1.181c0.082-0.796-0.396-2.825-0.396-2.825h1.692c0.656,0,1.189-0.531,1.189-1.188v-8.313
		c0-0.503-0.408-0.912-0.911-0.914l-0.279-0.001v-9.387c0.878-0.534,0.961-0.961,0.961-0.961H8.859H8.356z"/>
	<path fill="#FFFFFF" d="M20.856,806.018h-3.521c0,0,0.083,0.427,0.961,0.961v9.387l-0.28,0.001c-0.503,0.002-0.91,0.411-0.91,0.914
		v8.313c0,0.657,0.532,1.188,1.189,1.188h1.691c0,0-0.479,2.029-0.396,2.825c0.053,0.514,0.728,1.181,1.517,1.181
		c0.926,0,1.463-0.667,1.516-1.181c0.083-0.796-0.396-2.825-0.396-2.825h1.692c0.656,0,1.189-0.531,1.189-1.188v-8.313
		c0-0.503-0.408-0.912-0.911-0.914l-0.279-0.001v-9.387c0.878-0.534,0.961-0.961,0.961-0.961h-3.521H20.856z"/>
	<path fill="#FFFFFF" d="M32.856,806.018h-3.521c0,0,0.084,0.427,0.962,0.961v9.387l-0.28,0.001c-0.503,0.002-0.91,0.411-0.91,0.914
		v8.313c0,0.657,0.532,1.188,1.189,1.188h1.691c0,0-0.479,2.029-0.396,2.825c0.053,0.514,0.728,1.181,1.517,1.181
		c0.926,0,1.463-0.667,1.516-1.181c0.083-0.796-0.396-2.825-0.396-2.825h1.692c0.656,0,1.189-0.531,1.189-1.188v-8.313
		c0-0.503-0.408-0.912-0.911-0.914l-0.279-0.001v-9.387c0.878-0.534,0.961-0.961,0.961-0.961h-3.521H32.856z"/>
	<line x1="4.606" y1="1736.5" x2="4.606" y2="536.5"/>
	<path fill="#FFFFFF" d="M15.061,686.935h-3.521c0,0,0.083,0.427,0.961,0.961v9.387l-0.28,0.001
		c-0.503,0.002-0.909,0.411-0.909,0.914v8.313c0,0.656,0.531,1.188,1.188,1.188h1.692c0,0-0.479,2.029-0.396,2.825
		c0.054,0.514,0.729,1.181,1.518,1.181c0.926,0,1.463-0.667,1.517-1.181c0.082-0.796-0.396-2.825-0.396-2.825h1.691
		c0.657,0,1.19-0.532,1.19-1.188v-8.313c0-0.503-0.408-0.912-0.911-0.914l-0.28-0.001v-9.387c0.878-0.534,0.961-0.961,0.961-0.961
		h-3.521H15.061z"/>
	<path fill="#FFFFFF" d="M27.561,686.935h-3.521c0,0,0.083,0.427,0.961,0.961v9.387l-0.28,0.001
		c-0.503,0.002-0.909,0.411-0.909,0.914v8.313c0,0.656,0.531,1.188,1.188,1.188h1.692c0,0-0.479,2.029-0.396,2.825
		c0.054,0.514,0.729,1.181,1.518,1.181c0.926,0,1.463-0.667,1.516-1.181c0.083-0.796-0.396-2.825-0.396-2.825h1.691
		c0.657,0,1.19-0.532,1.19-1.188v-8.313c0-0.503-0.408-0.912-0.911-0.914l-0.28-0.001v-9.387c0.878-0.534,0.961-0.961,0.961-0.961
		h-3.521H27.561z"/>
	<path fill="#FFFFFF" d="M15.061,744.396h-3.521c0,0,0.083,0.427,0.961,0.961v9.387l-0.28,0.001
		c-0.503,0.002-0.909,0.411-0.909,0.914v8.313c0,0.656,0.531,1.188,1.188,1.188h1.692c0,0-0.479,2.029-0.396,2.825
		c0.054,0.514,0.729,1.182,1.518,1.182c0.926,0,1.463-0.668,1.517-1.182c0.082-0.796-0.396-2.825-0.396-2.825h1.691
		c0.657,0,1.19-0.532,1.19-1.188v-8.313c0-0.503-0.408-0.912-0.911-0.914l-0.28-0.001v-9.387c0.878-0.534,0.961-0.961,0.961-0.961
		h-3.521H15.061z"/>
	<path fill="#FFFFFF" d="M27.561,744.396h-3.521c0,0,0.083,0.427,0.961,0.961v9.387l-0.28,0.001
		c-0.503,0.002-0.909,0.411-0.909,0.914v8.313c0,0.656,0.531,1.188,1.188,1.188h1.692c0,0-0.479,2.029-0.396,2.825
		c0.054,0.514,0.729,1.182,1.518,1.182c0.926,0,1.463-0.668,1.516-1.182c0.083-0.796-0.396-2.825-0.396-2.825h1.691
		c0.657,0,1.19-0.532,1.19-1.188v-8.313c0-0.503-0.408-0.912-0.911-0.914l-0.28-0.001v-9.387c0.878-0.534,0.961-0.961,0.961-0.961
		h-3.521H27.561z"/>
	<path fill="#FFFFFF" d="M8.356,715.018H4.835c0,0,0.084,0.427,0.962,0.961v9.387l-0.28,0.001c-0.503,0.002-0.91,0.411-0.91,0.914
		v8.313c0,0.657,0.532,1.188,1.189,1.188h1.691c0,0-0.479,2.029-0.396,2.825c0.053,0.514,0.728,1.181,1.517,1.181
		c0.926,0,1.463-0.667,1.517-1.181c0.082-0.796-0.396-2.825-0.396-2.825h1.692c0.656,0,1.189-0.531,1.189-1.188v-8.313
		c0-0.503-0.408-0.912-0.911-0.914l-0.279-0.001v-9.387c0.878-0.534,0.961-0.961,0.961-0.961H8.859H8.356z"/>
	<path fill="#FFFFFF" d="M20.856,715.018h-3.521c0,0,0.083,0.427,0.961,0.961v9.387l-0.28,0.001c-0.503,0.002-0.91,0.411-0.91,0.914
		v8.313c0,0.657,0.532,1.188,1.189,1.188h1.691c0,0-0.479,2.029-0.396,2.825c0.053,0.514,0.728,1.181,1.517,1.181
		c0.926,0,1.463-0.667,1.516-1.181c0.083-0.796-0.396-2.825-0.396-2.825h1.692c0.656,0,1.189-0.531,1.189-1.188v-8.313
		c0-0.503-0.408-0.912-0.911-0.914l-0.279-0.001v-9.387c0.878-0.534,0.961-0.961,0.961-0.961h-3.521H20.856z"/>
	<path fill="#FFFFFF" d="M32.856,715.018h-3.521c0,0,0.084,0.427,0.962,0.961v9.387l-0.28,0.001c-0.503,0.002-0.91,0.411-0.91,0.914
		v8.313c0,0.657,0.532,1.188,1.189,1.188h1.691c0,0-0.479,2.029-0.396,2.825c0.053,0.514,0.728,1.181,1.517,1.181
		c0.926,0,1.463-0.667,1.516-1.181c0.083-0.796-0.396-2.825-0.396-2.825h1.692c0.656,0,1.189-0.531,1.189-1.188v-8.313
		c0-0.503-0.408-0.912-0.911-0.914l-0.279-0.001v-9.387c0.878-0.534,0.961-0.961,0.961-0.961h-3.521H32.856z"/>
	<line x1="4.606" y1="1646" x2="4.606" y2="446"/>
	<path fill="#FFFFFF" d="M15.061,596.435h-3.521c0,0,0.083,0.427,0.961,0.961v9.387l-0.28,0.001
		c-0.503,0.002-0.909,0.411-0.909,0.914v8.313c0,0.656,0.531,1.188,1.188,1.188h1.692c0,0-0.479,2.029-0.396,2.825
		c0.054,0.514,0.729,1.181,1.518,1.181c0.926,0,1.463-0.667,1.517-1.181c0.082-0.796-0.396-2.825-0.396-2.825h1.691
		c0.657,0,1.19-0.532,1.19-1.188v-8.313c0-0.503-0.408-0.912-0.911-0.914l-0.28-0.001v-9.387c0.878-0.534,0.961-0.961,0.961-0.961
		h-3.521H15.061z"/>
	<path fill="#FFFFFF" d="M27.561,596.435h-3.521c0,0,0.083,0.427,0.961,0.961v9.387l-0.28,0.001
		c-0.503,0.002-0.909,0.411-0.909,0.914v8.313c0,0.656,0.531,1.188,1.188,1.188h1.692c0,0-0.479,2.029-0.396,2.825
		c0.054,0.514,0.729,1.181,1.518,1.181c0.926,0,1.463-0.667,1.516-1.181c0.083-0.796-0.396-2.825-0.396-2.825h1.691
		c0.657,0,1.19-0.532,1.19-1.188v-8.313c0-0.503-0.408-0.912-0.911-0.914l-0.28-0.001v-9.387c0.878-0.534,0.961-0.961,0.961-0.961
		h-3.521H27.561z"/>
	<path fill="#FFFFFF" d="M15.061,653.896h-3.521c0,0,0.083,0.427,0.961,0.961v9.387l-0.28,0.001
		c-0.503,0.002-0.909,0.411-0.909,0.914v8.313c0,0.656,0.531,1.188,1.188,1.188h1.692c0,0-0.479,2.029-0.396,2.825
		c0.054,0.514,0.729,1.182,1.518,1.182c0.926,0,1.463-0.668,1.517-1.182c0.082-0.796-0.396-2.825-0.396-2.825h1.691
		c0.657,0,1.19-0.532,1.19-1.188v-8.313c0-0.503-0.408-0.912-0.911-0.914l-0.28-0.001v-9.387c0.878-0.534,0.961-0.961,0.961-0.961
		h-3.521H15.061z"/>
	<path fill="#FFFFFF" d="M27.561,653.896h-3.521c0,0,0.083,0.427,0.961,0.961v9.387l-0.28,0.001
		c-0.503,0.002-0.909,0.411-0.909,0.914v8.313c0,0.656,0.531,1.188,1.188,1.188h1.692c0,0-0.479,2.029-0.396,2.825
		c0.054,0.514,0.729,1.182,1.518,1.182c0.926,0,1.463-0.668,1.516-1.182c0.083-0.796-0.396-2.825-0.396-2.825h1.691
		c0.657,0,1.19-0.532,1.19-1.188v-8.313c0-0.503-0.408-0.912-0.911-0.914l-0.28-0.001v-9.387c0.878-0.534,0.961-0.961,0.961-0.961
		h-3.521H27.561z"/>
	<path fill="#FFFFFF" d="M8.356,624.518H4.835c0,0,0.084,0.427,0.962,0.961v9.387l-0.28,0.001c-0.503,0.002-0.91,0.411-0.91,0.914
		v8.313c0,0.657,0.532,1.188,1.189,1.188h1.691c0,0-0.479,2.029-0.396,2.825c0.053,0.514,0.728,1.181,1.517,1.181
		c0.926,0,1.463-0.667,1.517-1.181c0.082-0.796-0.396-2.825-0.396-2.825h1.692c0.656,0,1.189-0.531,1.189-1.188v-8.313
		c0-0.503-0.408-0.912-0.911-0.914l-0.279-0.001v-9.387c0.878-0.534,0.961-0.961,0.961-0.961H8.859H8.356z"/>
	<path fill="#FFFFFF" d="M20.856,624.518h-3.521c0,0,0.083,0.427,0.961,0.961v9.387l-0.28,0.001c-0.503,0.002-0.91,0.411-0.91,0.914
		v8.313c0,0.657,0.532,1.188,1.189,1.188h1.691c0,0-0.479,2.029-0.396,2.825c0.053,0.514,0.728,1.181,1.517,1.181
		c0.926,0,1.463-0.667,1.516-1.181c0.083-0.796-0.396-2.825-0.396-2.825h1.692c0.656,0,1.189-0.531,1.189-1.188v-8.313
		c0-0.503-0.408-0.912-0.911-0.914l-0.279-0.001v-9.387c0.878-0.534,0.961-0.961,0.961-0.961h-3.521H20.856z"/>
	<path fill="#FFFFFF" d="M32.856,624.518h-3.521c0,0,0.084,0.427,0.962,0.961v9.387l-0.28,0.001c-0.503,0.002-0.91,0.411-0.91,0.914
		v8.313c0,0.657,0.532,1.188,1.189,1.188h1.691c0,0-0.479,2.029-0.396,2.825c0.053,0.514,0.728,1.181,1.517,1.181
		c0.926,0,1.463-0.667,1.516-1.181c0.083-0.796-0.396-2.825-0.396-2.825h1.692c0.656,0,1.189-0.531,1.189-1.188v-8.313
		c0-0.503-0.408-0.912-0.911-0.914l-0.279-0.001v-9.387c0.878-0.534,0.961-0.961,0.961-0.961h-3.521H32.856z"/>
	<line x1="4.606" y1="1559" x2="4.606" y2="359"/>
	<path fill="#FFFFFF" d="M15.061,509.435h-3.521c0,0,0.083,0.427,0.961,0.961v9.387l-0.28,0.001
		c-0.503,0.002-0.909,0.411-0.909,0.914v8.313c0,0.656,0.531,1.188,1.188,1.188h1.692c0,0-0.479,2.029-0.396,2.825
		c0.054,0.514,0.729,1.181,1.518,1.181c0.926,0,1.463-0.667,1.517-1.181c0.082-0.796-0.396-2.825-0.396-2.825h1.691
		c0.657,0,1.19-0.532,1.19-1.188v-8.313c0-0.503-0.408-0.912-0.911-0.914l-0.28-0.001v-9.387c0.878-0.534,0.961-0.961,0.961-0.961
		h-3.521H15.061z"/>
	<path fill="#FFFFFF" d="M27.561,509.435h-3.521c0,0,0.083,0.427,0.961,0.961v9.387l-0.28,0.001
		c-0.503,0.002-0.909,0.411-0.909,0.914v8.313c0,0.656,0.531,1.188,1.188,1.188h1.692c0,0-0.479,2.029-0.396,2.825
		c0.054,0.514,0.729,1.181,1.518,1.181c0.926,0,1.463-0.667,1.516-1.181c0.083-0.796-0.396-2.825-0.396-2.825h1.691
		c0.657,0,1.19-0.532,1.19-1.188v-8.313c0-0.503-0.408-0.912-0.911-0.914l-0.28-0.001v-9.387c0.878-0.534,0.961-0.961,0.961-0.961
		h-3.521H27.561z"/>
	<path fill="#FFFFFF" d="M15.061,566.896h-3.521c0,0,0.083,0.427,0.961,0.961v9.387l-0.28,0.001
		c-0.503,0.002-0.909,0.411-0.909,0.914v8.313c0,0.656,0.531,1.188,1.188,1.188h1.692c0,0-0.479,2.029-0.396,2.825
		c0.054,0.514,0.729,1.182,1.518,1.182c0.926,0,1.463-0.668,1.517-1.182c0.082-0.796-0.396-2.825-0.396-2.825h1.691
		c0.657,0,1.19-0.532,1.19-1.188v-8.313c0-0.503-0.408-0.912-0.911-0.914l-0.28-0.001v-9.387c0.878-0.534,0.961-0.961,0.961-0.961
		h-3.521H15.061z"/>
	<path fill="#FFFFFF" d="M27.561,566.896h-3.521c0,0,0.083,0.427,0.961,0.961v9.387l-0.28,0.001
		c-0.503,0.002-0.909,0.411-0.909,0.914v8.313c0,0.656,0.531,1.188,1.188,1.188h1.692c0,0-0.479,2.029-0.396,2.825
		c0.054,0.514,0.729,1.182,1.518,1.182c0.926,0,1.463-0.668,1.516-1.182c0.083-0.796-0.396-2.825-0.396-2.825h1.691
		c0.657,0,1.19-0.532,1.19-1.188v-8.313c0-0.503-0.408-0.912-0.911-0.914l-0.28-0.001v-9.387c0.878-0.534,0.961-0.961,0.961-0.961
		h-3.521H27.561z"/>
	<path fill="#FFFFFF" d="M8.356,537.518H4.835c0,0,0.084,0.427,0.962,0.961v9.387l-0.28,0.001c-0.503,0.002-0.91,0.411-0.91,0.914
		v8.313c0,0.657,0.532,1.188,1.189,1.188h1.691c0,0-0.479,2.029-0.396,2.825c0.053,0.514,0.728,1.181,1.517,1.181
		c0.926,0,1.463-0.667,1.517-1.181c0.082-0.796-0.396-2.825-0.396-2.825h1.692c0.656,0,1.189-0.531,1.189-1.188v-8.313
		c0-0.503-0.408-0.912-0.911-0.914l-0.279-0.001v-9.387c0.878-0.534,0.961-0.961,0.961-0.961H8.859H8.356z"/>
	<path fill="#FFFFFF" d="M20.856,537.518h-3.521c0,0,0.083,0.427,0.961,0.961v9.387l-0.28,0.001c-0.503,0.002-0.91,0.411-0.91,0.914
		v8.313c0,0.657,0.532,1.188,1.189,1.188h1.691c0,0-0.479,2.029-0.396,2.825c0.053,0.514,0.728,1.181,1.517,1.181
		c0.926,0,1.463-0.667,1.516-1.181c0.083-0.796-0.396-2.825-0.396-2.825h1.692c0.656,0,1.189-0.531,1.189-1.188v-8.313
		c0-0.503-0.408-0.912-0.911-0.914l-0.279-0.001v-9.387c0.878-0.534,0.961-0.961,0.961-0.961h-3.521H20.856z"/>
	<path fill="#FFFFFF" d="M32.856,537.518h-3.521c0,0,0.084,0.427,0.962,0.961v9.387l-0.28,0.001c-0.503,0.002-0.91,0.411-0.91,0.914
		v8.313c0,0.657,0.532,1.188,1.189,1.188h1.691c0,0-0.479,2.029-0.396,2.825c0.053,0.514,0.728,1.181,1.517,1.181
		c0.926,0,1.463-0.667,1.516-1.181c0.083-0.796-0.396-2.825-0.396-2.825h1.692c0.656,0,1.189-0.531,1.189-1.188v-8.313
		c0-0.503-0.408-0.912-0.911-0.914l-0.279-0.001v-9.387c0.878-0.534,0.961-0.961,0.961-0.961h-3.521H32.856z"/>
	<line x1="4.811" y1="2271.382" x2="4.811" y2="1071.382"/>
	<path fill="#FFFFFF" d="M16.265,1221.818h-3.521c0,0,0.083,0.427,0.961,0.961v9.387l-0.28,0.001
		c-0.503,0.002-0.909,0.411-0.909,0.914v8.313c0,0.656,0.531,1.188,1.188,1.188h1.692c0,0-0.479,2.029-0.396,2.825
		c0.054,0.514,0.729,1.181,1.518,1.181c0.926,0,1.463-0.667,1.517-1.181c0.082-0.796-0.396-2.825-0.396-2.825h1.691
		c0.657,0,1.19-0.532,1.19-1.188v-8.313c0-0.503-0.408-0.912-0.911-0.914l-0.28-0.001v-9.387c0.878-0.534,0.961-0.961,0.961-0.961
		h-3.521H16.265z"/>
	<path fill="#FFFFFF" d="M28.765,1221.818h-3.521c0,0,0.083,0.427,0.961,0.961v9.387l-0.28,0.001
		c-0.503,0.002-0.909,0.411-0.909,0.914v8.313c0,0.656,0.531,1.188,1.188,1.188h1.692c0,0-0.479,2.029-0.396,2.825
		c0.054,0.514,0.729,1.181,1.518,1.181c0.926,0,1.463-0.667,1.516-1.181c0.083-0.796-0.396-2.825-0.396-2.825h1.691
		c0.657,0,1.19-0.532,1.19-1.188v-8.313c0-0.503-0.408-0.912-0.911-0.914l-0.28-0.001v-9.387c0.878-0.534,0.961-0.961,0.961-0.961
		h-3.521H28.765z"/>
	<path fill="#FFFFFF" d="M16.265,1279.279h-3.521c0,0,0.083,0.427,0.961,0.961v9.387l-0.28,0.001
		c-0.503,0.002-0.909,0.411-0.909,0.914v8.313c0,0.656,0.531,1.188,1.188,1.188h1.692c0,0-0.479,2.029-0.396,2.825
		c0.054,0.514,0.729,1.182,1.518,1.182c0.926,0,1.463-0.668,1.517-1.182c0.082-0.796-0.396-2.825-0.396-2.825h1.691
		c0.657,0,1.19-0.532,1.19-1.188v-8.313c0-0.503-0.408-0.912-0.911-0.914l-0.28-0.001v-9.387c0.878-0.534,0.961-0.961,0.961-0.961
		h-3.521H16.265z"/>
	<path fill="#FFFFFF" d="M28.765,1279.279h-3.521c0,0,0.083,0.427,0.961,0.961v9.387l-0.28,0.001
		c-0.503,0.002-0.909,0.411-0.909,0.914v8.313c0,0.656,0.531,1.188,1.188,1.188h1.692c0,0-0.479,2.029-0.396,2.825
		c0.054,0.514,0.729,1.182,1.518,1.182c0.926,0,1.463-0.668,1.516-1.182c0.083-0.796-0.396-2.825-0.396-2.825h1.691
		c0.657,0,1.19-0.532,1.19-1.188v-8.313c0-0.503-0.408-0.912-0.911-0.914l-0.28-0.001v-9.387c0.878-0.534,0.961-0.961,0.961-0.961
		h-3.521H28.765z"/>
	<path fill="#FFFFFF" d="M9.561,1249.901H6.039c0,0,0.084,0.427,0.962,0.961v9.387l-0.28,0.001c-0.503,0.002-0.91,0.411-0.91,0.914
		v8.313c0,0.657,0.532,1.188,1.189,1.188h1.691c0,0-0.479,2.029-0.396,2.825c0.053,0.514,0.728,1.181,1.517,1.181
		c0.926,0,1.463-0.667,1.517-1.181c0.082-0.796-0.396-2.825-0.396-2.825h1.692c0.656,0,1.189-0.531,1.189-1.188v-8.313
		c0-0.503-0.408-0.912-0.911-0.914l-0.279-0.001v-9.387c0.878-0.534,0.961-0.961,0.961-0.961h-3.521H9.561z"/>
	<path fill="#FFFFFF" d="M22.061,1249.901H18.54c0,0,0.083,0.427,0.961,0.961v9.387l-0.28,0.001c-0.503,0.002-0.91,0.411-0.91,0.914
		v8.313c0,0.657,0.532,1.188,1.189,1.188h1.691c0,0-0.479,2.029-0.396,2.825c0.053,0.514,0.728,1.181,1.517,1.181
		c0.926,0,1.463-0.667,1.516-1.181c0.083-0.796-0.396-2.825-0.396-2.825h1.692c0.656,0,1.189-0.531,1.189-1.188v-8.313
		c0-0.503-0.408-0.912-0.911-0.914l-0.279-0.001v-9.387c0.878-0.534,0.961-0.961,0.961-0.961h-3.521H22.061z"/>
	<path fill="#FFFFFF" d="M34.061,1249.901h-3.521c0,0,0.084,0.427,0.962,0.961v9.387l-0.28,0.001
		c-0.503,0.002-0.91,0.411-0.91,0.914v8.313c0,0.657,0.532,1.188,1.189,1.188h1.691c0,0-0.479,2.029-0.396,2.825
		c0.053,0.514,0.728,1.181,1.517,1.181c0.926,0,1.463-0.667,1.516-1.181c0.083-0.796-0.396-2.825-0.396-2.825h1.692
		c0.656,0,1.189-0.531,1.189-1.188v-8.313c0-0.503-0.408-0.912-0.911-0.914l-0.279-0.001v-9.387
		c0.878-0.534,0.961-0.961,0.961-0.961h-3.521H34.061z"/>
	<line x1="4.811" y1="2180.882" x2="4.811" y2="980.882"/>
	<path fill="#FFFFFF" d="M15.265,1131.318h-3.521c0,0,0.083,0.427,0.961,0.961v9.387l-0.28,0.001
		c-0.503,0.002-0.909,0.411-0.909,0.914v8.313c0,0.656,0.531,1.188,1.188,1.188h1.692c0,0-0.479,2.029-0.396,2.825
		c0.054,0.514,0.729,1.181,1.518,1.181c0.926,0,1.463-0.667,1.517-1.181c0.082-0.796-0.396-2.825-0.396-2.825h1.691
		c0.657,0,1.19-0.532,1.19-1.188v-8.313c0-0.503-0.408-0.912-0.911-0.914l-0.28-0.001v-9.387c0.878-0.534,0.961-0.961,0.961-0.961
		h-3.521H15.265z"/>
	<path fill="#FFFFFF" d="M27.765,1131.318h-3.521c0,0,0.083,0.427,0.961,0.961v9.387l-0.28,0.001
		c-0.503,0.002-0.909,0.411-0.909,0.914v8.313c0,0.656,0.531,1.188,1.188,1.188h1.692c0,0-0.479,2.029-0.396,2.825
		c0.054,0.514,0.729,1.181,1.518,1.181c0.926,0,1.463-0.667,1.516-1.181c0.083-0.796-0.396-2.825-0.396-2.825h1.691
		c0.657,0,1.19-0.532,1.19-1.188v-8.313c0-0.503-0.408-0.912-0.911-0.914l-0.28-0.001v-9.387c0.878-0.534,0.961-0.961,0.961-0.961
		h-3.521H27.765z"/>
	<path fill="#FFFFFF" d="M15.265,1188.779h-3.521c0,0,0.083,0.427,0.961,0.961v9.387l-0.28,0.001
		c-0.503,0.002-0.909,0.411-0.909,0.914v8.313c0,0.656,0.531,1.188,1.188,1.188h1.692c0,0-0.479,2.029-0.396,2.825
		c0.054,0.514,0.729,1.182,1.518,1.182c0.926,0,1.463-0.668,1.517-1.182c0.082-0.796-0.396-2.825-0.396-2.825h1.691
		c0.657,0,1.19-0.532,1.19-1.188v-8.313c0-0.503-0.408-0.912-0.911-0.914l-0.28-0.001v-9.387c0.878-0.534,0.961-0.961,0.961-0.961
		h-3.521H15.265z"/>
	<path fill="#FFFFFF" d="M27.765,1188.779h-3.521c0,0,0.083,0.427,0.961,0.961v9.387l-0.28,0.001
		c-0.503,0.002-0.909,0.411-0.909,0.914v8.313c0,0.656,0.531,1.188,1.188,1.188h1.692c0,0-0.479,2.029-0.396,2.825
		c0.054,0.514,0.729,1.182,1.518,1.182c0.926,0,1.463-0.668,1.516-1.182c0.083-0.796-0.396-2.825-0.396-2.825h1.691
		c0.657,0,1.19-0.532,1.19-1.188v-8.313c0-0.503-0.408-0.912-0.911-0.914l-0.28-0.001v-9.387c0.878-0.534,0.961-0.961,0.961-0.961
		h-3.521H27.765z"/>
	<path fill="#FFFFFF" d="M8.561,1159.401H5.039c0,0,0.084,0.427,0.962,0.961v9.387l-0.28,0.001c-0.503,0.002-0.91,0.411-0.91,0.914
		v8.313c0,0.657,0.532,1.188,1.189,1.188h1.691c0,0-0.479,2.029-0.396,2.825c0.053,0.514,0.728,1.181,1.517,1.181
		c0.926,0,1.463-0.667,1.517-1.181c0.082-0.796-0.396-2.825-0.396-2.825h1.692c0.656,0,1.189-0.531,1.189-1.188v-8.313
		c0-0.503-0.408-0.912-0.911-0.914l-0.279-0.001v-9.387c0.878-0.534,0.961-0.961,0.961-0.961H9.063H8.561z"/>
	<path fill="#FFFFFF" d="M21.061,1159.401H17.54c0,0,0.083,0.427,0.961,0.961v9.387l-0.28,0.001c-0.503,0.002-0.91,0.411-0.91,0.914
		v8.313c0,0.657,0.532,1.188,1.189,1.188h1.691c0,0-0.479,2.029-0.396,2.825c0.053,0.514,0.728,1.181,1.517,1.181
		c0.926,0,1.463-0.667,1.516-1.181c0.083-0.796-0.396-2.825-0.396-2.825h1.692c0.656,0,1.189-0.531,1.189-1.188v-8.313
		c0-0.503-0.408-0.912-0.911-0.914l-0.279-0.001v-9.387c0.878-0.534,0.961-0.961,0.961-0.961h-3.521H21.061z"/>
	<path fill="#FFFFFF" d="M33.061,1159.401h-3.521c0,0,0.084,0.427,0.962,0.961v9.387l-0.28,0.001
		c-0.503,0.002-0.91,0.411-0.91,0.914v8.313c0,0.657,0.532,1.188,1.189,1.188h1.691c0,0-0.479,2.029-0.396,2.825
		c0.053,0.514,0.728,1.181,1.517,1.181c0.926,0,1.463-0.667,1.516-1.181c0.083-0.796-0.396-2.825-0.396-2.825h1.692
		c0.656,0,1.189-0.531,1.189-1.188v-8.313c0-0.503-0.408-0.912-0.911-0.914l-0.279-0.001v-9.387
		c0.878-0.534,0.961-0.961,0.961-0.961h-3.521H33.061z"/>
	<line x1="4.811" y1="2093.882" x2="4.811" y2="893.882"/>
	<path fill="#FFFFFF" d="M15.265,1044.318h-3.521c0,0,0.083,0.427,0.961,0.961v9.387l-0.28,0.001
		c-0.503,0.002-0.909,0.411-0.909,0.914v8.313c0,0.656,0.531,1.188,1.188,1.188h1.692c0,0-0.479,2.029-0.396,2.825
		c0.054,0.514,0.729,1.181,1.518,1.181c0.926,0,1.463-0.667,1.517-1.181c0.082-0.796-0.396-2.825-0.396-2.825h1.691
		c0.657,0,1.19-0.532,1.19-1.188v-8.313c0-0.503-0.408-0.912-0.911-0.914l-0.28-0.001v-9.387c0.878-0.534,0.961-0.961,0.961-0.961
		h-3.521H15.265z"/>
	<path fill="#FFFFFF" d="M27.765,1044.318h-3.521c0,0,0.083,0.427,0.961,0.961v9.387l-0.28,0.001
		c-0.503,0.002-0.909,0.411-0.909,0.914v8.313c0,0.656,0.531,1.188,1.188,1.188h1.692c0,0-0.479,2.029-0.396,2.825
		c0.054,0.514,0.729,1.181,1.518,1.181c0.926,0,1.463-0.667,1.516-1.181c0.083-0.796-0.396-2.825-0.396-2.825h1.691
		c0.657,0,1.19-0.532,1.19-1.188v-8.313c0-0.503-0.408-0.912-0.911-0.914l-0.28-0.001v-9.387c0.878-0.534,0.961-0.961,0.961-0.961
		h-3.521H27.765z"/>
	<path fill="#FFFFFF" d="M15.265,1101.779h-3.521c0,0,0.083,0.427,0.961,0.961v9.387l-0.28,0.001
		c-0.503,0.002-0.909,0.411-0.909,0.914v8.313c0,0.656,0.531,1.188,1.188,1.188h1.692c0,0-0.479,2.029-0.396,2.825
		c0.054,0.514,0.729,1.182,1.518,1.182c0.926,0,1.463-0.668,1.517-1.182c0.082-0.796-0.396-2.825-0.396-2.825h1.691
		c0.657,0,1.19-0.532,1.19-1.188v-8.313c0-0.503-0.408-0.912-0.911-0.914l-0.28-0.001v-9.387c0.878-0.534,0.961-0.961,0.961-0.961
		h-3.521H15.265z"/>
	<path fill="#FFFFFF" d="M27.765,1101.779h-3.521c0,0,0.083,0.427,0.961,0.961v9.387l-0.28,0.001
		c-0.503,0.002-0.909,0.411-0.909,0.914v8.313c0,0.656,0.531,1.188,1.188,1.188h1.692c0,0-0.479,2.029-0.396,2.825
		c0.054,0.514,0.729,1.182,1.518,1.182c0.926,0,1.463-0.668,1.516-1.182c0.083-0.796-0.396-2.825-0.396-2.825h1.691
		c0.657,0,1.19-0.532,1.19-1.188v-8.313c0-0.503-0.408-0.912-0.911-0.914l-0.28-0.001v-9.387c0.878-0.534,0.961-0.961,0.961-0.961
		h-3.521H27.765z"/>
	<path fill="#FFFFFF" d="M8.561,1072.401H5.039c0,0,0.084,0.427,0.962,0.961v9.387l-0.28,0.001c-0.503,0.002-0.91,0.411-0.91,0.914
		v8.313c0,0.657,0.532,1.188,1.189,1.188h1.691c0,0-0.479,2.029-0.396,2.825c0.053,0.514,0.728,1.181,1.517,1.181
		c0.926,0,1.463-0.667,1.517-1.181c0.082-0.796-0.396-2.825-0.396-2.825h1.692c0.656,0,1.189-0.531,1.189-1.188v-8.313
		c0-0.503-0.408-0.912-0.911-0.914l-0.279-0.001v-9.387c0.878-0.534,0.961-0.961,0.961-0.961H9.063H8.561z"/>
	<path fill="#FFFFFF" d="M21.061,1072.401H17.54c0,0,0.083,0.427,0.961,0.961v9.387l-0.28,0.001c-0.503,0.002-0.91,0.411-0.91,0.914
		v8.313c0,0.657,0.532,1.188,1.189,1.188h1.691c0,0-0.479,2.029-0.396,2.825c0.053,0.514,0.728,1.181,1.517,1.181
		c0.926,0,1.463-0.667,1.516-1.181c0.083-0.796-0.396-2.825-0.396-2.825h1.692c0.656,0,1.189-0.531,1.189-1.188v-8.313
		c0-0.503-0.408-0.912-0.911-0.914l-0.279-0.001v-9.387c0.878-0.534,0.961-0.961,0.961-0.961h-3.521H21.061z"/>
	<path fill="#FFFFFF" d="M33.061,1072.401h-3.521c0,0,0.084,0.427,0.962,0.961v9.387l-0.28,0.001
		c-0.503,0.002-0.91,0.411-0.91,0.914v8.313c0,0.657,0.532,1.188,1.189,1.188h1.691c0,0-0.479,2.029-0.396,2.825
		c0.053,0.514,0.728,1.181,1.517,1.181c0.926,0,1.463-0.667,1.516-1.181c0.083-0.796-0.396-2.825-0.396-2.825h1.692
		c0.656,0,1.189-0.531,1.189-1.188v-8.313c0-0.503-0.408-0.912-0.911-0.914l-0.279-0.001v-9.387
		c0.878-0.534,0.961-0.961,0.961-0.961h-3.521H33.061z"/>
</g>
</svg>
