<?xml version="1.0" encoding="utf-8"?>
<!-- Generator: Adobe Illustrator 16.0.0, SVG Export Plug-In . SVG Version: 6.00 Build 0)  -->
<!DOCTYPE svg PUBLIC "-//W3C//DTD SVG 1.1//EN" "http://www.w3.org/Graphics/SVG/1.1/DTD/svg11.dtd">
<svg version="1.1" xmlns="http://www.w3.org/2000/svg" xmlns:xlink="http://www.w3.org/1999/xlink" x="0px" y="0px"
	 width="102.202px" height="158.852px" viewBox="0 0 102.202 158.852" enable-background="new 0 0 102.202 158.852"
	 xml:space="preserve">
<g id="Layer_2">
	<rect y="-1.324" width="102.202" height="160.176"/>
</g>
<g id="Layer_1">
	<path fill="#FFFFFF" d="M7.973,155.141c0,0,5.361,0.412,5.086,3.711c0,0,2.337-1.51,2.887-3.572c0.55-2.062,3.299,0,3.299,0
		s1.1-2.062,1.237-2.475s11.272,5.361,11.823,5.498c0.55,0.137,4.537-8.248,4.537-8.248s15.534,4.676,16.222,4.535
		c0.687-0.136,0.412-2.473,0.412-2.473l7.836,0.412l-0.825-3.299l6.874,4.947l7.975-0.549l3.984,2.611l7.699-3.299l0.824,1.1
		l2.201-2.475l3.848-0.412l1.1-5.773l-6.322,0.961l-0.826-3.297c0,0-4.398-0.139-4.123-0.551c0.274-0.414,5.773-0.414,5.773-0.414
		l1.65-3.161c0,0-2.338-0.687-2.475-0.823c-0.138-0.139,3.986,0,3.986,0l1.924-1.238l-1.512-2.062l2.75,0.688
		c0,0,8.111-7.697,6.049-12.922c-2.062-5.224-9.623-7.974-13.061-7.699c-3.436,0.275-2.795,3.164-2.795,3.164
		s-2.291-0.275-3.024-2.199c0,0,0.55-1.741,3.024-2.66c2.475-0.914-0.275-6.689-1.467-8.888c-1.191-2.2,0.094-1.467,1.283-2.016
		c1.191-0.55-1.375-4.308-2.657-6.6c-1.283-2.292,0.618-2.52,1.649-3.483c1.03-0.962-1.925-2.888-3.367-4.055
		c-1.444-1.169-1.994-6.394-6.874-6.6c-4.881-0.206-2.75-15.809-2.062-18.214c0.686-2.406-2.544-0.275-4.194-6.782
		c-1.649-6.507-4.582-4.125-6.14-4.308c-1.559-0.183-6.049,1.741-6.782-0.092s2.749-1.467,4.032-1.283
		c1.283,0.184,0.824-0.549,1.467-1.558c0.641-1.007,4.582,3.3,4.398-0.182c-0.183-3.482-2.291-3.299-2.291-3.299l1.008-1.192
		c0,0,10.356-9.348,10.448-13.289c0.091-3.94,3.208-2.291,3.208-5.041c0-2.749-10.266-4.492-11.916-4.215
		c-1.648,0.274-3.756-2.291-4.947-1.468c-1.192,0.825-3.301,2.2-4.033,1.742c-0.732-0.458-4.582,0.732-4.492-0.551
		c0.093-1.281,1.834-2.839,2.659-2.107c0.824,0.733,1.741,0.275,1.741,0.275s1.65-1.467,1.833-1.924
		c0.183-0.459-1.282-0.551-2.017-0.551c-0.733,0-0.917-0.458-0.642-0.734c0.274-0.274,10.722-7.331,10.997-7.79
		s2.016-2.749,2.108-4.124c0.091-1.375-12.923-1.924-13.105-1.191c-0.184,0.732-1.375,1.925-1.375,1.925s-0.183-1.559-0.55-2.566
		c-0.366-1.009-3.574-4.491-4.124-2.292c-0.55,2.199-0.917,3.574-1.466,3.574c-0.551,0-3.85,1.284,0.916,3.3
		c0,0-0.642,2.016-2.383,0.55c-1.74-1.467-2.017-1.833-1.649,0.183l0.092,2.108l-2.017-1.374c0,0-1.307,1.328,0.206,2.565
		c0,0,1.649,1.031,0.757,1.65c-0.895,0.619-1.238,0.137-2.338-1.032c-1.1-1.168-1.443,1.032-0.824,2.338
		c0.618,1.306-0.619,0.755-1.1,0c-0.481-0.756-1.237-2.338-1.787-1.306c-0.55,1.031,0.688,4.537,1.787,5.911
		c1.1,1.375,0.481,5.774,0.344,5.98c-0.137,0.207-3.437-0.619-3.093,0.48c0.344,1.1,3.643,1.857,2.543,2.818
		c-1.1,0.963-2.475,1.17-3.505,0.069c-1.031-1.099-3.918,0.825-2.2,2.818s0.618,2.062-0.756,1.443s-3.368-1.236-3.231,0.138
		c0.138,1.376,0.207,1.582,0.207,1.582s-2.337-0.277-1.855,0.824c0.481,1.1,2.475,0.412,2.887,1.306
		c0.413,0.894-0.756,2.681-1.994,2.75c-1.237,0.068-3.78-0.344-2.336,1.237c1.443,1.581,6.254,0.619,7.423-1.101
		c1.168-1.718,1.581-2.268,1.925-2.544c0.344-0.273,1.718-1.305,1.718-1.305l2.063-1.168l0.274,1.099l-3.024,2.062l-0.962,2.062
		l-1.994,1.927c0.138,1.374-0.274,4.397-0.274,4.397l-2.956,1.789c0,0,1.855,0.206,2.474-0.206c0.619-0.413-1.994,2.199-1.994,2.199
		l1.238,1.237c0,0-2.337,1.237-2.612,3.438c-0.274,2.198-1.925,3.986-2.337,4.26c-0.412,0.276-0.687,1.65,0.55,1.72
		c1.237,0.068,2.75-0.826,2.75-0.826l0.825-2.406l0.481-1.443l0.756-2.544l1.787-1.167l0.207-2.2l-0.55-1.788l5.98-3.575
		c0,0-0.207,3.163,0.412,4.605c0.618,1.444,3.024,1.857,3.024,1.857l-3.711-0.482c0,0-1.306,3.781-1.306,4.124
		c0,0.345,1.924,3.988,1.924,3.988l-3.024,3.092l-2.887,4.124l-0.275,2.406c0,0-1.718,0.275-1.925,0.343
		c-0.206,0.069,3.163,2.681,3.163,2.681l0.893-1.17l3.094,4.538l1.1-1.444c0,0-0.207-2.887-0.207-3.024s3.025,3.781,3.025,3.781
		l2.062-0.413c0,0,2.475-2.337,3.437-1.237c0.963,1.1,2.131-1.169,2.131-1.169l1.787,0.619l1.994,0.068l-0.414,0.962
		c0,0-3.299-0.549-3.643,0.688c-0.344,1.239-3.643,5.223-3.643,5.223s1.031,1.238,1.65,3.163c0.618,1.925-0.344,3.231-0.344,3.231
		l0.756,0.687l1.375-0.687l-0.139,2.542v0.344l1.581,0.481l2.132-2.475l0.48,1.376l-1.58,2.062l0.617,0.961l-0.344,0.962
		l-2.68-0.414l-0.551,1.996l1.925,1.442l-0.068,0.963l-2.749,1.993l0.412,2.337l3.574,2.543l-1.237,1.375l-2.543-3.367l-1.101,1.03
		l1.031,1.581l-1.168,1.306l-0.894-2.474c0,0-2.132-1.033-2.749-0.138c-0.619,0.894-1.719,1.167-2.338,0.411
		c-0.618-0.754-1.374-1.786-1.374-1.786s-1.169,1.168-1.237,1.375c-0.069,0.206-2.406,0.138-2.406,0.138l0.825-1.787l-3.299-3.507
		l-2.062,1.925l1.994,3.987l-2.612,3.162c0,0-2.681,1.719-2.681,1.443s1.1,2.543,1.1,2.543l3.781-2.75l2.199,2.818l0.069,5.225
		l-6.324,5.498l-3.025-0.344l-2.062,2.544l-5.567-0.896l-0.481,5.02l1.375,0.757l1.306,2.268l3.024,0.206l1.649-1.855l3.093,0.068
		l0.481,4.605l2.268-0.207l1.168-1.1l1.581,0.482l1.168,3.711l2.75,2.337l2.268-0.343l2.543-2.682l1.788,0.412l1.306,0.688
		l-2.887,2.338l-1.031,2.336c0,0,0.138,0.346-0.068,0.346s-3.574,0.756-3.574,0.756l-4.674-2.957c0,0-4.674,0.275-4.812,0.069
		s-2.13,3.505-2.13,3.505H26.6l-0.962-1.787l-1.788,1.72l0.826,2.749l-4.262,3.162c0,0-1.031-0.413-1.306-0.413
		c-0.274,0-1.237,2.131-1.237,2.131s-2.268,1.168-2.2,1.03c0.068-0.137-0.756,1.993-0.756,1.993l-5.018,0.069l-2.062,0.275
		L7.973,155.141z"/>
	<path fill="#FFFFFF" d="M0,69.704l5.773,7.354l3.23-0.068l0.619-3.368l2.956-0.619l0.413,3.642l2.269,1.72l-0.962,1.925
		l2.612,0.755l0.756-1.305l2.475,1.786l1.649-0.206l1.512-2.817l4.399-0.344l0.413-6.118l-2.956,0.481l-1.443-0.549l3.231-2.819
		l-0.207-1.512l-1.855-0.894l-0.413-2.199l0.413-2.818l-3.506-2.13h-2.337l-0.962,0.894l-2.474-0.826l-1.306,2.475l-1.856-0.344
		c0,0-1.168-0.756-1.375-0.756c-0.206,0-2.749,4.811-2.749,4.811L4.88,65.58l1.168,2.336L0,69.704z"/>
</g>
</svg>
