<?xml version="1.0" encoding="utf-8"?>
<!-- Generator: Adobe Illustrator 16.0.0, SVG Export Plug-In . SVG Version: 6.00 Build 0)  -->
<!DOCTYPE svg PUBLIC "-//W3C//DTD SVG 1.1//EN" "http://www.w3.org/Graphics/SVG/1.1/DTD/svg11.dtd">
<svg version="1.1" id="Layer_1" xmlns="http://www.w3.org/2000/svg" xmlns:xlink="http://www.w3.org/1999/xlink" x="0px" y="0px"
	 width="136.401px" height="136.401px" viewBox="0 0 136.401 136.401" enable-background="new 0 0 136.401 136.401"
	 xml:space="preserve">
<path fill="#BCBEC0" d="M68.2,136.401C30.534,136.401,0,105.867,0,68.2C0,30.534,30.534,0,68.2,0
	c37.666,0,68.201,30.534,68.201,68.2C136.401,105.867,105.866,136.401,68.2,136.401"/>
<path fill="#FFFFFF" d="M68.201,127.014c-32.481,0-58.813-26.331-58.813-58.813c0-32.481,26.332-58.812,58.813-58.812
	s58.812,26.331,58.812,58.812C127.013,100.683,100.682,127.014,68.201,127.014"/>
<path fill="none" stroke="#000000" stroke-width="8" stroke-miterlimit="10" d="M72.284,101.531"/>
<path fill="none" stroke="#000000" stroke-width="8" stroke-miterlimit="10" d="M81.284,38.387"/>
<line fill="none" x1="59.247" y1="67.207" x2="100.247" y2="67.207"/>
<line fill="none" x1="60.839" y1="56.029" x2="101.839" y2="56.029"/>
<line fill="none" x1="81.339" y1="77.531" x2="122.339" y2="77.531"/>
<path fill="none" stroke="#000000" stroke-width="8" stroke-linecap="round" stroke-miterlimit="10" d="M76.784,69.962"/>
<line fill="none" stroke="#000000" stroke-width="8" stroke-miterlimit="10" x1="79.747" y1="58.031" x2="79.747" y2="59.031"/>
<g>
	
		<line fill="none" stroke="#000000" stroke-width="8.4231" stroke-linecap="round" stroke-miterlimit="10" x1="63.354" y1="34.959" x2="54.354" y2="104.959"/>
	
		<line fill="none" stroke="#000000" stroke-width="8.3812" stroke-linecap="round" stroke-miterlimit="10" x1="46.854" y1="58.031" x2="91.854" y2="58.031"/>
	
		<line fill="none" stroke="#000000" stroke-width="8.4231" stroke-linecap="round" stroke-miterlimit="10" x1="83.258" y1="35.045" x2="74.258" y2="105.045"/>
	
		<line fill="none" stroke="#000000" stroke-width="8.3812" stroke-linecap="round" stroke-miterlimit="10" x1="45.354" y1="80.531" x2="90.354" y2="80.531"/>
</g>
</svg>
